<svg width="45" height="45" viewBox="0 0 45 45" fill="none" xmlns="http://www.w3.org/2000/svg">
<path d="M40.5882 14.7599C40.5879 14.0873 40.4441 13.493 40.1531 12.983C39.8674 12.4815 39.4396 12.0611 38.8655 11.7287C34.1275 8.9967 29.385 6.2731 24.6484 3.53833C23.3714 2.80122 22.1334 2.82809 20.8659 3.57583C18.9801 4.68802 9.53813 10.0975 6.72461 11.7272C5.56578 12.3979 5.00195 13.4244 5.00172 14.7587C5 20.2529 5.00172 25.7468 5 31.2412C5.00023 31.8989 5.13797 32.4817 5.41602 32.9841C5.70195 33.5008 6.13578 33.9328 6.72297 34.2726C9.53681 35.9023 18.98 41.3115 20.8654 42.4239C22.1335 43.1721 23.3715 43.1988 24.6489 42.4614C29.3854 39.7265 34.1283 37.0029 38.8671 34.2711C39.4543 33.9313 39.8881 33.4991 40.1741 32.9828C40.4518 32.4803 40.5898 31.8975 40.5901 31.2397C40.5901 31.2398 40.5901 20.2542 40.5882 14.7599Z" fill="#B14796"/>
<path d="M22.8494 22.9465L5.41602 32.9842C5.70195 33.5009 6.13578 33.933 6.72297 34.2727C9.53681 35.9024 18.98 41.3116 20.8654 42.424C22.1335 43.1722 23.3715 43.1989 24.6489 42.4615C29.3854 39.7266 34.1283 37.003 38.8671 34.2712C39.4543 33.9314 39.8881 33.4992 40.1741 32.9829L22.8494 22.9465Z" fill="#782379"/>
<path d="M40.5882 14.76C40.5878 14.0875 40.444 13.4932 40.1531 12.9832L22.8494 22.9465L40.174 32.983C40.4517 32.4805 40.5897 31.8977 40.59 31.2399C40.59 31.2399 40.59 20.2543 40.5882 14.76Z" fill="#962C87"/>
<path d="M27.9234 25.8856C26.914 27.6755 24.9961 28.8852 22.795 28.8852C20.6073 28.8852 18.7003 27.6906 17.6859 25.9197C17.1763 25.031 16.9087 24.0243 16.9098 22.9999C16.9098 19.7496 19.5448 17.1148 22.7951 17.1148C24.9687 17.1148 26.8656 18.2944 27.8851 20.0473L33.0291 17.0851C30.9845 13.5558 27.1673 11.1812 22.7951 11.1812C16.2675 11.1812 10.9761 16.4726 10.9761 22.9999C10.9761 25.1413 11.5457 27.1494 12.5415 28.8816C14.5808 32.4296 18.409 34.8188 22.795 34.8188C27.189 34.8188 31.0232 32.4201 33.0597 28.8615L27.9234 25.8856Z" fill="white"/>
<path d="M37.9668 22.3242V21.1553H37.017V20.2056H35.8481V21.1553H34.4234V20.2056H33.2545V21.1553H32.3047V22.3242H33.2545V23.7489H32.3047V24.9179H33.2545V25.8675H34.4234V24.9179H35.8481V25.8675H37.017V24.9179H37.9669V23.7489H37.017V22.3242H37.9668ZM35.8481 23.7489H34.4234V22.3242H35.8481V23.7489Z" fill="white"/>
</svg>
