<svg width="45" height="45" viewBox="0 0 45 45" fill="none" xmlns="http://www.w3.org/2000/svg">
<g clip-path="url(#clip0_11_2007)">
<path d="M22.2771 8.33816C20.1978 9.80057 17.8412 11.4581 16.5785 14.2004C14.3852 18.9847 21.0663 24.2034 21.3519 24.4233C21.4184 24.4745 21.5005 24.5015 21.5844 24.4998C21.6684 24.498 21.7492 24.4677 21.8136 24.4138C21.878 24.3599 21.922 24.2856 21.9385 24.2033C21.955 24.121 21.9429 24.0355 21.9042 23.961C21.88 23.9144 19.4818 19.2561 19.571 15.9144C19.6025 14.7504 21.2314 13.43 22.9558 12.0321C24.5352 10.7517 26.3256 9.30056 27.3731 7.60295C29.6726 3.86618 27.1168 0.191805 27.0907 0.155067C27.0414 0.0859354 26.9699 0.0358697 26.8881 0.0132982C26.8063 -0.00927331 26.7192 -0.00297219 26.6415 0.0311408C26.5639 0.0653613 26.5004 0.125298 26.4617 0.200858C26.4231 0.276418 26.4117 0.362986 26.4294 0.445986C26.4346 0.470332 26.9316 2.90017 25.5485 5.40356C24.9788 6.43804 23.7269 7.31853 22.2771 8.33816Z" fill="#DB380E"/>
<path d="M31.0374 9.98597C31.1083 9.93249 31.1575 9.85525 31.176 9.76842C31.1945 9.68159 31.1811 9.591 31.1382 9.51327C31.0953 9.43554 31.0258 9.37589 30.9425 9.34527C30.8591 9.31465 30.7676 9.31511 30.6845 9.34656C30.3313 9.48086 22.0347 12.6789 22.0347 16.5431C22.0347 19.2068 23.1725 20.6139 24.0033 21.6415C24.3292 22.0446 24.6106 22.3927 24.7033 22.6898C24.9643 23.5461 24.3459 25.0939 24.0859 25.6181C24.0494 25.6914 24.0383 25.7748 24.0544 25.8551C24.0706 25.9355 24.113 26.0081 24.175 26.0616C24.237 26.1152 24.3151 26.1465 24.3969 26.1508C24.4787 26.155 24.5596 26.1319 24.6268 26.085C24.7695 25.9859 28.1132 23.6218 27.5135 20.7735C27.2901 19.6909 26.7581 18.8999 26.2887 18.2018C25.5615 17.1203 25.0362 16.3392 25.8331 14.8963C26.7666 13.2134 30.9946 10.018 31.0374 9.98597Z" fill="#DB380E"/>
<path d="M9.44091 26.2123C9.2987 26.6381 9.36585 27.0605 9.63488 27.4342C10.5343 28.6829 13.7201 29.3704 18.6057 29.3704H18.6064C19.2683 29.3704 19.9673 29.3574 20.6831 29.3317C28.4944 29.0521 31.3917 26.6186 31.5112 26.5152C31.5743 26.4604 31.6168 26.3858 31.632 26.3037C31.6472 26.2216 31.6341 26.1368 31.5947 26.0631C31.5554 25.9894 31.4923 25.9312 31.4156 25.8981C31.339 25.865 31.2533 25.8588 31.1727 25.8807C28.4217 26.6318 23.2847 26.8985 19.7216 26.8985C15.7346 26.8985 13.7041 26.6112 13.207 26.3991C13.4621 26.0489 15.0353 25.4235 16.9849 25.04C17.0747 25.0222 17.1546 24.9717 17.2093 24.8982C17.2639 24.8247 17.2892 24.7335 17.2803 24.6424C17.2714 24.5513 17.229 24.4667 17.1612 24.4051C17.0935 24.3436 17.0052 24.3094 16.9137 24.3093C15.7709 24.3093 10.04 24.401 9.44091 26.2123ZM35.5792 23.7058C33.968 23.7058 32.4402 24.5134 32.3759 24.5475C32.3035 24.5864 32.2462 24.6483 32.213 24.7234C32.1798 24.7985 32.1726 24.8826 32.1925 24.9623C32.2125 25.0419 32.2584 25.1127 32.3231 25.1633C32.3878 25.2139 32.4675 25.2415 32.5496 25.2417C32.5838 25.2417 35.9864 25.2696 36.2945 27.2136C36.5675 28.8908 33.0751 31.6082 31.7064 32.5138C31.6348 32.5612 31.5821 32.6322 31.5572 32.7143C31.5323 32.7965 31.5368 32.8848 31.57 32.964C31.6032 33.0432 31.663 33.1083 31.7391 33.1481C31.8152 33.1879 31.9028 33.2 31.9868 33.1821C32.3116 33.1126 39.9327 31.4332 39.1269 26.996C38.6353 24.2767 36.9262 23.7058 35.5792 23.7058ZM30.3527 31.9708C30.3657 31.9012 30.3583 31.8293 30.3316 31.7638C30.3048 31.6982 30.2598 31.6417 30.2018 31.6011L28.3745 30.3211C28.3304 30.2904 28.2802 30.2696 28.2273 30.2602C28.1744 30.2508 28.1201 30.2531 28.0682 30.2668C28.0491 30.2716 26.1382 30.774 23.3638 31.0821C22.2627 31.2055 21.0294 31.2708 19.797 31.2708C17.0233 31.2708 15.2098 30.9449 14.9457 30.7058C14.9107 30.6387 14.9218 30.6082 14.928 30.5912C14.976 30.4578 15.2332 30.2992 15.3989 30.2365C15.4875 30.2041 15.5603 30.139 15.6024 30.0546C15.6445 29.9702 15.6526 29.8729 15.6252 29.7826C15.5977 29.6924 15.5367 29.6161 15.4547 29.5695C15.3727 29.5229 15.276 29.5094 15.1844 29.5319C13.3514 29.9743 12.455 30.5929 12.5203 31.3704C12.6361 32.7491 15.8293 33.4567 18.5289 33.6437C18.9171 33.6703 19.337 33.6837 19.7765 33.6837H19.7772C24.2662 33.6837 30.0209 32.2753 30.0784 32.2609C30.1472 32.2441 30.2097 32.2078 30.2584 32.1563C30.307 32.1049 30.3398 32.0405 30.3527 31.9708ZM16.5762 34.9296C16.6436 34.8857 16.6947 34.8211 16.7219 34.7455C16.7491 34.6699 16.7509 34.5875 16.7269 34.5109C16.6779 34.3533 16.5305 34.2497 16.365 34.2519C16.1193 34.2584 13.9612 34.3558 13.8101 35.7298C13.7644 36.1404 13.882 36.5157 14.1599 36.8448C14.9347 37.7631 17.0263 38.3089 20.5531 38.5133C20.9704 38.5384 21.3942 38.5509 21.813 38.5509C26.2967 38.5509 29.3165 37.1471 29.443 37.0873C29.5031 37.0589 29.5545 37.0147 29.5916 36.9594C29.6287 36.9042 29.6502 36.8399 29.6537 36.7734C29.6573 36.707 29.6428 36.6408 29.6118 36.5819C29.5808 36.523 29.5344 36.4736 29.4776 36.4389L27.1682 35.0292C27.0881 34.9805 26.9926 34.964 26.9008 34.9828C26.8862 34.9859 25.4199 35.29 23.2071 35.5904C22.7884 35.6474 22.264 35.6763 21.6488 35.6763C19.4383 35.6763 16.9797 35.3152 16.5081 35.0786C16.5013 35.0345 16.51 34.9784 16.5762 34.9296Z" fill="#73A1FB"/>
<path d="M19.7234 42.7898C29.9938 42.7811 35.506 40.9546 36.5679 39.8053C36.9438 39.3987 36.9844 39.0137 36.9525 38.7623C36.8736 38.1435 36.31 37.7647 36.2461 37.7236C36.0919 37.6244 35.885 37.6503 35.7648 37.789C35.6448 37.9277 35.642 38.1304 35.7624 38.269C35.8272 38.3523 35.8646 38.4918 35.6752 38.6814C35.2507 39.0779 30.9691 40.2814 23.8402 40.6429C22.8636 40.6937 21.8393 40.7195 20.796 40.7197C14.4131 40.7197 9.74176 39.8453 9.12855 39.3359C9.36489 38.9963 11.0172 38.4538 12.7744 38.1468C12.8711 38.1319 12.9579 38.0791 13.0157 38.0002C13.0735 37.9213 13.0975 37.8226 13.0826 37.7259C13.0676 37.6293 13.0149 37.5425 12.936 37.4847C12.857 37.4269 12.7584 37.4028 12.6617 37.4178C12.6121 37.4246 12.4439 37.4346 12.2491 37.4465C9.34977 37.6235 5.99928 38.0181 5.82446 39.512C5.77138 39.9672 5.90664 40.3804 6.22665 40.7401C7.00967 41.6199 9.2603 42.7896 19.723 42.7896L19.7234 42.7898Z" fill="#73A1FB"/>
<path d="M38.5853 40.1291C38.5147 40.0964 38.4356 40.0869 38.3592 40.1019C38.2828 40.1169 38.2132 40.1558 38.1603 40.2128C38.1452 40.2291 36.6011 41.8437 31.9583 42.7919C30.1809 43.148 26.8446 43.3286 22.042 43.3286C17.2304 43.3286 12.6519 43.1393 12.6062 43.1374C12.415 43.1281 12.2514 43.2671 12.2254 43.4554C12.2128 43.5462 12.2345 43.6384 12.2863 43.7141C12.338 43.7898 12.4161 43.8435 12.5053 43.8648C12.5529 43.876 17.3511 45.0001 23.9117 45.0001C27.0582 45.0001 30.1202 44.7446 33.0126 44.2403C38.4057 43.2949 38.7832 40.6207 38.7967 40.5073C38.8059 40.4301 38.7903 40.3519 38.7524 40.2839C38.7144 40.216 38.6559 40.1618 38.5853 40.1291Z" fill="#73A1FB"/>
</g>
<defs>
<clipPath id="clip0_11_2007">
<rect width="45" height="45" fill="white"/>
</clipPath>
</defs>
</svg>
