<svg width="45" height="45" viewBox="0 0 45 45" fill="none" xmlns="http://www.w3.org/2000/svg">
<path d="M22.7124 35.3085C29.7332 35.3085 35.4247 29.617 35.4247 22.5962C35.4247 15.5753 29.7332 9.88379 22.7124 9.88379C15.6915 9.88379 10 15.5753 10 22.5962C10 29.617 15.6915 35.3085 22.7124 35.3085Z" fill="#00007F"/>
<path d="M23 40.75C22.6657 40.75 22.3336 40.7408 22.004 40.7225L21.9902 40.9722C21.3105 40.9346 20.6409 40.8593 19.9834 40.7483L20.025 40.5018C19.3649 40.3904 18.7172 40.2426 18.084 40.0605L18.0149 40.3008C17.364 40.1136 16.7282 39.8906 16.1098 39.6341L16.2056 39.4032C15.5897 39.1478 14.9913 38.8588 14.4127 38.5383L14.2916 38.757C13.701 38.4299 13.1308 38.0706 12.5832 37.6814L12.728 37.4776C12.1862 37.0924 11.6668 36.6776 11.1724 36.2354L11.0057 36.4218C10.5038 35.9729 10.0271 35.4962 9.57824 34.9943L9.7646 34.8276C9.32244 34.3332 8.90759 33.8138 8.5224 33.2719L8.31864 33.4168C7.92943 32.8692 7.5701 32.299 7.243 31.7084L7.46169 31.5873C7.14123 31.0086 6.85216 30.4103 6.59678 29.7944L6.36585 29.8902C6.10941 29.2718 5.88645 28.636 5.69923 27.9851L5.93949 27.9159C5.75738 27.2828 5.60956 26.6351 5.49818 25.975L5.25167 26.0166C5.14073 25.3591 5.06543 24.6895 5.02785 24.0098L5.27747 23.996C5.25924 23.6663 5.25 23.3343 5.25 23C5.25 22.6657 5.25924 22.3336 5.27747 22.004L5.02785 21.9902C5.06543 21.3105 5.14073 20.6409 5.25167 19.9834L5.49818 20.025C5.60956 19.3649 5.75738 18.7172 5.93949 18.084L5.69923 18.0149C5.88645 17.364 6.10941 16.7282 6.36585 16.1098L6.59678 16.2056C6.85217 15.5897 7.14124 14.9913 7.4617 14.4127L7.243 14.2916C7.5701 13.701 7.92944 13.1308 8.31864 12.5832L8.52241 12.728C8.90759 12.1862 9.32244 11.6668 9.7646 11.1724L9.57825 11.0057C10.0271 10.5038 10.5038 10.0271 11.0057 9.57824L11.1724 9.7646C11.6668 9.32244 12.1862 8.90759 12.7281 8.5224L12.5832 8.31864C13.1308 7.92943 13.701 7.5701 14.2916 7.243L14.4127 7.4617C14.9913 7.14123 15.5897 6.85217 16.2056 6.59678L16.1098 6.36585C16.7282 6.10941 17.364 5.88645 18.0149 5.69923L18.084 5.93949C18.7172 5.75738 19.3649 5.60956 20.025 5.49818L19.9834 5.25167C20.6409 5.14073 21.3105 5.06543 21.9902 5.02785L22.004 5.27747C22.3336 5.25924 22.6657 5.25 23 5.25C23.3343 5.25 23.6664 5.25924 23.996 5.27747L24.0098 5.02785C24.6895 5.06543 25.3591 5.14073 26.0166 5.25167L25.975 5.49818C26.6351 5.60956 27.2828 5.75738 27.916 5.93949L27.9851 5.69923C28.636 5.88645 29.2718 6.10941 29.8902 6.36585L29.7944 6.59678C30.4103 6.85217 31.0087 7.14124 31.5873 7.4617L31.7084 7.243C32.299 7.5701 32.8692 7.92944 33.4168 8.31864L33.2719 8.52241C33.8138 8.90759 34.3332 9.32244 34.8276 9.7646L34.9943 9.57825C35.4962 10.0271 35.9729 10.5038 36.4218 11.0057L36.2354 11.1724C36.6776 11.6668 37.0924 12.1862 37.4776 12.7281L37.6814 12.5832C38.0706 13.1308 38.4299 13.701 38.757 14.2916L38.5383 14.4127C38.8588 14.9913 39.1478 15.5897 39.4032 16.2056L39.6342 16.1098C39.8906 16.7282 40.1136 17.364 40.3008 18.0149L40.0605 18.084C40.2426 18.7172 40.3904 19.3649 40.5018 20.025L40.7483 19.9834C40.8593 20.6409 40.9346 21.3105 40.9722 21.9902L40.7225 22.004C40.7408 22.3336 40.75 22.6657 40.75 23C40.75 23.3343 40.7408 23.6664 40.7225 23.996L40.9722 24.0098C40.9346 24.6895 40.8593 25.3591 40.7483 26.0166L40.5018 25.975C40.3904 26.6351 40.2426 27.2828 40.0605 27.916L40.3008 27.9851C40.1136 28.636 39.8906 29.2718 39.6341 29.8902L39.4032 29.7944C39.1478 30.4103 38.8588 31.0087 38.5383 31.5873L38.757 31.7084C38.4299 32.299 38.0706 32.8692 37.6814 33.4168L37.4776 33.2719C37.0924 33.8138 36.6776 34.3332 36.2354 34.8276L36.4218 34.9943C35.9729 35.4962 35.4962 35.9729 34.9943 36.4218L34.8276 36.2354C34.3332 36.6776 33.8138 37.0924 33.2719 37.4776L33.4168 37.6814C32.8692 38.0706 32.299 38.4299 31.7084 38.757L31.5873 38.5383C31.0086 38.8588 30.4103 39.1478 29.7944 39.4032L29.8902 39.6342C29.2718 39.8906 28.636 40.1136 27.9851 40.3008L27.916 40.0605C27.2828 40.2426 26.6351 40.3904 25.975 40.5018L26.0166 40.7483C25.3591 40.8593 24.6895 40.9346 24.0098 40.9722L23.996 40.7225C23.6663 40.7408 23.3343 40.75 23 40.75Z" stroke="#9C9C9C" stroke-width="0.5" stroke-dasharray="2 2"/>
<path d="M27.9478 21.0905C30.0928 21.0905 31.8317 19.3516 31.8317 17.2066C31.8317 15.0616 30.0928 13.3228 27.9478 13.3228C25.8028 13.3228 24.064 15.0616 24.064 17.2066C24.064 19.3516 25.8028 21.0905 27.9478 21.0905Z" fill="white"/>
<path d="M35.4246 13.7677C37.5696 13.7677 39.3085 12.0289 39.3085 9.88386C39.3085 7.73886 37.5696 6 35.4246 6C33.2796 6 31.5408 7.73886 31.5408 9.88386C31.5408 12.0289 33.2796 13.7677 35.4246 13.7677Z" fill="#00007F"/>
<path d="M14.1748 20.8169H15.2527V28.0371H18.8457V28.9097H14.1748V20.8169ZM24.9025 27.3356C24.9025 27.9345 24.9196 28.4648 24.9538 28.9268H23.9786L23.9101 27.9687H23.893C23.6021 28.4306 22.9691 29.0466 21.8912 29.0466C20.9502 29.0466 19.8038 28.5333 19.8038 26.4973V23.0925H20.8988V26.309C20.8988 27.4212 21.241 28.1569 22.2505 28.1569C22.9862 28.1569 23.4995 27.6607 23.7048 27.1987C23.7732 27.0448 23.8075 26.8566 23.8075 26.6512V23.0753H24.9025V27.3356ZM30.0695 28.9268L29.984 28.1911H29.9498C29.6076 28.6531 28.9574 29.0637 28.1019 29.0637C26.8701 29.0637 26.2541 28.2424 26.2541 27.3869C26.2541 25.984 27.5544 25.214 29.8813 25.2311V25.0943C29.8813 24.6152 29.7445 23.7426 28.5126 23.7426C27.948 23.7426 27.3662 23.9137 26.9385 24.1704L26.6819 23.4689C27.178 23.1609 27.9137 22.9556 28.6666 22.9556C30.5144 22.9556 30.9592 24.1704 30.9592 25.3338V27.5067C30.9592 28.02 30.9763 28.4991 31.0619 28.9097H30.0695V28.9268ZM29.9156 25.9497C28.7179 25.9326 27.3491 26.138 27.3491 27.2672C27.3491 27.9516 27.8282 28.2766 28.3928 28.2766C29.1798 28.2766 29.676 27.7976 29.8471 27.3014C29.8813 27.1987 29.9156 27.079 29.9156 26.9592V25.9497Z" fill="white"/>
</svg>
