<svg width="45" height="45" viewBox="0 0 45 45" fill="none" xmlns="http://www.w3.org/2000/svg">
<path d="M28.6349 4C29.1773 4 29.7197 4 30.2621 4C32.3048 4.49536 33.489 5.87198 34.1126 7.80732C34.5796 9.25595 35.2089 10.6057 36.2288 11.7606C36.4981 12.0658 36.6328 12.4892 36.8353 12.8559C37.6575 14.3439 38.3231 15.9557 39.3516 17.2824C40.3238 18.5371 40.8108 19.8139 40.7955 21.3499C40.7936 21.5717 40.8366 21.7944 40.8347 22.0161C40.8242 23.6894 40.743 25.3492 39.5111 26.6654C39.3535 26.8334 39.0756 26.8891 38.8541 26.9966C38.7509 26.7403 38.5437 26.4724 38.5695 26.2295C38.6048 25.9022 38.8063 25.5883 38.9582 25.2801C39.7785 23.6222 39.3421 21.9499 39.005 20.2834C38.9734 20.1259 38.7605 20.005 38.6316 19.8677C38.4979 19.9963 38.3002 20.101 38.2429 20.2574C38.0681 20.7432 37.8351 21.2453 37.8227 21.7454C37.7501 24.6792 37.731 27.6148 37.7052 30.5505C37.7033 30.7396 37.7826 30.9393 37.8599 31.1188C38.2343 31.9866 38.0786 32.8208 37.8838 33.7194C37.6155 34.9597 37.4378 36.2499 37.4589 37.5142C37.4741 38.4176 37.881 39.3152 38.1359 40.3049C38.9868 40.3049 39.8855 40.3049 40.7879 40.3049C40.7879 40.9136 40.7879 41.4377 40.7879 41.9744C40.5482 41.9849 40.3773 41.9993 40.2054 41.9993C29.0398 42.0003 17.8751 42.0012 6.70955 41.9945C6.47271 41.9945 6.23683 41.9139 6 41.8707C6 41.3753 6 40.8809 6 40.3856C6.2884 40.3481 6.57776 40.279 6.86616 40.2781C9.40449 40.2694 11.9428 40.2733 14.4812 40.2733C16.7721 40.2733 16.923 40.1197 17.5428 37.8445C17.9697 36.2787 17.8742 34.7063 17.7644 33.13C17.5867 30.5985 17.0252 28.0929 17.3604 25.5259C17.4588 24.7732 16.9421 24.4545 16.1189 24.682C15.2031 24.9345 14.3093 24.9374 13.445 24.5486C10.9516 23.4283 9.27271 21.3701 8.50681 18.9211C7.80968 16.6901 7.61582 14.2124 8.80286 11.8988C9.36438 10.8044 9.05115 10.3302 7.86125 10.0787C7.69222 10.0431 7.52605 9.98842 7.35607 9.97306C6.67326 9.90682 6.21009 9.56987 6.00286 8.90075C6.00286 8.85083 6.00286 8.80187 6.00286 8.75196C6.47844 7.45117 7.41432 6.92029 8.78185 6.92221C9.81036 6.92317 10.7596 6.57854 11.5131 5.80094C11.9438 5.35551 12.5263 5.18271 13.0745 5.43231C13.7496 5.7395 14.5241 6.0611 14.9653 6.61118C16.2708 8.24124 16.7502 10.1823 16.4026 12.2492C16.2068 13.4118 15.778 14.5321 15.5039 15.6831C15.3989 16.1228 15.439 16.6536 15.991 16.7698C16.5363 16.885 16.563 16.3599 16.6766 15.9932C16.7062 15.8991 16.7397 15.805 16.7597 15.709C17.221 13.5001 18.4844 11.8642 20.3533 10.6748C21.5929 9.8857 22.5498 8.84795 23.1648 7.51357C23.7024 6.34718 24.602 5.58015 25.747 5.09631C26.6944 4.69407 27.6713 4.36288 28.6349 4ZM29.8143 40.0832C29.9403 40.1197 30.031 40.1657 30.1218 40.1677C31.8694 40.2051 33.617 40.2531 35.3636 40.2435C35.5394 40.2425 35.8001 39.9123 35.8707 39.6867C36.077 39.0291 36.1333 38.3178 36.3836 37.6822C36.8658 36.4573 36.8028 35.2141 36.6901 33.9546C36.6156 33.1194 36.5803 32.2794 36.4609 31.4509C36.3463 30.6532 36.2155 29.8458 35.9681 29.0836C35.6492 28.1006 35.1755 27.1694 34.826 26.195C34.5443 25.4078 34.3705 24.5812 34.0983 23.7902C34.0219 23.5665 33.7937 23.3429 33.5778 23.2449C33.4795 23.1998 33.151 23.4235 33.0841 23.5886C32.6095 24.7704 32.0384 25.9377 31.7691 27.1703C31.5199 28.3127 31.5686 29.53 31.5609 30.7146C31.5571 31.3261 31.348 31.7773 30.9965 32.2593C30.2727 33.2528 29.6099 34.2954 28.9662 35.3447C28.6778 35.8151 28.6196 36.3911 29.0942 36.7722C30.2354 37.6832 30.3958 38.7805 29.8143 40.0832ZM18.4099 39.8077C20.2272 39.8077 21.9663 39.8096 23.7043 39.8019C23.8084 39.8009 23.9278 39.7366 24.0137 39.6685C24.3881 39.3747 24.7252 39.0243 25.1263 38.7747C26.2837 38.0538 26.5788 36.8634 25.7155 35.8563C25.0155 35.0394 24.2382 34.2752 23.4197 33.5764C22.3101 32.6288 21.9309 30.9489 22.4581 29.577C22.8496 28.5566 23.0607 27.4622 23.3013 26.3889C23.4111 25.9003 23.1409 25.6017 22.6271 25.5288C21.5986 25.3819 21.1211 25.7265 20.9196 26.7691C20.7802 27.49 20.7401 28.258 20.4536 28.9166C19.9264 30.1262 19.7249 31.3617 19.7268 32.6624C19.7278 33.1732 19.7498 33.7492 19.5358 34.1831C18.6468 35.9936 18.7805 37.9827 18.4099 39.8077ZM29.4113 30.6954C29.2737 29.3246 29.14 27.9537 28.9949 26.5838C28.951 26.1681 28.8984 25.7505 28.7991 25.3464C28.7676 25.2196 28.5804 25.0785 28.4429 25.0497C28.3474 25.0296 28.1822 25.1688 28.1068 25.2782C28.0113 25.4155 27.9731 25.594 27.9148 25.7563C27.444 27.0667 26.9799 28.3799 26.4986 29.6874C26.4327 29.865 26.2971 30.0263 26.1663 30.1694C25.8005 30.5687 25.4166 30.9517 25.0451 31.3453C24.6545 31.7601 24.5332 32.2343 24.7672 32.7728C25.1778 33.7184 25.7442 34.5383 26.6266 35.1075C27.296 35.5395 27.6016 35.4771 27.9979 34.7955C28.7323 33.5293 29.4552 32.2593 29.4113 30.6954ZM26.9407 39.9257C27.5853 39.9661 28.1029 39.9987 28.781 40.0419C28.378 39.5475 28.0858 39.1875 27.7267 38.7459C27.4268 39.1952 27.2167 39.511 26.9407 39.9257Z" fill="#004065"/>
</svg>
