<svg width="45" height="45" viewBox="0 0 45 45" fill="none" xmlns="http://www.w3.org/2000/svg">
<path d="M39.449 16.8603L39.4447 16.9027C39.3475 17.7742 39.0726 18.7118 38.6337 19.6848L38.633 19.6854L31.0425 38.9999L10.712 34.2317C10.4676 34.1841 10.2252 34.1272 9.98519 34.0612C9.51818 33.9346 9.08348 33.7798 8.68342 33.5978H8.68273C7.46085 31.8729 6.54042 29.9191 6 27.8135C6.09045 27.4384 6.18568 27.0644 6.28567 26.6916C6.77932 24.843 7.73853 21.6745 8.8914 20.0086L9.00366 23.8628L16.5999 24.3694L26.8968 19.4739L31.3418 12.9471L29.373 9.7959C32.6573 10.5925 34.7384 11.3121 36.0488 11.8799C36.2471 11.9651 36.4437 12.0546 36.6382 12.1483C37.9543 12.7837 38.207 13.1701 38.207 13.1701C38.6409 13.5357 38.9662 13.9646 39.164 14.4554C39.4519 15.1678 39.5419 15.9802 39.449 16.8603Z" fill="#9B0A0E"/>
<path d="M30.0098 11.5533C28.7331 9.03861 23.0992 9.33483 17.4261 12.2149C11.7531 15.095 8.18908 19.4684 9.46574 21.9831C10.7424 24.4978 16.3763 24.2016 22.0494 21.3215C27.7224 18.4414 31.2864 14.068 30.0098 11.5533Z" fill="#EF0E13"/>
<path d="M26.1886 31.2047L31.0423 39.0001L18.2566 33.9816C20.7808 33.4605 23.4912 32.5394 26.1886 31.2047ZM8.89138 20.0085L9.00391 23.8629L6.28564 26.6915C6.77964 24.843 7.73844 21.6746 8.89138 20.0085Z" fill="#F5655E"/>
<path d="M9.00366 23.8626L6.66996 29.88C6.40392 29.2057 6.18016 28.5154 6 27.8133V27.8126C6.09071 27.4378 6.18594 27.064 6.28567 26.6915L9.00366 23.8626ZM31.3423 12.9468L39.4448 16.9024C39.3474 17.774 39.0729 18.7115 38.6335 19.6849L38.6329 19.6854C38.3043 20.4147 37.8829 21.1642 37.3753 21.9204L31.3423 12.9468Z" fill="#950C10"/>
<path d="M38.633 19.6855L31.0425 38.9999L32.9865 26.7499C34.8062 25.1929 36.2889 23.5409 37.3754 21.9204C37.883 21.1642 38.3043 20.4147 38.633 19.6855Z" fill="#EF0E13"/>
<path d="M31.3422 12.9468L37.3752 21.9204L26.897 19.4739L31.3422 12.9468Z" fill="#EF0E13"/>
<path d="M36.049 11.8793L31.3422 12.9467L29.3728 9.79517C32.6572 10.5925 34.7385 11.3116 36.049 11.8793Z" fill="#F5655E"/>
<path d="M26.8969 19.4741L32.9861 26.7502C31.1546 28.3178 28.9822 29.7891 26.5272 31.0355C26.414 31.093 26.3016 31.1492 26.1885 31.205L26.8969 19.4741Z" fill="#950C10"/>
<path d="M26.8971 19.4741L26.1887 31.2048L16.6001 24.3693L26.8971 19.4741Z" fill="#EF0E13"/>
<path d="M16.6001 24.3691L26.1886 31.2045C23.4911 32.5392 20.7807 33.4603 18.2565 33.9814L16.6001 24.3691Z" fill="#950C10"/>
<path d="M16.5998 24.3692L9.98498 34.0614L9.00366 23.8628L16.5998 24.3692Z" fill="#F5655E"/>
</svg>
