<svg width="45" height="45" viewBox="0 0 45 45" fill="none" xmlns="http://www.w3.org/2000/svg">
<path d="M23.1815 40.9999C23.0615 40.9999 22.9415 40.9999 22.8215 40.9999C22.4986 40.5371 22.1639 40.0815 21.8545 39.6106C21.5081 39.082 21.3186 39.0541 20.901 39.506C20.6258 39.8028 20.3516 40.1014 20.071 40.3928C19.6525 40.8258 19.2745 40.7482 19.0508 40.1826C18.8965 39.7929 18.7576 39.3978 18.6087 39.0062C18.4175 38.5011 18.1838 38.4352 17.7382 38.7609C17.399 39.008 17.0661 39.2633 16.7224 39.5042C16.2849 39.8118 15.8979 39.6639 15.7951 39.1461C15.7076 38.7058 15.6462 38.2602 15.5641 37.8182C15.4694 37.3139 15.2538 37.2075 14.7775 37.424C14.4095 37.5918 14.0459 37.7686 13.677 37.9327C13.0816 38.198 12.7532 37.9706 12.7749 37.3112C12.7884 36.8917 12.8164 36.4722 12.8263 36.0528C12.8362 35.5981 12.6305 35.4357 12.1786 35.5377C11.7555 35.6333 11.3351 35.7433 10.912 35.8399C10.332 35.9734 10.0415 35.6856 10.1687 35.1029C10.2517 34.7222 10.3446 34.3442 10.4339 33.9653C10.5918 33.3032 10.4745 33.1597 9.78169 33.1841C9.42175 33.1967 9.06272 33.2256 8.70368 33.2364C8.05147 33.2563 7.81602 32.9171 8.07312 32.3289C8.23549 31.959 8.4096 31.5937 8.57649 31.2256C8.7948 30.743 8.69376 30.5391 8.18317 30.4435C7.74205 30.3605 7.29641 30.2983 6.85619 30.2072C6.3483 30.1016 6.20126 29.739 6.49084 29.3123C6.74342 28.9406 7.01856 28.5843 7.27747 28.2171C7.55351 27.8247 7.47412 27.5821 7.01676 27.4043C6.62615 27.2528 6.23283 27.1085 5.84132 26.9569C5.24684 26.7269 5.17648 26.3669 5.64196 25.9159C5.95409 25.6137 6.27974 25.3241 6.59367 25.0237C6.90309 24.7287 6.88054 24.4608 6.5206 24.2326C6.14082 23.9917 5.75021 23.7689 5.37223 23.5262C4.87427 23.206 4.87608 22.7955 5.37674 22.4762C5.75562 22.2344 6.14623 22.0116 6.52511 21.7698C6.88144 21.5434 6.90039 21.2701 6.59007 20.976C6.2626 20.6675 5.92793 20.3671 5.60497 20.054C5.19723 19.6589 5.27571 19.2746 5.80975 19.059C6.22562 18.8912 6.65141 18.746 7.06908 18.5818C7.45879 18.4285 7.53637 18.1632 7.2937 17.815C7.03661 17.4461 6.76507 17.0879 6.50978 16.7172C6.19675 16.2634 6.33387 15.9044 6.86701 15.7952C7.3361 15.6996 7.81151 15.6329 8.2824 15.5426C8.64956 15.4723 8.76954 15.2413 8.62069 14.8949C8.43756 14.4682 8.23369 14.0506 8.05237 13.6239C7.83135 13.1034 8.05507 12.7606 8.61889 12.7669C9.06813 12.7714 9.51738 12.8138 9.96662 12.8246C10.4068 12.8354 10.5701 12.6388 10.4781 12.2112C10.387 11.7872 10.2751 11.3668 10.1786 10.9437C10.0325 10.3024 10.3094 10.0308 10.9598 10.1797C11.3829 10.2762 11.8033 10.389 12.2273 10.4783C12.6251 10.5622 12.8326 10.3926 12.8245 9.99113C12.8155 9.52655 12.7767 9.06197 12.7712 8.59739C12.7649 8.04981 13.0897 7.83421 13.6003 8.04711C14.0279 8.22572 14.4446 8.4332 14.8695 8.61904C15.2322 8.7769 15.4712 8.65241 15.5443 8.26271C15.6336 7.79181 15.6977 7.31641 15.7924 6.84641C15.8916 6.35387 16.2831 6.1969 16.6936 6.48196C17.0752 6.74628 17.4396 7.03495 17.8185 7.30378C18.1667 7.55095 18.4274 7.47066 18.5817 7.07284C18.744 6.65426 18.8893 6.22938 19.0517 5.8108C19.2664 5.25782 19.6579 5.18384 20.0755 5.61956C20.3877 5.94341 20.6872 6.27989 20.9966 6.60555C21.2717 6.89513 21.5351 6.87257 21.7562 6.53338C21.9853 6.18247 22.2018 5.82253 22.4237 5.4671C22.817 4.83834 23.1851 4.84465 23.5838 5.48424C23.7976 5.82794 24.006 6.17435 24.2261 6.51354C24.4643 6.88069 24.7177 6.90324 25.0145 6.58931C25.3131 6.27268 25.6018 5.94792 25.904 5.63579C26.3478 5.17663 26.7267 5.2506 26.9522 5.83606C27.1083 6.2411 27.2526 6.65066 27.4087 7.0557C27.5639 7.45894 27.811 7.53922 28.162 7.29656C28.5318 7.04036 28.8918 6.77064 29.2607 6.51444C29.7271 6.19149 30.1006 6.33582 30.2079 6.8852C30.2909 7.31099 30.3505 7.7422 30.4298 8.16889C30.5246 8.68218 30.7429 8.79855 31.2038 8.59017C31.5584 8.4296 31.9093 8.2609 32.2638 8.10033C32.9386 7.79452 33.2552 8.01734 33.2218 8.76969C33.2047 9.15939 33.1821 9.5482 33.1731 9.9379C33.1623 10.407 33.3553 10.5712 33.8064 10.471C34.2448 10.3736 34.6778 10.2509 35.1171 10.1589C35.6764 10.0416 35.9561 10.3303 35.8325 10.8923C35.736 11.3307 35.6151 11.7638 35.5195 12.2031C35.4248 12.6334 35.588 12.8354 36.021 12.8246C36.4559 12.8147 36.8898 12.7777 37.3246 12.7669C37.9533 12.7506 38.1816 13.0826 37.9353 13.6527C37.7513 14.0785 37.5465 14.4962 37.3661 14.9229C37.2253 15.2558 37.3417 15.4741 37.7008 15.5408C38.1716 15.6283 38.6471 15.6978 39.1161 15.7925C39.6556 15.9008 39.8036 16.2589 39.4968 16.7055C39.2343 17.0888 38.9502 17.4569 38.6867 17.8394C38.4648 18.1623 38.5496 18.4321 38.9141 18.5764C39.3453 18.7469 39.7864 18.8948 40.2149 19.0708C40.7318 19.2827 40.804 19.6499 40.4098 20.0387C40.1103 20.3328 39.7999 20.6161 39.4914 20.9011C39.0566 21.3025 39.0801 21.5145 39.5654 21.8339C40.0498 22.1514 40.5189 22.4924 40.9943 22.8226C40.9943 22.9426 40.9943 23.0625 40.9943 23.1825C40.5189 23.5127 40.0489 23.8528 39.5654 24.1712C39.0927 24.4815 39.0584 24.7008 39.4562 25.0742C39.7846 25.3818 40.1211 25.6804 40.4395 25.9971C40.7904 26.3462 40.7156 26.726 40.2618 26.9127C39.8748 27.0724 39.4788 27.2104 39.0873 27.3592C38.4793 27.5911 38.4161 27.7895 38.7851 28.3055C39.0377 28.6592 39.3056 29.0029 39.541 29.3673C39.7891 29.7507 39.624 30.1179 39.1784 30.2036C38.6931 30.2965 38.2041 30.3677 37.7188 30.4607C37.3589 30.5292 37.2326 30.771 37.3769 31.1084C37.56 31.5351 37.7639 31.9518 37.9443 32.3794C38.168 32.9062 37.9515 33.2418 37.3841 33.2373C36.98 33.2346 36.5758 33.1958 36.1708 33.1823C35.5456 33.1615 35.4103 33.3266 35.552 33.9229C35.6485 34.3307 35.7549 34.7366 35.8406 35.1462C35.9498 35.6721 35.6539 35.9644 35.1289 35.8489C34.6905 35.7533 34.2565 35.6342 33.819 35.535C33.3653 35.4321 33.1632 35.5936 33.1731 36.051C33.183 36.4704 33.2119 36.8899 33.2245 37.3094C33.2453 37.9688 32.9169 38.1953 32.3215 37.93C31.939 37.7595 31.562 37.5764 31.1795 37.4041C30.7582 37.2156 30.5291 37.3283 30.4443 37.7713C30.3577 38.2268 30.2927 38.6878 30.2016 39.1425C30.0979 39.6621 29.7136 39.8082 29.2752 39.4997C28.9197 39.2498 28.576 38.9846 28.2233 38.7293C27.8291 38.4442 27.5738 38.5155 27.4033 38.9602C27.2472 39.3653 27.1047 39.7757 26.9459 40.179C26.7222 40.7455 26.3442 40.8231 25.9257 40.3901C25.655 40.1104 25.3627 39.8434 25.1336 39.5313C24.7656 39.0297 24.3786 39.1479 24.1097 39.6431C23.8553 40.1239 23.4972 40.5506 23.1815 40.9999ZM36.1293 23.8573C36.1293 23.1618 36.1221 22.5492 36.1329 21.9367C36.1374 21.6706 36.021 21.5398 35.7802 21.4397C35.1577 21.1826 34.547 20.8993 33.9327 20.6224C33.0847 20.2399 32.9187 19.7978 33.2985 18.9363C33.6305 18.1831 33.9534 17.4253 34.3035 16.6811C34.4144 16.4456 34.3828 16.2806 34.2511 16.0695C32.2566 12.8652 29.4159 10.858 25.7344 10.0444C25.5702 10.0083 25.3249 10.0759 25.1968 10.1869C24.6997 10.619 24.2387 11.0935 23.757 11.5436C23.1093 12.1499 22.6258 12.1327 22.025 11.4958C21.6136 11.0601 21.2122 10.6127 20.7765 10.2022C20.6547 10.0877 20.412 10.0101 20.2497 10.0416C17.8654 10.5062 15.8032 11.605 14.0342 13.2612C13.7726 13.5057 13.5398 13.7808 13.2313 14.1083C13.5272 14.1083 13.7058 14.1083 13.8853 14.1083C18.1577 14.1083 22.4309 14.1137 26.7033 14.1047C27.8589 14.102 28.9351 14.3762 29.9012 14.9978C31.3355 15.9206 32.2178 17.1791 31.9977 18.967C31.857 20.1109 31.1028 20.8993 30.2476 21.5921C29.9734 21.8149 29.6811 22.0152 29.3383 22.2687C30.6905 23.0689 31.2264 24.3192 31.4799 25.7436C31.5087 25.9069 31.6134 26.0972 31.7433 26.1955C32.2837 26.6042 32.8926 26.6664 33.5313 26.4589C34.1194 26.2677 34.4433 25.8482 34.5272 25.2492C34.5723 24.9245 34.5966 24.5925 34.5867 24.265C34.5768 23.9448 34.704 23.8402 35.0089 23.8537C35.3652 23.8699 35.7225 23.8573 36.1293 23.8573ZM33.5267 30.8125C33.5078 30.7737 33.4889 30.7358 33.4708 30.697C33.3075 30.697 33.1443 30.697 32.981 30.697C31.4068 30.697 29.8335 30.6862 28.2594 30.7033C27.7389 30.7087 27.3293 30.5256 26.9802 30.1639C26.4561 29.6208 26.1331 28.9749 25.9762 28.2397C25.8066 27.4504 25.6722 26.6493 25.4475 25.8753C25.112 24.7206 24.3876 24.2208 23.1905 24.2181C22.4706 24.2163 21.7516 24.2181 21.0318 24.2181C20.7088 24.2181 20.385 24.2181 20.0611 24.2181C20.0611 25.0553 20.0611 25.8248 20.0611 26.6168C21.0236 26.6168 21.9519 26.6376 22.8793 26.6078C23.2888 26.5943 23.3844 26.7359 23.3745 27.1211C23.3493 28.1251 23.3655 29.1292 23.3655 30.1341C23.3655 30.3064 23.3655 30.4778 23.3655 30.7232C19.7021 30.7232 16.109 30.7232 12.4167 30.7232C12.7758 31.1454 13.0365 31.4954 13.3459 31.7949C13.4686 31.9139 13.7103 31.9942 13.8781 31.969C14.4546 31.8815 15.0211 31.7371 15.593 31.6162C16.3661 31.453 16.7991 31.7326 16.9651 32.5039C17.1067 33.1624 17.2574 33.8192 17.3783 34.4813C17.427 34.7501 17.5533 34.8809 17.8032 34.9847C21.2564 36.4199 24.706 36.4046 28.1529 34.9766C28.2982 34.9161 28.447 34.7294 28.4867 34.5742C28.659 33.9085 28.7907 33.2319 28.9369 32.5589C29.1092 31.7705 29.5395 31.4918 30.3414 31.6614C30.9269 31.7849 31.5087 31.9284 32.096 32.0429C32.2232 32.0682 32.419 32.0556 32.4956 31.9762C32.8547 31.6054 33.1848 31.2031 33.5267 30.8125ZM14.064 26.4743C14.064 23.676 14.064 20.902 14.064 18.0992C13.7428 18.0992 13.4586 18.0992 13.1745 18.0992C12.8867 18.0992 12.5998 18.0992 12.2525 18.0992C12.3951 18.4285 12.4934 18.6603 12.5944 18.8912C12.9598 19.7239 12.7731 20.2119 11.9413 20.5809C11.3667 20.8362 10.7857 21.077 10.221 21.3513C10.0857 21.4171 9.92242 21.584 9.91069 21.7166C9.76816 23.3242 9.88814 24.91 10.3608 26.4725C11.6021 26.4743 12.8254 26.4743 14.064 26.4743ZM20.0485 20.6377C21.592 20.6377 23.1138 20.653 24.6348 20.6242C24.9333 20.6188 25.2491 20.4834 25.5206 20.34C26.1936 19.9837 26.3063 19.1646 25.692 18.7153C25.3167 18.4411 24.8071 18.2354 24.3461 18.2129C23.0326 18.147 21.7138 18.1885 20.3967 18.1912C20.283 18.1912 20.1703 18.2138 20.0476 18.2273C20.0485 19.0455 20.0485 19.8321 20.0485 20.6377ZM35.671 20.0432C36.28 20.0531 36.7671 19.584 36.7662 18.9887C36.7644 18.414 36.2908 17.9377 35.7143 17.9305C35.1271 17.9242 34.6408 18.3761 34.6219 18.9454C34.602 19.5543 35.0603 20.0333 35.671 20.0432ZM24.0024 9.25231C24.0015 8.66685 23.5369 8.18332 22.965 8.1752C22.3777 8.16708 21.8797 8.66775 21.8861 9.26133C21.8924 9.85762 22.3461 10.3213 22.928 10.3267C23.5486 10.3312 24.0033 9.87566 24.0024 9.25231ZM9.13399 18.9282C9.13489 19.5182 9.64367 20.0252 10.221 20.0116C10.7839 19.9981 11.2801 19.483 11.2665 18.9273C11.2521 18.35 10.774 17.88 10.1958 17.8764C9.62112 17.8728 9.13308 18.3563 9.13399 18.9282ZM16.0838 33.9843C16.0747 33.4069 15.5966 32.9288 15.022 32.9225C14.4717 32.9171 13.9819 33.4331 13.9945 34.005C14.008 34.6103 14.5024 35.0812 15.1023 35.0587C15.6553 35.0388 16.0928 34.5589 16.0838 33.9843ZM29.8281 34.033C29.8155 34.5878 30.2837 35.1155 30.8033 35.1326C31.3843 35.1516 31.8957 34.6554 31.9093 34.0582C31.9219 33.4953 31.4654 33.01 30.9098 32.9956C30.3369 32.9793 29.8408 33.4556 29.8281 34.033Z" fill="black"/>
</svg>
