<svg width="50" height="50" viewBox="0 0 50 50" fill="none" xmlns="http://www.w3.org/2000/svg">
<path d="M12.2515 40.9088C8.13165 40.9088 5.16474 39.6478 3.79415 37.2735C2.20297 34.5184 2.98091 30.6537 5.98312 26.3927C8.90518 22.2456 13.6118 18.1735 19.2339 14.9272C31.1493 8.04853 43.0383 7.08456 46.3 12.7331C49.5044 18.2846 42.5794 28.3037 30.8625 35.0691C25.2412 38.3147 19.3625 40.3544 14.3089 40.8118C13.5956 40.8772 12.9089 40.9088 12.2515 40.9088ZM19.7478 15.8191C14.253 18.9919 9.66326 22.9574 6.82429 26.9853C4.06694 30.8993 3.30665 34.3699 4.68606 36.7574C6.06253 39.1434 9.44929 40.2177 14.2155 39.7868C19.1243 39.3412 24.853 37.3493 30.3478 34.1765C41.5736 27.6956 48.3287 18.3066 45.4081 13.2471C42.4846 8.18456 30.9758 9.3375 19.7478 15.8191Z" fill="#4F5D99"/>
<path d="M37.8338 40.9081C37.1779 40.9081 36.4941 40.8765 35.7816 40.8118C30.7286 40.3544 24.8492 38.3147 19.2272 35.0691C13.608 31.8243 8.90436 27.7537 5.98304 23.6066C2.98083 19.3456 2.20362 15.4816 3.79406 12.7265C6.99995 7.175 19.1397 8.1625 30.8558 14.9272C42.7749 21.8096 49.5588 31.6221 46.2999 37.2669C44.9272 39.6449 41.9573 40.9081 37.8338 40.9081ZM19.7419 34.1765C25.2374 37.35 30.9669 39.3419 35.8749 39.786C40.6397 40.2154 44.0294 39.139 45.408 36.7515C48.3286 31.6926 41.5698 22.3015 30.3419 15.8176C19.1139 9.33676 7.60656 8.18088 4.68598 13.2412C3.3073 15.6287 4.06612 19.0993 6.82421 23.0132C9.66171 27.0419 14.2499 31.0074 19.7426 34.1772L19.7419 34.1765Z" fill="#4F5D99"/>
<path d="M25.0418 49.5405C18.6315 49.5405 13.416 38.5331 13.416 25.0037C13.416 11.2405 18.5226 0.459595 25.041 0.459595C31.5631 0.459595 36.6734 11.2405 36.6734 25.0037C36.6734 38.7625 31.5638 49.5405 25.0418 49.5405ZM25.0418 1.48901C19.1984 1.48901 14.4462 12.0375 14.4462 25.0037C14.4462 37.9662 19.1984 48.5111 25.0418 48.5111C30.8873 48.5111 35.644 37.9662 35.644 25.0037C35.644 12.0375 30.8888 1.48901 25.0418 1.48901Z" fill="#4F5D99"/>
<path d="M19.7837 6.77579C21.4081 6.77579 22.7249 5.45898 22.7249 3.83461C22.7249 2.21024 21.4081 0.893433 19.7837 0.893433C18.1593 0.893433 16.8425 2.21024 16.8425 3.83461C16.8425 5.45898 18.1593 6.77579 19.7837 6.77579Z" fill="#70C1F9"/>
<path d="M45.5425 40.2243C47.1669 40.2243 48.4837 38.9075 48.4837 37.2831C48.4837 35.6587 47.1669 34.3419 45.5425 34.3419C43.9181 34.3419 42.6013 35.6587 42.6013 37.2831C42.6013 38.9075 43.9181 40.2243 45.5425 40.2243Z" fill="#ED524E"/>
<path d="M33.8985 23.5493L31.586 22.9405C31.4666 22.5506 31.31 22.1732 31.1184 21.8133L32.3287 19.7567C32.3655 19.6915 32.3798 19.616 32.3694 19.5418C32.359 19.4677 32.3246 19.399 32.2713 19.3464L30.6949 17.7706C30.642 17.7158 30.5722 17.6803 30.4967 17.6699C30.4212 17.6595 30.3444 17.6748 30.2787 17.7133L29.2088 18.3346L28.2162 18.9177L28.0235 18.8214C27.8403 18.7301 27.6523 18.6489 27.4603 18.578C27.3382 18.5331 27.2228 18.4949 27.0949 18.45L26.4927 16.1434C26.4712 16.0716 26.4273 16.0085 26.3673 15.9635C26.3074 15.9185 26.2345 15.8939 26.1596 15.8934H23.9243C23.911 15.8934 23.8985 15.8934 23.8919 15.9008C23.8234 15.9045 23.7579 15.9301 23.705 15.9738C23.6521 16.0174 23.6145 16.0769 23.5978 16.1434L23.5846 16.1758L23.5206 16.4258L23.4243 16.8096L22.9882 18.4493C22.6005 18.5749 22.2236 18.7315 21.861 18.9177L19.8044 17.7133C19.6699 17.6295 19.5029 17.6618 19.3882 17.7706L17.8125 19.3464C17.76 19.3996 17.7265 19.4686 17.7172 19.5428C17.7078 19.617 17.7233 19.6921 17.761 19.7567L18.85 21.6273V21.6405L18.9596 21.8133C18.9522 21.839 18.9397 21.8515 18.9338 21.8773C18.7557 22.2196 18.6098 22.5778 18.4978 22.9471L17.9853 23.0817L16.1912 23.5493C16.1181 23.5671 16.0531 23.609 16.0067 23.6682C15.9603 23.7274 15.9351 23.8006 15.9353 23.8758V26.1052C15.9353 26.2721 16.0382 26.3993 16.1919 26.4383L18.4978 27.0471C18.6199 27.4376 18.7735 27.8155 18.9654 28.1677L17.761 30.2309C17.7232 30.2965 17.7077 30.3725 17.717 30.4477C17.7263 30.5228 17.7598 30.5928 17.8125 30.6471L19.3882 32.2228C19.442 32.2762 19.5117 32.3106 19.5867 32.3211C19.6617 32.3316 19.7381 32.3175 19.8044 32.2809L20.8684 31.653L21.861 31.0699C21.925 31.1081 21.9956 31.1405 22.0596 31.1728C22.2456 31.2626 22.4316 31.339 22.6235 31.4155C22.7449 31.4611 22.8662 31.4993 22.9882 31.5375L23.5971 33.85C23.6139 33.9239 23.6556 33.9896 23.7152 34.0363C23.7748 34.0831 23.8486 34.1079 23.9243 34.1067H26.1596C26.314 34.1067 26.4478 34.0037 26.4927 33.85L27.0956 31.5375C27.4836 31.4189 27.859 31.2623 28.2162 31.0699L28.2228 31.0765L28.511 31.2493L28.6905 31.3523L29.1831 31.6398L29.7985 31.9927L30.2787 32.2809C30.3171 32.3012 30.3582 32.3161 30.4007 32.3251C30.4963 32.3383 30.5993 32.3067 30.6757 32.242C30.689 32.2361 30.6949 32.2295 30.6949 32.2228L31.3103 31.6015L32.0662 30.8456L32.2713 30.6471C32.3247 30.5934 32.3592 30.5237 32.3696 30.4486C32.3799 30.3735 32.3656 30.2971 32.3287 30.2309L31.2331 28.367L31.1184 28.1684C31.3095 27.8103 31.4661 27.4349 31.586 27.0471L32.0978 26.9126L33.8985 26.4383C33.9725 26.4197 34.038 26.3767 34.0844 26.3163C34.1309 26.2558 34.1556 26.1814 34.1544 26.1052V23.8751C34.1534 23.8001 34.1279 23.7276 34.0816 23.6686C34.0354 23.6096 33.9711 23.5682 33.8985 23.5493Z" fill="#ED524E"/>
<path d="M25.0403 29.5662C27.565 29.5662 29.6116 27.5196 29.6116 24.9949C29.6116 22.4702 27.565 20.4236 25.0403 20.4236C22.5156 20.4236 20.469 22.4702 20.469 24.9949C20.469 27.5196 22.5156 29.5662 25.0403 29.5662Z" fill="#4F5D99"/>
<path d="M25.0403 28.7552C27.1171 28.7552 28.8006 27.0717 28.8006 24.9949C28.8006 22.9182 27.1171 21.2346 25.0403 21.2346C22.9636 21.2346 21.28 22.9182 21.28 24.9949C21.28 27.0717 22.9636 28.7552 25.0403 28.7552Z" fill="#E9E9FF"/>
<path d="M24.3572 26.8045C24.3069 26.8046 24.2571 26.7947 24.2107 26.7754C24.1642 26.7561 24.1221 26.7277 24.0867 26.692L22.6117 25.217C22.5732 25.1823 22.5423 25.1401 22.5207 25.093C22.4991 25.0459 22.4873 24.9949 22.486 24.9432C22.4847 24.8914 22.4939 24.8399 22.5131 24.7918C22.5323 24.7437 22.561 24.7 22.5976 24.6633C22.6342 24.6267 22.6779 24.5978 22.726 24.5786C22.7741 24.5593 22.8256 24.55 22.8773 24.5513C22.9291 24.5525 22.9801 24.5642 23.0272 24.5858C23.0743 24.6073 23.1166 24.6382 23.1514 24.6766L24.3572 25.8825L26.9344 23.3045C27.0071 23.2386 27.1024 23.2031 27.2005 23.2054C27.2986 23.2078 27.3921 23.2478 27.4616 23.3171C27.531 23.3865 27.5711 23.4799 27.5736 23.578C27.5761 23.6761 27.5407 23.7714 27.4749 23.8442L24.6271 26.692C24.5917 26.7276 24.5497 26.7559 24.5034 26.7752C24.4571 26.7945 24.4074 26.8045 24.3572 26.8045Z" fill="#ED524E"/>
<path d="M4.45802 40.1015C6.08239 40.1015 7.3992 38.7847 7.3992 37.1603C7.3992 35.5359 6.08239 34.2191 4.45802 34.2191C2.83366 34.2191 1.51685 35.5359 1.51685 37.1603C1.51685 38.7847 2.83366 40.1015 4.45802 40.1015Z" fill="#FDC72E"/>
<g opacity="0.2">
<path d="M29.1367 31.614L28.6882 31.3493L28.5117 31.2464L28.2249 31.0773L28.2176 31.0699C27.8646 31.2611 27.4823 31.4155 27.0926 31.5405L26.4896 33.8493C26.4455 34.0037 26.3132 34.1067 26.1588 34.1067H23.9235C23.848 34.1083 23.7743 34.0834 23.7152 34.0364C23.6561 33.9894 23.6154 33.9232 23.5999 33.8493L22.9896 31.5405C22.8646 31.4964 22.747 31.4596 22.622 31.4155C22.4308 31.342 22.247 31.2611 22.0558 31.1728C21.997 31.1434 21.9235 31.1067 21.8573 31.0699L20.997 31.5699L18.1367 23.0405L18.497 22.9449C18.6146 22.5773 18.7543 22.217 18.9308 21.8787C18.9382 21.8493 18.9529 21.842 18.9602 21.8126L18.8499 21.6434V21.6287L17.7617 19.7537C17.7226 19.6906 17.7064 19.616 17.7157 19.5424C17.7251 19.4688 17.7595 19.4006 17.8132 19.3493L19.3867 17.7684C19.5043 17.6655 19.6661 17.6287 19.8058 17.7096L21.8573 18.9155C22.2176 18.7317 22.5999 18.5773 22.9896 18.4523L23.4235 16.8126L23.5191 16.4228L23.5852 16.1728L23.5999 16.1434C23.6145 16.0843 23.6459 16.0306 23.6902 15.9889C23.7346 15.9472 23.79 15.9191 23.8499 15.9081L29.1367 31.614ZM32.2691 30.6508L32.0632 30.8493L31.3132 31.5993L31.2396 31.6728L25.9308 15.8934H26.1588C26.3132 15.8934 26.4455 15.9964 26.4896 16.1434L27.0926 18.4523C27.2249 18.4964 27.3352 18.5331 27.4602 18.5773C27.6514 18.6508 27.8426 18.7317 28.0264 18.8199L28.2176 18.9155L29.0852 18.4081L31.9529 26.9523L31.5852 27.0478C31.4749 27.4155 31.3205 27.7684 31.1514 28.1067C31.1441 28.1287 31.1293 28.1508 31.1146 28.1655L31.2323 28.364L32.3279 30.2317C32.4014 30.364 32.3867 30.5405 32.2691 30.6508Z" fill="white"/>
</g>
</svg>
