<svg width="45" height="45" viewBox="0 0 45 45" fill="none" xmlns="http://www.w3.org/2000/svg">
<path d="M41 22.5L38.528 24.7881C37.9404 25.3321 37.4709 25.9964 37.1498 26.738C36.8287 27.4797 36.6633 28.2821 36.6642 29.0934V34.1027C36.6642 35.7003 35.3951 37 33.8353 37H11.1647C9.60486 37 8.33584 35.7003 8.33584 34.1027V29.0934C8.33584 27.4552 7.66166 25.8847 6.47195 24.7881L4 22.5L6.47195 20.212C7.05959 19.6679 7.52914 19.0036 7.85022 18.262C8.17129 17.5203 8.33673 16.7179 8.33584 15.9066V10.8973C8.33584 9.29972 9.60486 8 11.1647 8H33.8353C35.3951 8 36.6642 9.29972 36.6642 10.8973V15.9066C36.6642 17.5448 37.3383 19.1153 38.528 20.212L41 22.5Z" fill="url(#paint0_linear_8_815)"/>
<path d="M17.1796 32.5593H23.8419C26.7633 32.5593 29.1296 30.1358 29.1296 27.1438V26.5616C29.1296 24.9369 28.4157 23.4883 27.3053 22.5C28.4157 21.5116 29.1296 20.063 29.1296 18.4383V17.8562C29.1296 14.8641 26.7633 12.4407 23.8419 12.4407H17.1796C16.4525 12.4407 15.8577 13.0499 15.8577 13.7945V31.2054C15.8577 31.95 16.4525 32.5593 17.1796 32.5593ZM26.4857 26.5616V27.1438C26.4857 28.633 25.296 29.8515 23.8419 29.8515H18.5015V23.8538H23.8419C25.296 23.8538 26.4857 25.0723 26.4857 26.5616ZM18.5015 15.1484H23.8419C25.296 15.1484 26.4857 16.3669 26.4857 17.8562V18.4383C26.4857 19.9276 25.296 21.1461 23.8419 21.1461H18.5015V15.1484Z" fill="white"/>
<defs>
<linearGradient id="paint0_linear_8_815" x1="4" y1="22.5" x2="41" y2="22.5" gradientUnits="userSpaceOnUse">
<stop stop-color="#8812FC"/>
<stop offset="1" stop-color="#7211F6"/>
</linearGradient>
</defs>
</svg>
