<svg width="45" height="45" viewBox="0 0 45 45" fill="none" xmlns="http://www.w3.org/2000/svg">
<path fill-rule="evenodd" clip-rule="evenodd" d="M8.06909 10.2893L10.7747 39.6016L22.4999 42.7588L34.2247 39.6016L36.9308 10.2893H8.06909Z" fill="#1758A7"/>
<path fill-rule="evenodd" clip-rule="evenodd" d="M22.4998 12.6636V40.2408L22.5262 40.248L32.0148 37.693L34.2049 12.6636H22.4998Z" fill="#379AD6"/>
<path fill-rule="evenodd" clip-rule="evenodd" d="M22.4669 32.7425L22.4605 32.7444L18.5433 31.7458L18.3059 28.8702H14.6655L15.1403 34.4219L22.5001 36.6185V32.7331L22.4669 32.7425Z" fill="#E8E8E7"/>
<path fill-rule="evenodd" clip-rule="evenodd" d="M22.5 23.4476V26.9746H22.5105L26.8612 26.9793L26.582 31.5896L22.5105 32.7366L22.5 32.7396V36.6144L22.5105 36.6176L22.5134 36.6185L29.8927 34.4631L30.8501 23.4476H22.5Z" fill="#FBFBFA"/>
<path fill-rule="evenodd" clip-rule="evenodd" d="M14.1504 23.4476L14.4274 26.9709L14.4279 26.9764L22.4999 26.9769V23.4476H14.1504Z" fill="#E5E4E2"/>
<path fill-rule="evenodd" clip-rule="evenodd" d="M14.1511 23.4476H22.4796L22.5001 23.4387V19.9175L14.1511 23.4476Z" fill="#EEEEEE"/>
<path fill-rule="evenodd" clip-rule="evenodd" d="M22.988 19.7461L22.5 19.9504V23.4468L31.1092 19.7461H22.988Z" fill="white"/>
<path fill-rule="evenodd" clip-rule="evenodd" d="M13.3765 16.2172L13.8128 19.7461H22.5V16.2172H13.3765Z" fill="#E7E7E6"/>
<path fill-rule="evenodd" clip-rule="evenodd" d="M22.5 19.7461L31.451 16.2172H22.5V19.7461ZM22.5024 19.7461H31.0946L31.451 16.2172L22.5024 19.7461Z" fill="#F8F8F7"/>
<path fill-rule="evenodd" clip-rule="evenodd" d="M13.9363 7.72485H18.3908V5.98268H15.8454V4.23805H18.3908V2.32898H13.9363V7.72485ZM20.2946 4.23814C20.8905 4.83413 21.2013 5.11933 22.0633 5.98145C21.5596 5.98145 20.2946 5.9833 20.2946 5.98312V7.72485H24.7495V5.98268L22.97 4.23805H24.7495V2.32898H20.2946V4.23814ZM31.0637 2.32898H26.6085V4.23814C27.2045 4.83413 27.5155 5.11933 28.3775 5.98145C27.8739 5.98145 26.6085 5.9833 26.6085 5.98312V7.72485H31.0637V5.98268L29.2842 4.23805H31.0637V2.32898Z" fill="#1B1B1B"/>
</svg>
