<svg width="45" height="45" viewBox="0 0 45 45" fill="none" xmlns="http://www.w3.org/2000/svg">
<path d="M25.6791 31.677H18.8396C15.0683 31.677 12 28.6089 12 24.8376V20.243C12 16.4717 15.0683 13.4034 18.8396 13.4034H21.0571V6H25.6791V31.677ZM18.8396 18.0256C17.6169 18.0256 16.622 19.0203 16.622 20.243V24.8375C16.622 26.0602 17.6169 27.055 18.8396 27.055H21.0571V18.0256H18.8396Z" fill="#2BA979"/>
<path d="M26.1604 38.4699H23.7551V33.8479H26.1603C27.3831 33.8479 28.3778 32.853 28.3778 31.6302V13.4597H32.9998V31.6303C33 35.4016 29.9317 38.4699 26.1604 38.4699ZM28.3779 6H33V10.6221H28.3779V6Z" fill="#2BA979"/>
</svg>
