<svg width="50" height="50" viewBox="0 0 50 50" fill="none" xmlns="http://www.w3.org/2000/svg">
<g clip-path="url(#clip0_18_2471)">
<path d="M6.05713 0H49.9741V37.4936H6.05713V0Z" fill="#F5F5F5"/>
<path d="M7.35243 25.4247V0H6.05713V37.4936H49.974V36.2005H18.1283C12.1769 36.2005 7.35243 31.376 7.35243 25.4247Z" fill="#E5E5E5"/>
<path d="M6.05713 0H49.9741V5.44177H6.05713V0Z" fill="#FF5A96"/>
<path d="M42.9692 2.93455H14.2623C14.2056 2.93455 14.1512 2.91204 14.1112 2.87197C14.0711 2.8319 14.0486 2.77755 14.0486 2.72088C14.0486 2.66421 14.0711 2.60986 14.1112 2.56979C14.1512 2.52971 14.2056 2.5072 14.2623 2.5072H42.9692C43.0259 2.5072 43.0802 2.52971 43.1203 2.56979C43.1604 2.60986 43.1829 2.66421 43.1829 2.72088C43.1829 2.77755 43.1604 2.8319 43.1203 2.87197C43.0802 2.91204 43.0259 2.93455 42.9692 2.93455Z" fill="white"/>
<path d="M6.05713 0H7.35243V5.44177H6.05713V0Z" fill="#FF2488"/>
<path d="M30.5954 22.2782C31.2921 21.5389 32.0199 20.8296 32.777 20.1522L33.9026 17.5134L31.0135 17.1918C29.9517 18.1015 28.9785 19.1113 29.2647 18.8516C28.835 19.2391 25.1574 23.158 24.7459 23.5949C24.7459 23.5949 22.402 25.8563 20.8066 26.9272L23.4169 27.398L22.5447 29.837C23.3169 29.3318 24.1217 28.7221 24.9629 28.0047C26.2128 26.9387 27.259 25.8771 27.8158 25.29L29.5791 23.3251C29.9111 22.9696 30.2499 22.6206 30.5954 22.2782Z" fill="#FF5A96"/>
<path d="M33.584 18.21L31.914 19.4891C31.2008 20.1358 30.513 20.81 29.8523 21.5103C29.5014 21.8582 29.1573 22.2128 28.8202 22.5741L27.054 24.542C26.6028 25.0174 25.7465 25.8907 24.7086 26.8078L23.1722 28.0323L22.5449 29.7865C23.3171 29.2813 24.122 28.6716 24.9632 27.9542C26.2131 26.8882 27.2592 25.8266 27.8161 25.2394L29.5793 23.2746C29.9113 22.9191 30.2501 22.57 30.5956 22.2276C31.022 21.775 31.4601 21.3336 31.9096 20.9039L32.9747 19.6385L33.584 18.21Z" fill="#FF2488"/>
<path d="M17.2156 16.8581C17.2817 16.8559 17.3476 16.8531 17.4143 16.8531C19.5968 16.8531 22.7001 19.5583 24.426 21.2485L23.611 18.5965L26.541 18.5773C26.0773 18.1316 25.5426 17.6389 24.963 17.1445C22.0638 14.672 19.5945 13.47 17.4143 13.47C17.0599 13.47 16.7104 13.4908 16.3663 13.5301L14.5393 15.7277L17.2156 16.8581Z" fill="#FFCE03"/>
<path d="M17.3598 14.4501C19.2826 14.4501 21.5317 15.5711 24.2354 17.8769C24.4887 18.0931 24.7386 18.3132 24.9852 18.5371L26.5412 18.5269C26.0775 18.0812 25.5428 17.5885 24.9632 17.0941C22.0639 14.6215 19.5947 13.4196 17.4145 13.4196C17.0601 13.4196 16.7106 13.4404 16.3666 13.4797L15.3513 14.701C16.0077 14.534 16.6824 14.4497 17.3598 14.4501Z" fill="#FEAC01"/>
<path d="M11.7175 23.3199C11.6846 23.0729 11.6679 22.8239 11.6674 22.5747C11.6674 19.4811 14.1338 16.9626 17.2155 16.8581L14.5394 15.7277L16.3664 13.5302C11.8155 14.0495 8.26929 17.9072 8.26929 22.5747C8.26929 23.2008 8.33318 23.8122 8.45454 24.4031L10.8905 26.0164L11.7175 23.3199Z" fill="#7676FF"/>
<path d="M9.24963 22.5242C9.24963 18.7621 11.8476 15.593 15.3511 14.7009L16.3664 13.4796C11.8155 13.999 8.26929 17.8566 8.26929 22.5242C8.26929 23.1502 8.33318 23.7618 8.45465 24.3526L9.69984 25.1773C9.40117 24.3246 9.24895 23.4276 9.24963 22.5242Z" fill="#5A5AFF"/>
<path d="M20.8067 26.9273C19.6304 27.7168 18.4238 28.2961 17.4142 28.2961C14.4942 28.2961 12.0845 26.1274 11.7174 23.3198L10.8903 26.0162L8.45435 24.4029C9.30691 28.5501 13.0003 31.6792 17.4141 31.6792C18.9617 31.6792 20.6552 31.0728 22.5445 29.8369L23.4167 27.3979L20.8067 26.9273Z" fill="#FFCE03"/>
<path d="M9.69978 25.1771L8.45459 24.3524C9.30715 28.4995 13.0005 31.6287 17.4143 31.6287C18.962 31.6287 20.6554 31.0223 22.5449 29.7864L23.171 28.0353C20.934 29.7572 19.0245 30.5981 17.3597 30.5981C13.8209 30.5981 10.8047 28.3298 9.69978 25.1771Z" fill="#FEAC01"/>
<path d="M32.777 20.1522C34.5261 18.5918 36.8674 16.8531 38.6171 16.8531C39.6172 16.8531 40.5572 17.1078 41.3762 17.5551L43.9405 17.4173L43.3597 14.7926C41.976 13.9536 40.3522 13.47 38.617 13.47C36.4366 13.47 33.9674 14.672 31.0682 17.1445L31.0134 17.1918L33.9025 17.5133L32.777 20.1522Z" fill="#FFCE03"/>
<path d="M38.6171 16.8025C39.6171 16.8025 40.5573 17.0573 41.3763 17.5046L42.8522 17.4253C42.199 16.8758 41.6018 16.4603 41.6018 16.4603C40.672 16.0076 39.6513 15.7722 38.6171 15.772C37.6586 15.772 36.5338 16.1602 35.254 16.9307L33.5764 18.2275L33.0088 19.5584L33.4146 19.549C35.0668 18.1578 37.0724 16.8025 38.6171 16.8025Z" fill="#FEAC01"/>
<path d="M43.3599 14.7926L43.9407 17.4173L41.3765 17.5551C43.1568 18.5272 44.3641 20.4103 44.3641 22.5747C44.3641 23.2678 44.2401 23.9322 44.0133 24.5471L44.5448 26.9821L47.1004 25.9743C47.5386 24.8945 47.7634 23.7399 47.7624 22.5745C47.7623 19.2818 45.9973 16.3917 43.3599 14.7926Z" fill="#7676FF"/>
<path d="M45.3989 22.5242C45.3989 22.4608 45.398 22.3977 45.3962 22.3346C45.3437 20.4679 44.4179 18.7322 42.9367 17.587L42.7357 17.4316L41.7341 17.4855L41.8006 17.7616C43.3455 18.7871 44.3639 20.5369 44.3639 22.5242C44.3639 23.2173 44.24 23.8817 44.0131 24.4966L44.3291 25.9446L45.0856 24.5575C45.2939 23.8998 45.3996 23.214 45.3989 22.5242Z" fill="#5A5AFF"/>
<path d="M44.0132 24.5471L44.5447 26.9822L47.1003 25.9744C45.7445 29.3155 42.4532 31.6793 38.6172 31.6793C37.1251 31.6793 35.4977 31.116 33.6898 29.9683L33.0056 27.3529L35.5223 27.122C36.6026 27.8102 37.6925 28.2961 38.617 28.2961C41.0947 28.2962 43.206 26.7352 44.0132 24.5471Z" fill="#FF5A96"/>
<path d="M38.6171 29.2762C38.6847 29.2762 38.7522 29.2752 38.8194 29.2732C40.9788 29.2086 42.9572 28.0512 44.1385 26.2497L44.3315 25.9553L44.0992 24.8906L43.8332 24.9273C42.9211 26.8865 40.9288 28.2456 38.6171 28.2456C37.6925 28.2456 36.6027 27.7597 35.5223 27.0716L34.1157 27.2007L35.271 28.1296C36.5504 28.9007 37.6478 29.2762 38.6171 29.2762Z" fill="#FF2488"/>
<path d="M35.5223 27.0715C32.894 25.3974 30.3217 22.5241 30.3217 22.5241L28.0312 20.0669L28.0472 20.0499C27.7698 19.755 27.4881 19.4642 27.2021 19.1776L27.2018 19.1773C26.9835 18.9582 26.763 18.7413 26.5401 18.5269L23.6111 18.546L24.426 21.198L24.4252 21.1972C25.1897 21.9458 25.6832 22.4945 25.708 22.522L25.715 22.5146C26.6712 23.5194 28.0158 25.027 28.0158 25.027C28.4909 25.5373 29.6486 26.7433 31.0685 27.9542C31.9836 28.7348 32.856 29.3883 33.6898 29.9178L33.0056 27.3024L35.5223 27.0715Z" fill="#7676FF"/>
<path d="M26.8508 20.0301L26.8569 20.0362L26.8572 20.0366C27.1432 20.3232 27.4249 20.614 27.7023 20.9089L27.6863 20.9259L29.9767 23.3831C29.9767 23.3831 31.9041 25.5352 34.1267 27.1997L35.5225 27.0716C32.8941 25.3975 30.3217 22.5242 30.3217 22.5242L28.0312 20.067L28.0473 20.05C27.7699 19.7551 27.4882 19.4643 27.2022 19.1777L27.2018 19.1773C26.9836 18.9582 26.763 18.7413 26.5402 18.5269L25.1133 18.5363L25.5754 18.899C26.023 19.2499 26.4489 19.6276 26.8508 20.0301Z" fill="#5A5AFF"/>
<path d="M13.3608 24.7547C13.3608 24.7547 13.1462 24.4564 12.7645 24.1582C12.1915 25.3223 10.5461 25.3376 10.5461 25.3376C7.36294 24.9687 8.70322 29.7652 8.70322 29.7652C9.94008 33.058 10.0797 35.4069 9.80878 37.0359C9.42395 39.3494 7.10824 40.8529 4.88153 40.1236C1.63228 39.0594 4.03837 34.83 4.03837 34.83C0.780785 31.7106 4.38089 29.1614 4.38089 29.1614C3.61027 26.3774 4.28367 25.0087 4.28367 25.0087C6.31957 19.8225 11.1682 21.299 12.4679 22.3006C12.4679 22.3006 17.1462 22.3517 15.4658 30.5031C15.4658 30.5031 18.2278 32.6162 15.7914 35.6686L11.9654 36.9907L9.98976 28.7711" fill="#333333"/>
<path d="M12.5197 32.0454L12.4384 30.6411L8.53716 27.6619L8.54261 31.806C8.54325 32.3276 8.19474 32.7875 7.69111 32.9192C6.2378 33.2991 4.95094 33.9642 4.07209 34.4975C3.1912 35.0327 2.48296 35.8101 2.03192 36.7369C1.40105 38.0308 0.577435 40.2362 0.183311 43.4654C0.0173924 44.8246 -0.00440252 45.9131 0.0579906 46.7826C0.188012 48.594 1.68491 50 3.49699 50H25.3774C25.081 49.1829 21.1489 37.478 19.6007 36.0019C18.3644 34.8232 14.8529 33.5805 13.3092 33.073C13.0896 33.0008 12.8969 32.8641 12.7561 32.6808C12.6153 32.4976 12.5329 32.2761 12.5197 32.0454Z" fill="#00D5FE"/>
<path d="M1.35115 46.7826C1.28876 45.9131 1.31055 44.8245 1.47647 43.4654C1.8706 40.2362 2.69421 38.0308 3.32508 36.7369C3.77612 35.8101 4.48437 35.0327 5.36526 34.4975C6.2441 33.9642 7.53096 33.2991 8.98427 32.9192C9.4878 32.7876 9.83641 32.3277 9.83566 31.806L9.8315 28.6503L8.53705 27.6619L8.5425 31.806C8.54325 32.3276 8.19464 32.7875 7.69111 32.9192C6.2378 33.2991 4.95094 33.9642 4.07209 34.4975C3.1912 35.0327 2.48296 35.8101 2.03192 36.7369C1.40105 38.0308 0.577435 40.2362 0.183311 43.4654C0.0173924 44.8246 -0.00440252 45.9131 0.0579906 46.7826C0.188012 48.594 1.68502 50 3.49699 50H4.79004C2.97808 50 1.48117 48.594 1.35115 46.7826Z" fill="#0DB9D6"/>
<path d="M14.7588 33.5729C14.2788 33.3965 13.7955 33.229 13.3093 33.0703C13.0897 32.9982 12.8968 32.8616 12.7559 32.6783C12.615 32.495 12.5327 32.2735 12.5196 32.0427L12.4384 30.6413L8.5371 27.662L8.54255 31.8062C8.54319 32.3289 8.19276 32.7879 7.68828 32.9201C7.21125 33.045 6.75217 33.2006 6.31958 33.372C7.49992 34.3736 11.2802 37.0386 14.7588 33.5729Z" fill="#FFA099"/>
<path d="M19.1168 47.6341C19.1086 47.6341 19.1003 47.6336 19.092 47.6327L6.00439 46.1199C5.81774 46.1049 5.80845 45.9295 5.81828 45.8717C5.82672 45.8223 6.65738 40.9119 6.38986 38.862C6.38623 38.8342 6.38812 38.806 6.39542 38.7789C6.40272 38.7518 6.41528 38.7264 6.4324 38.7041C6.44951 38.6819 6.47084 38.6632 6.49516 38.6492C6.51948 38.6352 6.54632 38.6261 6.57415 38.6225C6.60198 38.6189 6.63025 38.6208 6.65735 38.6281C6.68445 38.6354 6.70984 38.6479 6.73209 38.6651C6.75433 38.6822 6.77298 38.7035 6.78698 38.7278C6.80098 38.7521 6.81006 38.779 6.81368 38.8068C7.05952 40.6896 6.43943 44.7193 6.2765 45.7211L19.141 47.2081C19.1952 47.2143 19.245 47.241 19.2801 47.2827C19.3153 47.3245 19.3331 47.3781 19.33 47.4325C19.3269 47.487 19.3031 47.5382 19.2635 47.5757C19.2238 47.6132 19.1713 47.634 19.1168 47.6341ZM17.5715 45.4769C17.5206 45.4768 17.4715 45.4586 17.4329 45.4255C17.3942 45.3924 17.3686 45.3467 17.3607 45.2965C17.0548 43.354 17.4974 39.9456 17.6405 38.9472C17.6445 38.9194 17.6539 38.8927 17.6682 38.8686C17.6825 38.8444 17.7014 38.8234 17.7239 38.8065C17.7464 38.7897 17.7719 38.7775 17.7991 38.7705C17.8263 38.7636 17.8546 38.7621 17.8823 38.7661C17.9101 38.77 17.9368 38.7795 17.9609 38.7938C17.9851 38.8081 18.0062 38.827 18.023 38.8495C18.0398 38.8719 18.052 38.8975 18.059 38.9246C18.0659 38.9518 18.0675 38.9801 18.0635 39.0079C17.9227 39.9913 17.4862 43.3466 17.7828 45.2301C17.7876 45.2606 17.7857 45.2918 17.7773 45.3215C17.7689 45.3512 17.7541 45.3787 17.734 45.4022C17.7139 45.4257 17.689 45.4445 17.6609 45.4574C17.6329 45.4703 17.6024 45.4769 17.5715 45.4769Z" fill="#0DB9D6"/>
<path d="M15.0115 50L16.8903 41.2483H29.0304L27.2924 50H15.0115Z" fill="#FFCE03"/>
<path d="M18.1444 41.2483H16.8902L15.0115 50H27.2924L27.5277 48.8146H20.5204C18.4618 48.8146 16.9276 46.9161 17.3597 44.9033L18.1444 41.2483Z" fill="#FEAC01"/>
<path d="M24.8067 43.7313C24.6783 43.6078 24.5071 43.5388 24.329 43.5388C24.1509 43.5388 23.9797 43.6078 23.8513 43.7313C23.8205 43.7598 23.7797 43.7751 23.7376 43.7738C23.6956 43.7725 23.6558 43.7548 23.6268 43.7244C23.5977 43.6941 23.5817 43.6535 23.5823 43.6115C23.5829 43.5694 23.5999 43.5293 23.6298 43.4997C23.8177 43.3191 24.0683 43.2181 24.3291 43.2181C24.5898 43.2181 24.8404 43.3191 25.0284 43.4997C25.0924 43.561 25.0963 43.6642 25.0333 43.7263C24.9501 43.8084 24.8377 43.761 24.8067 43.7313Z" fill="#333333"/>
<path d="M24.3899 45.6117C24.581 45.6117 24.736 45.454 24.736 45.2595C24.736 45.0649 24.581 44.9072 24.3899 44.9072C24.1987 44.9072 24.0437 45.0649 24.0437 45.2595C24.0437 45.454 24.1987 45.6117 24.3899 45.6117Z" fill="#001445"/>
<path d="M21.4556 43.7758C21.4142 43.7759 21.3745 43.7599 21.3448 43.7312C21.2164 43.6078 21.0452 43.5388 20.8671 43.5388C20.689 43.5388 20.5178 43.6078 20.3894 43.7312C20.3586 43.7598 20.3177 43.775 20.2757 43.7738C20.2337 43.7725 20.1939 43.7547 20.1648 43.7244C20.1358 43.694 20.1198 43.6535 20.1204 43.6114C20.1209 43.5694 20.138 43.5293 20.1678 43.4997C20.56 43.1242 21.1732 43.1257 21.5664 43.4997C21.668 43.5965 21.6031 43.7552 21.4556 43.7758ZM24.3898 44.2186C23.9255 44.2186 23.5328 44.5337 23.4068 44.964C23.1837 44.8208 22.9241 44.7446 22.6589 44.7446C22.3938 44.7446 22.1342 44.8207 21.911 44.9639C21.785 44.5337 21.3924 44.2186 20.9281 44.2186C20.3625 44.2186 19.9023 44.6856 19.9023 45.2597C19.9023 45.8337 20.3625 46.3007 20.9281 46.3007C21.4687 46.3007 21.9119 45.8738 21.95 45.3349C22.1455 45.1616 22.3977 45.066 22.6589 45.066C22.9201 45.066 23.1723 45.1616 23.3678 45.3349C23.4061 45.8738 23.8491 46.3007 24.3897 46.3007C24.9553 46.3007 25.4155 45.8337 25.4155 45.2597C25.4155 44.6856 24.9554 44.2186 24.3898 44.2186ZM20.9281 45.9801C20.5392 45.9801 20.2229 45.6569 20.2229 45.2595C20.2229 44.8622 20.5392 44.539 20.9281 44.539C21.317 44.539 21.6333 44.8622 21.6333 45.2595C21.6333 45.6569 21.3169 45.9801 20.9281 45.9801ZM24.3898 45.9801C24.001 45.9801 23.6846 45.6569 23.6846 45.2595C23.6846 44.8622 24.001 44.539 24.3898 44.539C24.7787 44.539 25.0951 44.8622 25.0951 45.2595C25.0951 45.6569 24.7787 45.9801 24.3898 45.9801Z" fill="#333333"/>
<path d="M20.9282 45.6117C21.1194 45.6117 21.2743 45.454 21.2743 45.2595C21.2743 45.0649 21.1194 44.9072 20.9282 44.9072C20.737 44.9072 20.582 45.0649 20.582 45.2595C20.582 45.454 20.737 45.6117 20.9282 45.6117Z" fill="#001445"/>
<path d="M22.6592 46.7689C22.1139 46.7689 21.6719 46.9962 21.6719 47.1733C21.6719 47.7282 22.1139 48.1781 22.6592 48.1781C23.2045 48.1781 23.6464 47.7282 23.6464 47.1733C23.6464 46.9962 23.2045 46.7689 22.6592 46.7689Z" fill="#333333"/>
<path d="M22.6591 48.1781C23.0215 48.1781 23.3373 47.9789 23.5091 47.6828C23.3373 47.3868 23.0214 47.1876 22.6591 47.1876C22.2968 47.1876 21.9809 47.3867 21.8091 47.6828C21.9809 47.9789 22.2967 48.1781 22.6591 48.1781Z" fill="#FF2488"/>
<path d="M20.5819 47.5252C20.8878 47.5252 21.1358 47.3675 21.1358 47.1729C21.1358 46.9784 20.8878 46.8207 20.5819 46.8207C20.276 46.8207 20.0281 46.9784 20.0281 47.1729C20.0281 47.3675 20.276 47.5252 20.5819 47.5252Z" fill="white"/>
<path d="M24.736 47.5252C25.0419 47.5252 25.2898 47.3675 25.2898 47.1729C25.2898 46.9784 25.0419 46.8207 24.736 46.8207C24.4301 46.8207 24.1821 46.9784 24.1821 47.1729C24.1821 47.3675 24.4301 47.5252 24.736 47.5252Z" fill="white"/>
<path d="M7.25134 26.964C7.25134 26.964 7.81896 26.1832 7.73649 25.1206C7.69663 24.6074 7.99834 24.158 8.46811 23.9503C11.8282 22.4645 13.3607 24.7548 13.3607 24.7548C13.7032 26.6154 14.1965 30.9802 11.2926 30.9916C9.60817 30.9982 8.27334 30.089 7.55326 29.0846C7.55326 29.0846 5.12965 29.3726 5.27003 27.2381C5.41042 25.1036 7.25134 26.964 7.25134 26.964Z" fill="#FFC5B7"/>
<path d="M13.3608 24.7547C13.3608 24.7547 13.1462 24.4564 12.7645 24.1582C12.1915 25.3223 10.5461 25.3376 10.5461 25.3376C7.36294 24.9687 8.70322 29.7652 8.70322 29.7652C9.94008 33.058 10.0797 35.4069 9.80878 37.0359C9.42395 39.3494 7.10824 40.8529 4.88153 40.1236C1.63228 39.0594 4.03837 34.83 4.03837 34.83C0.780785 31.7106 4.38089 29.1614 4.38089 29.1614C3.61027 26.3774 4.28367 25.0087 4.28367 25.0087C6.31957 19.8225 11.1682 21.299 12.4679 22.3006" fill="#333333"/>
<path d="M5.33149 34.8299C2.0739 31.7105 5.67401 29.1613 5.67401 29.1613C4.90339 26.3774 5.57679 25.0087 5.57679 25.0087C6.56931 22.4805 8.2301 21.536 9.8224 21.3475C7.90948 21.1336 5.55146 21.7794 4.28362 25.0087C4.28362 25.0087 3.61023 26.3774 4.38084 29.1613C4.38084 29.1613 0.780845 31.7105 4.03832 34.8299C4.03832 34.8299 1.63223 39.0592 4.88149 40.1235C5.46152 40.3149 6.08018 40.3583 6.68127 40.2499C6.50966 40.2196 6.34037 40.1774 6.17465 40.1235C2.9254 39.0593 5.33149 34.8299 5.33149 34.8299Z" fill="#1E1E1E"/>
<path d="M11.8186 6.87891H0.820801V15.0685L2.52967 13.1649H11.8186V6.87891Z" fill="#00D5FE"/>
<path d="M11.8186 11.8717H4.26898C3.07871 11.8717 2.11386 10.9068 2.11386 9.71662V6.87891H0.820801V15.0685L2.52978 13.1649H11.8187L11.8186 11.8717Z" fill="#0DB9D6"/>
<path d="M4.70445 11.404L3.06428 10.1938C2.89377 10.0219 3.00969 9.89016 3.06428 9.84988L4.70456 8.63963C4.72714 8.62297 4.75278 8.61092 4.78002 8.60417C4.80726 8.59741 4.83556 8.59609 4.86331 8.60028C4.89106 8.60447 4.91771 8.61408 4.94175 8.62857C4.96578 8.64305 4.98673 8.66213 5.00339 8.68471C5.02005 8.70729 5.0321 8.73294 5.03885 8.76017C5.0456 8.78741 5.04692 8.81571 5.04273 8.84346C5.03855 8.87121 5.02893 8.89786 5.01445 8.9219C4.99996 8.94593 4.98088 8.96688 4.9583 8.98354L3.55104 10.0219L4.9583 11.0602C4.98088 11.0769 4.99996 11.0979 5.01445 11.1219C5.02894 11.1459 5.03855 11.1726 5.04274 11.2003C5.04693 11.2281 5.04561 11.2564 5.03885 11.2836C5.0321 11.3108 5.02005 11.3365 5.00339 11.3591C4.9614 11.4158 4.84794 11.4867 4.70445 11.404ZM7.63629 11.359C7.61963 11.3364 7.60758 11.3107 7.60082 11.2835C7.59407 11.2563 7.59275 11.228 7.59694 11.2002C7.60113 11.1725 7.61074 11.1458 7.62523 11.1218C7.63971 11.0977 7.65879 11.0768 7.68138 11.0601L9.08864 10.0218L7.68138 8.98343C7.6588 8.96677 7.63972 8.94582 7.62523 8.92179C7.61074 8.89776 7.60113 8.8711 7.59695 8.84336C7.59276 8.81561 7.59408 8.78731 7.60083 8.76007C7.60758 8.73283 7.61963 8.70719 7.63629 8.68461C7.65295 8.66202 7.6739 8.64295 7.69793 8.62846C7.72197 8.61397 7.74862 8.60436 7.77637 8.60017C7.80412 8.59599 7.83242 8.59731 7.85965 8.60406C7.88689 8.61081 7.91254 8.62286 7.93512 8.63952L9.57539 9.84978C9.62999 9.89005 9.70467 10.0738 9.57539 10.1937L7.93512 11.404C7.78597 11.485 7.67817 11.4158 7.63629 11.359ZM5.9818 11.448C5.95449 11.4415 5.92872 11.4297 5.90596 11.4133C5.88321 11.3968 5.86391 11.3761 5.84918 11.3522C5.83445 11.3283 5.82456 11.3017 5.8201 11.274C5.81563 11.2463 5.81667 11.218 5.82315 11.1907L6.4005 8.75426C6.41381 8.69937 6.44832 8.65198 6.49647 8.62246C6.54462 8.59293 6.60251 8.58368 6.65746 8.59671C6.71242 8.60974 6.75999 8.64401 6.78975 8.69201C6.81952 8.74001 6.82907 8.79785 6.81631 8.85287L6.23896 11.2893C6.1723 11.4984 5.99847 11.4518 5.9818 11.448Z" fill="white"/>
<path d="M46.0257 35.1366H35.0278V43.3262L36.7368 41.4226H46.0257V35.1366Z" fill="#90D628"/>
<path d="M36.1253 37.0846L36.1258 35.1366H35.0278V43.3262L36.7368 41.4226H46.0257V40.3181H39.358C37.5723 40.3181 36.1247 38.8703 36.1253 37.0846Z" fill="#6CA42E"/>
<g opacity="0.96">
<path d="M39.1243 40.3077H38.8884C38.4649 40.3077 38.1205 39.9637 38.1205 39.5409V38.8291L37.7212 38.4307C37.5938 38.2924 37.681 38.1683 37.7212 38.1281L38.1205 37.7299V37.0181C38.1205 36.5952 38.465 36.2512 38.8884 36.2512H39.1243C39.181 36.2512 39.2353 36.2737 39.2754 36.3138C39.3155 36.3539 39.338 36.4082 39.338 36.4649C39.338 36.5216 39.3155 36.5759 39.2754 36.616C39.2353 36.6561 39.181 36.6786 39.1243 36.6786H38.8884C38.7982 36.6785 38.7117 36.7142 38.6479 36.7779C38.584 36.8415 38.548 36.9279 38.5478 37.0181V37.8184C38.5478 37.8465 38.5423 37.8743 38.5315 37.9003C38.5208 37.9263 38.505 37.9498 38.4851 37.9697L38.1747 38.2793L38.4851 38.589C38.5253 38.6291 38.5478 38.6835 38.5478 38.7403V39.5406C38.5481 39.6308 38.5841 39.7172 38.6479 39.7808C38.7118 39.8445 38.7983 39.8802 38.8884 39.8802H39.1243C39.181 39.8802 39.2354 39.9027 39.2755 39.9428C39.3156 39.9829 39.3381 40.0373 39.3381 40.094C39.3381 40.1507 39.3156 40.205 39.2755 40.2451C39.2354 40.2852 39.181 40.3077 39.1243 40.3077ZM42.1651 40.3077H41.9292C41.8726 40.3077 41.8182 40.2852 41.7781 40.2452C41.7381 40.2051 41.7155 40.1507 41.7155 40.0941C41.7155 40.0374 41.7381 39.983 41.7781 39.943C41.8182 39.9029 41.8726 39.8804 41.9292 39.8804H42.1651C42.2553 39.8804 42.3418 39.8447 42.4056 39.7811C42.4695 39.7174 42.5055 39.631 42.5057 39.5409V38.7405C42.5057 38.7124 42.5112 38.6846 42.522 38.6587C42.5328 38.6327 42.5485 38.6091 42.5684 38.5893L42.8788 38.2795L42.5684 37.9699C42.5485 37.9501 42.5328 37.9265 42.522 37.9005C42.5112 37.8746 42.5057 37.8467 42.5057 37.8186V37.0183C42.5055 36.9282 42.4695 36.8418 42.4056 36.7781C42.3418 36.7145 42.2553 36.6788 42.1651 36.6788H41.9292C41.8726 36.6788 41.8182 36.6563 41.7781 36.6162C41.7381 36.5761 41.7155 36.5218 41.7155 36.4651C41.7155 36.4084 41.7381 36.3541 41.7781 36.314C41.8182 36.2739 41.8726 36.2514 41.9292 36.2514H42.1651C42.5886 36.2514 42.9331 36.5955 42.9331 37.0183V37.7301L43.3323 38.1284C43.3725 38.1684 43.4295 38.3081 43.3323 38.4309L42.9331 38.8293V39.5411C42.9332 39.9638 42.5886 40.3077 42.1651 40.3077Z" fill="white"/>
<path d="M40.5268 38.6346C40.7252 38.6346 40.8861 38.4757 40.8861 38.2796C40.8861 38.0835 40.7252 37.9246 40.5268 37.9246C40.3283 37.9246 40.1675 38.0835 40.1675 38.2796C40.1675 38.4757 40.3283 38.6346 40.5268 38.6346Z" fill="white"/>
<path d="M39.2584 38.5557C39.4127 38.5557 39.5378 38.4321 39.5378 38.2796C39.5378 38.1271 39.4127 38.0035 39.2584 38.0035C39.1041 38.0035 38.979 38.1271 38.979 38.2796C38.979 38.4321 39.1041 38.5557 39.2584 38.5557Z" fill="white"/>
<path d="M41.7952 38.5557C41.9495 38.5557 42.0746 38.4321 42.0746 38.2796C42.0746 38.1271 41.9495 38.0035 41.7952 38.0035C41.641 38.0035 41.5159 38.1271 41.5159 38.2796C41.5159 38.4321 41.641 38.5557 41.7952 38.5557Z" fill="white"/>
</g>
</g>
<defs>
<clipPath id="clip0_18_2471">
<rect width="50" height="50" fill="white"/>
</clipPath>
</defs>
</svg>
