<svg width="45" height="45" viewBox="0 0 45 45" fill="none" xmlns="http://www.w3.org/2000/svg">
<path d="M27.4968 26.3512C26.2394 28.4833 24.3095 30.1365 21.5779 30.758C15.6704 32.1018 11.027 27.2601 12.7345 21.5301C13.8459 17.8004 17.8631 14.9324 21.8793 15.0013C24.7753 15.051 27.1189 16.6263 28.2259 19.359C27.0064 19.6849 25.8074 20.045 24.5861 20.3023C24.3016 20.3622 23.8845 20.1418 23.627 19.9317C21.9522 18.5628 19.998 18.6672 18.2571 20.2575C16.6854 21.6932 16.3345 24.0553 17.4585 25.6311C18.9888 27.7764 22.3539 27.3878 23.7137 24.8047C22.9626 24.8047 22.2648 24.8047 21.567 24.8047C20.8666 24.8047 20.1662 24.8047 19.1259 24.8047C19.6746 23.6562 20.071 22.7234 20.5745 21.8516C20.6861 21.6586 21.1759 21.6194 21.4929 21.6153C23.2201 21.5932 24.9487 21.5708 26.6751 21.6197C27.442 21.6415 27.8439 21.4299 28.1852 20.6842C29.8699 17.0053 33.4842 14.9278 37.5526 15.1932C42.1304 15.4917 45.0364 19.416 44.0755 24.0013C42.8595 29.8045 35.2427 33.0044 30.483 29.6159C29.3153 28.7848 28.498 27.4697 27.4968 26.3512ZM40.0206 22.5025C39.9984 20.502 38.4217 18.9686 36.4195 19.0003C33.921 19.0398 31.8537 21.1368 31.8716 23.6144C31.8862 25.6468 33.457 27.0773 35.6303 27.0375C37.9498 26.995 40.0464 24.8294 40.0206 22.5025Z" fill="#00ACD7"/>
<path d="M1 21.45C1.25105 21.3015 1.50064 21.0265 1.75286 21.0239C4.88031 20.9945 8.00776 21.0047 11.2442 21.2727C11.0538 21.416 10.8642 21.6829 10.6724 21.6843C7.47724 21.7102 4.28183 21.7027 1.08642 21.7027C1.05771 21.6189 1.029 21.5343 1 21.45Z" fill="#00ACD7"/>
<path d="M12.2583 19.4C11.9721 19.5605 11.6883 19.8552 11.3997 19.8599C9.01108 19.8974 6.62126 19.8811 4.23202 19.8811C4.19218 19.782 4.15263 19.6831 4.11279 19.584C4.41745 19.4256 4.72006 19.1343 5.02736 19.1294C7.38789 19.091 9.74929 19.1084 12.1104 19.1084C12.1599 19.2055 12.2091 19.3029 12.2583 19.4Z" fill="#00ACD7"/>
<path d="M6.02759 23.6331C6.49044 22.8995 8.88788 22.6684 10.7009 23.1221C10.4393 23.775 9.54377 23.8762 6.02759 23.6331Z" fill="#00ACD7"/>
</svg>
