<svg width="45" height="45" viewBox="0 0 45 45" fill="none" xmlns="http://www.w3.org/2000/svg">
<path fill-rule="evenodd" clip-rule="evenodd" d="M22.9695 31.7977C30.9339 42.6552 38.7285 28.7673 38.7169 20.4156C38.7035 10.5412 28.6955 5.02246 22.9631 5.02246C13.7625 5.02246 5 12.6266 5 23.0306C5 34.5947 15.044 41.0001 22.9631 41.0001C21.1712 40.742 15.1993 39.4625 15.1189 25.7076C15.0649 16.4045 18.1536 12.6878 22.9501 14.3229C23.0575 14.3627 28.2406 16.4075 28.2406 23.0869C28.2406 29.7376 22.9695 31.7977 22.9695 31.7977Z" fill="url(#paint0_linear_16_163)"/>
<path fill-rule="evenodd" clip-rule="evenodd" d="M22.9601 14.3152C17.6974 12.5013 11.2505 16.8387 11.2505 25.5266C11.2505 39.7123 21.7628 40.9999 23.037 40.9999C32.2373 40.9999 40.9998 33.3958 40.9998 22.9918C40.9998 11.4277 30.9558 5.0223 23.0367 5.0223C25.2301 4.71862 34.8583 7.39597 34.8583 20.5557C34.8583 29.1373 27.6688 33.8092 22.9929 31.8132C22.8854 31.7735 17.7023 29.7287 17.7023 23.0493C17.7023 16.398 22.9601 14.3149 22.9601 14.3152Z" fill="url(#paint1_linear_16_163)"/>
<defs>
<linearGradient id="paint0_linear_16_163" x1="10.0085" y1="10.6492" x2="35.3668" y2="36.0147" gradientUnits="userSpaceOnUse">
<stop/>
<stop offset="1" stop-color="white"/>
</linearGradient>
<linearGradient id="paint1_linear_16_163" x1="36.5167" y1="34.862" x2="11.1584" y2="9.49887" gradientUnits="userSpaceOnUse">
<stop/>
<stop offset="1" stop-color="white"/>
</linearGradient>
</defs>
</svg>
