<svg width="45" height="45" viewBox="0 0 45 45" fill="none" xmlns="http://www.w3.org/2000/svg">
<path fill-rule="evenodd" clip-rule="evenodd" d="M21.6756 7.21436C21.9262 7.07393 22.2106 7 22.5 7C22.7894 7 23.0738 7.07393 23.3244 7.21436L36.1756 14.4144C36.4262 14.5548 36.6344 14.7568 36.7791 15C36.9238 15.2432 37 15.5191 37 15.8V30.2C37 30.4809 36.9238 30.7568 36.7791 31C36.6344 31.2432 36.4262 31.4452 36.1756 31.5856L23.3244 38.7856C23.0738 38.9261 22.7894 39 22.5 39C22.2106 39 21.9262 38.9261 21.6756 38.7856L18.462 36.9856C18.2729 36.8813 18.107 36.7418 17.9738 36.575C17.8406 36.4083 17.7426 36.2176 17.6857 36.0139C17.6287 35.8103 17.6138 35.5977 17.6418 35.3885C17.6698 35.1792 17.7403 34.9774 17.849 34.7947C17.9577 34.612 18.1026 34.4519 18.2753 34.3237C18.4481 34.1956 18.6452 34.1018 18.8555 34.0479C19.0657 33.9939 19.2848 33.9809 19.5003 34.0095C19.7157 34.0381 19.9232 34.1077 20.1108 34.2144L22.5 35.552L33.7023 29.2768V16.7232L22.5 10.448L11.2977 16.7232V29.3344L13.8798 30.9728L13.9128 30.9712C14.2343 30.9392 14.6383 30.8784 15.0175 30.768C15.4165 30.6512 15.6738 30.5152 15.8057 30.3984C15.8914 30.3232 15.9046 30.2896 15.9046 30.2V18.2C15.9046 17.7756 16.0783 17.3687 16.3875 17.0686C16.6968 16.7686 17.1161 16.6 17.5534 16.6C17.9907 16.6 18.4101 16.7686 18.7194 17.0686C19.0286 17.3687 19.2023 17.7756 19.2023 18.2V30.2C19.2023 31.312 18.6994 32.176 18.0118 32.776C17.3721 33.336 16.5988 33.648 15.9672 33.832C15.2228 34.0443 14.454 34.1658 13.6786 34.1936C13.6226 34.1959 13.5665 34.1975 13.5105 34.1984H13.4593L13.4429 34.2H13.4313C13.1109 34.2 12.7975 34.1093 12.5294 33.9392L8.74693 31.5392C8.51757 31.3938 8.32917 31.1952 8.19876 30.9614C8.06835 30.7276 8.00004 30.4659 8 30.2V15.8C8.00001 15.5191 8.0762 15.2432 8.22091 15C8.36563 14.7568 8.57377 14.5548 8.82443 14.4144L21.6756 7.21436ZM22.2692 17.8704C23.2634 17.0672 24.7045 16.6 26.6221 16.6C28.5397 16.6 29.9825 17.0672 30.9751 17.8704C31.9578 18.6656 32.3931 19.7104 32.3931 20.6C32.3931 21.0243 32.2194 21.4313 31.9102 21.7314C31.601 22.0314 31.1816 22.2 30.7443 22.2C30.307 22.2 29.8876 22.0314 29.5783 21.7314C29.2691 21.4313 29.0954 21.0243 29.0954 20.6V20.6256C29.0938 20.6256 29.069 20.4944 28.8646 20.3296C28.6222 20.1328 28.0022 19.8 26.6221 19.8C25.242 19.8 24.6237 20.1328 24.3797 20.328C24.1851 20.488 24.1538 20.616 24.1488 20.6256C24.1488 21.0256 24.1719 21.0672 24.1802 21.0832C24.1802 21.0864 24.2016 21.1264 24.2907 21.2048C24.3896 21.288 24.5693 21.4144 24.8859 21.5696C25.5256 21.8784 26.1786 22.0432 27.0228 22.248L27.0756 22.2608C27.872 22.4528 28.8448 22.6896 29.8324 23.1696C30.4986 23.4838 31.0759 23.9507 31.5143 24.53C31.9527 25.1093 32.2391 25.7836 32.3486 26.4944C32.3712 26.6386 32.3855 26.7839 32.3915 26.9296V26.9696L32.3931 26.9856V26.9984C32.3931 27.888 31.9578 28.9344 30.9751 29.7296C29.9808 30.5328 28.5397 31 26.6221 31C24.7045 31 23.2634 30.5328 22.2692 29.7296C21.2864 28.9344 20.8511 27.8896 20.8511 27C20.8511 26.5757 21.0249 26.1687 21.3341 25.8686C21.6433 25.5686 22.0627 25.4 22.5 25.4C22.9373 25.4 23.3567 25.5686 23.6659 25.8686C23.9751 26.1687 24.1488 26.5757 24.1488 27V26.9744C24.1505 26.9744 24.1769 27.1056 24.3797 27.2704C24.6221 27.4672 25.242 27.8 26.6221 27.8C28.0022 27.8 28.6222 27.4672 28.8646 27.272C28.9645 27.1994 29.0425 27.1022 29.0905 26.9904L29.0888 26.9808C29.0596 26.7755 28.9772 26.5806 28.8495 26.4145C28.7218 26.2483 28.5529 26.1162 28.3584 26.0304C27.7186 25.7216 27.0657 25.5568 26.2231 25.352L26.1687 25.3392C25.3739 25.1472 24.3995 24.9104 23.4118 24.4304C22.4011 23.9408 21.6525 23.3328 21.232 22.5152C20.8478 21.7712 20.8495 21.0384 20.8511 20.6576V20.6C20.8511 19.7104 21.2864 18.664 22.2692 17.8704Z" fill="#509E48"/>
</svg>
