<svg width="50" height="50" viewBox="0 0 50 50" fill="none" xmlns="http://www.w3.org/2000/svg">
<path d="M25.1284 3.75036C23.3441 3.75865 21.6401 3.91083 20.1408 4.17615C15.724 4.95647 14.9221 6.58966 14.9221 9.60166V13.5796H25.3595V14.9055H11.005C7.97167 14.9055 5.31548 16.7287 4.48475 20.1972C3.52643 24.1728 3.48397 26.6537 4.48475 30.8049C5.2267 33.8949 6.99849 36.0965 10.0318 36.0965H13.6205V31.3279C13.6205 27.8828 16.6012 24.8441 20.1408 24.8441H30.5661C33.4681 24.8441 35.7847 22.4547 35.7847 19.5403V9.60166C35.7847 6.77312 33.3984 4.64826 30.5661 4.17615C28.7731 3.87768 26.9127 3.74207 25.1284 3.75036ZM19.4839 6.94975C20.562 6.94975 21.4424 7.84457 21.4424 8.94473C21.4424 10.041 20.562 10.9276 19.4839 10.9276C18.4019 10.9276 17.5254 10.041 17.5254 8.94473C17.5254 7.84448 18.4019 6.94975 19.4839 6.94975Z" fill="url(#paint0_linear_18_2541)"/>
<path d="M37.0864 14.9054V19.5402C37.0864 23.1335 34.0399 26.1578 30.5661 26.1578H20.1408C17.2852 26.1578 14.9221 28.6018 14.9221 31.4616V41.4002C14.9221 44.2288 17.3818 45.8926 20.1408 46.7041C23.4447 47.6755 26.613 47.8511 30.5661 46.7041C33.1937 45.9433 35.7847 44.4122 35.7847 41.4002V37.4223H25.3595V36.0963H41.0034C44.0368 36.0963 45.1672 33.9805 46.2221 30.8047C47.3119 27.5353 47.2655 24.3912 46.2221 20.197C45.4725 17.1772 44.0407 14.9053 41.0034 14.9053H37.0864V14.9054ZM31.223 40.0743C32.305 40.0743 33.1815 40.9609 33.1815 42.0572C33.1815 43.1574 32.305 44.0522 31.223 44.0522C30.1449 44.0522 29.2645 43.1574 29.2645 42.0572C29.2644 40.9609 30.1448 40.0743 31.223 40.0743Z" fill="url(#paint1_linear_18_2541)"/>
<defs>
<linearGradient id="paint0_linear_18_2541" x1="2.72705" y1="4.99419" x2="26.7999" y2="25.5233" gradientUnits="userSpaceOnUse">
<stop stop-color="#5A9FD4"/>
<stop offset="1" stop-color="#306998"/>
</linearGradient>
<linearGradient id="paint1_linear_18_2541" x1="35.8574" y1="38.2844" x2="27.2246" y2="26.1781" gradientUnits="userSpaceOnUse">
<stop stop-color="#FFD43B"/>
<stop offset="1" stop-color="#FFE873"/>
</linearGradient>
</defs>
</svg>
