<svg width="45" height="45" viewBox="0 0 45 45" fill="none" xmlns="http://www.w3.org/2000/svg">
<path d="M38.4742 4H7.5258C5.57855 4 4 5.57855 4 7.5258V38.4742C4 40.4214 5.57855 42 7.5258 42H38.4742C40.4214 42 42 40.4214 42 38.4742V7.5258C42 5.57855 40.4214 4 38.4742 4Z" fill="#E64B22"/>
<path d="M42 28.2012V38.4741C42 39.4092 41.6285 40.306 40.9673 40.9672C40.3061 41.6284 39.4093 41.9999 38.4742 41.9999H26.4891L13.3186 28.8295C13.595 28.9223 34.4777 36.043 29.8961 16.0908L42 28.2012Z" fill="url(#paint0_linear_8_1054)"/>
<path d="M25.7636 12.6104C36.205 19.5777 32.8195 27.2339 32.8195 27.2339C32.8195 27.2339 35.784 30.5157 34.5922 33.3894C34.5922 33.3894 33.3615 31.3815 31.319 31.3815C29.3456 31.3815 28.1775 33.3894 24.194 33.3894C15.3266 33.3894 11.125 26.1263 11.125 26.1263C19.1136 31.2908 24.5718 27.6376 24.5718 27.6376C20.964 25.5908 13.3143 15.7907 13.3143 15.7907C19.9773 21.359 22.8618 22.8207 22.8618 22.8207C21.1345 21.4302 16.309 14.6161 16.309 14.6161C20.1673 18.4442 27.8385 23.7815 27.8385 23.7815C30.0386 17.8893 25.7636 12.6104 25.7636 12.6104Z" fill="white"/>
<defs>
<linearGradient id="paint0_linear_8_1054" x1="25.7701" y1="26.625" x2="39.5105" y2="40.3676" gradientUnits="userSpaceOnUse">
<stop stop-color="#A13418"/>
<stop offset="1" stop-color="#A33619" stop-opacity="0"/>
</linearGradient>
</defs>
</svg>
