<svg width="45" height="45" viewBox="0 0 45 45" fill="none" xmlns="http://www.w3.org/2000/svg">
<path fill-rule="evenodd" clip-rule="evenodd" d="M11.0339 17.14C11.3654 17.5969 14.1605 18.4587 18.3297 19.3563C22.499 20.1554 26.8349 23.3106 30.2069 22.3376C32.4877 21.6783 34.962 15.8034 34.962 14.9308V14.8412C34.962 14.232 34.5051 13.7429 33.7293 13.3362C30.549 11.7111 29.947 11.1127 28.7681 11.437C22.6477 13.1266 11.842 12.263 11.0339 17.14ZM11.0339 29.0691C11.3654 29.5331 14.1605 30.3878 18.3297 31.2872C22.9881 32.1365 27.0391 34.9046 30.4129 33.93C32.6937 33.2706 34.962 27.7342 34.962 26.8599V26.7739C34.962 26.1665 34.5051 25.6756 33.7293 25.2707C31.3034 23.9807 28.098 22.5599 26.9208 22.8842C20.7897 24.5701 12.5945 24.941 11.0339 29.0691Z" fill="#3F0502"/>
<path fill-rule="evenodd" clip-rule="evenodd" d="M30.404 5.3059C24.7674 6.93456 15.825 7.85368 11.0071 7.85368V17.0541C11.0087 17.0857 11.0206 17.116 11.0412 17.1401C14.3289 17.1401 24.4789 16.0651 30.6029 14.3809C31.6709 14.109 32.7181 13.7611 33.7365 13.3399C34.4855 13.0031 34.9692 12.6483 34.9692 12.2792V3C34.9621 3.87437 32.6849 4.64832 30.404 5.3059ZM30.404 17.2368C27.0303 18.2096 22.4776 18.9335 18.3298 19.3563C15.5455 19.6412 12.944 19.7899 11.0072 19.7899V28.9831C11.0088 29.0147 11.0207 29.045 11.0413 29.0691C14.329 29.0691 24.4789 27.9941 30.603 26.3117C31.6708 26.0391 32.7179 25.6912 33.7366 25.2707C34.4856 24.932 34.9693 24.5791 34.9693 24.21V14.9309C34.9621 15.8034 32.6849 16.5774 30.404 17.2368ZM30.404 29.1748C27.0303 30.1477 22.4776 30.8697 18.3298 31.2943C15.542 31.5792 12.9369 31.7279 11 31.7279V41C14.2538 41 24.4556 39.9339 30.5958 38.2425C32.8587 37.619 34.9621 36.9095 34.9621 36.1391V26.86C34.9621 27.7415 32.6849 28.5083 30.404 29.1748Z" fill="#FF311C"/>
</svg>
