<svg width="45" height="45" viewBox="0 0 45 45" fill="none" xmlns="http://www.w3.org/2000/svg">
<path fill-rule="evenodd" clip-rule="evenodd" d="M0.428467 19.7423C0.428467 19.9895 0.50124 20.1526 0.542022 20.3112C0.807803 21.3423 1.37909 22.2272 2.0569 23.0344C3.02229 24.1847 4.2046 25.1107 5.41573 25.9815C6.4662 26.7367 7.53812 27.475 8.5928 28.2245C8.77386 28.3532 8.94507 28.5012 9.14159 28.659C8.97249 28.7504 8.83187 28.8309 8.68562 28.9051C7.29378 29.6111 5.95468 30.4024 4.72034 31.3611C3.97644 31.9391 3.25714 32.5533 2.74913 33.3559C1.93175 34.6468 1.64241 36.0221 2.25167 37.4906C2.42956 37.9195 2.70097 38.2901 3.08382 38.5639C3.20792 38.6525 3.34714 38.7404 3.49233 38.7749C3.86429 38.8624 4.24327 38.9197 4.61979 38.989L5.68608 38.9883C6.86522 38.8832 7.93855 38.4792 8.90851 37.8098C10.4244 36.7636 11.4457 35.3609 11.8848 33.5605C12.2041 32.252 12.2171 30.9421 11.8409 29.6395C11.8049 29.5189 11.7634 29.3999 11.7164 29.283C11.6707 29.166 11.6169 29.0521 11.5537 28.9062L13.971 27.5161L14.0072 27.547C13.9633 27.6908 13.9165 27.8343 13.8768 27.9795C13.5896 29.0285 13.3987 30.0959 13.4672 31.1847C13.5403 32.3448 13.8641 33.4308 14.5433 34.4C15.0925 35.184 16.401 35.2132 16.9846 34.4264C17.1917 34.1469 17.3924 33.8548 17.5432 33.5429C17.9373 32.7291 18.3023 31.9008 18.6788 31.0781L18.7445 30.9277C18.7175 31.3172 18.6858 31.6593 18.6714 32.0017C18.6489 32.5364 18.6802 33.068 18.863 33.5767C19.0194 34.0119 19.2856 34.3371 19.7841 34.3944C20.1251 34.4334 20.3969 34.2773 20.6475 34.0794C21.0359 33.7725 21.3577 33.3899 21.5936 32.9548C22.2619 31.7275 22.9482 30.5075 23.5539 29.2493C24.2092 27.8884 24.7823 26.4878 25.3908 25.1037L25.4914 24.8583C25.6351 25.4232 25.7353 25.9766 25.9199 26.5004C26.1344 27.1083 26.3998 27.7017 26.6888 28.2786C26.8255 28.5511 26.8097 28.7279 26.6202 28.9564C25.8271 29.9127 25.0477 30.8805 24.2676 31.8473C24.0949 32.0607 23.923 32.278 23.7792 32.5111C23.692 32.6583 23.6347 32.8212 23.6105 32.9906C23.5863 33.1466 23.6234 33.3058 23.7141 33.435C23.8047 33.5642 23.9418 33.6533 24.0967 33.6836C24.4093 33.7509 24.7298 33.7737 25.0487 33.7514C26.1375 33.6712 27.1261 33.2891 28.0001 32.6415C29.1325 31.8027 29.496 30.658 29.2218 29.3013C29.1476 28.9332 29.0165 28.5754 28.8889 28.2206C28.8316 28.0607 28.8277 27.9485 28.9321 27.7995C29.8374 26.5068 30.6108 25.1353 31.3301 23.7322C31.3586 23.677 31.3878 23.6218 31.4377 23.5628C31.6708 24.7757 32.0216 25.9446 32.6502 27.0053C32.3296 27.3143 32.0121 27.5945 31.7249 27.9032C31.0924 28.5831 30.544 29.3214 30.2578 30.2217C30.1348 30.6098 30.0402 31.0043 30.0951 31.4188C30.1801 32.0625 30.7075 32.4809 31.3407 32.3343C32.6956 32.0207 33.8652 31.3822 34.7199 30.2512C35.295 29.4898 35.3474 28.6404 35.1066 27.7506C35.0405 27.5087 34.9621 27.2707 34.8777 26.9933C35.2121 26.8896 35.538 26.7652 35.8751 26.6882C37.6255 26.2888 39.357 26.3584 41.0438 26.9905C42.0285 27.3596 42.8241 27.9773 43.2959 28.9491C43.8721 30.137 43.5536 31.2641 42.4339 32.015C42.3294 32.085 42.2099 32.1402 42.1234 32.2277C42.0957 32.2598 42.075 32.2974 42.0626 32.3379C42.0502 32.3785 42.0464 32.4212 42.0514 32.4633C42.0587 32.5065 42.173 32.5607 42.2387 32.56C42.6068 32.5571 42.9053 32.3641 43.1918 32.1659C43.9097 31.6691 44.4335 31.0008 44.5464 30.1208L44.5685 30.0547L44.5415 29.4817C44.5306 29.4486 44.5496 29.4159 44.5471 29.391C44.3945 28.1095 43.71 27.1157 42.7144 26.3366C41.5613 25.4348 40.1997 25.0636 38.7597 25.0049C37.5918 24.9546 36.4254 25.1341 35.3267 25.5333C35.0113 25.6475 34.6988 25.7829 34.3817 25.9105C34.3391 25.8335 34.2934 25.7597 34.2558 25.6834C33.9303 25.0168 33.5358 24.3798 33.4486 23.6155C33.3867 23.0727 33.3108 22.5306 33.4398 21.9937C33.5639 21.4773 33.7257 20.9696 33.8779 20.4602C33.9563 20.198 33.9011 20.051 33.6508 19.9329C33.5636 19.8894 33.4705 19.8588 33.3744 19.8422C32.7592 19.7529 32.1524 19.8039 31.5565 19.9772C31.3456 20.0387 31.1923 20.1568 31.1455 20.3903C31.1188 20.5242 31.0643 20.6525 31.0264 20.7847C30.8706 21.3342 30.7602 21.8943 30.5085 22.4177C29.8778 23.7308 29.1578 24.9943 28.4209 26.2487C28.3411 26.3841 28.2571 26.517 28.1566 26.6811C27.8978 26.1397 27.6218 25.6539 27.5382 25.0843C27.4436 24.4403 27.3691 23.7973 27.5294 23.1581C27.6485 22.6814 27.8043 22.2135 27.9477 21.7431C28.0156 21.5195 27.9843 21.4021 27.7818 21.2843C27.6795 21.2249 27.5638 21.1721 27.4485 21.1549C26.8177 21.0588 26.1731 21.1116 25.5662 21.3089C25.3753 21.3708 25.2751 21.4942 25.2168 21.6911C25.0452 22.2718 24.899 22.8667 24.6582 23.419C23.6829 25.6549 22.6796 27.8793 21.6773 30.1032C21.4681 30.5677 21.223 31.0159 20.9871 31.468C20.9274 31.5826 20.8402 31.6835 20.7657 31.7911C20.7059 31.7204 20.6827 31.6719 20.683 31.6234C20.6848 31.3376 20.6507 31.0433 20.7052 30.767C20.8725 29.9313 21.0575 29.0992 21.26 28.2712C21.4252 27.5871 21.6175 26.9093 21.8007 26.2297C21.8622 26.0023 21.8632 25.7896 21.6998 25.5983C21.4252 25.278 20.8514 25.2077 20.5111 25.4545L20.3607 25.5396L20.3898 25.297C20.4616 24.7771 20.476 24.2589 20.3332 23.7466C20.1553 23.1082 19.6997 22.7408 19.0374 22.7612C18.7287 22.7707 18.4046 22.8234 18.1187 22.9359C16.9167 23.407 15.9925 24.2413 15.2057 25.245C15.1328 25.3382 15.0424 25.4163 14.9396 25.4749C13.9225 26.0388 12.9023 26.5957 11.8824 27.1547L10.7472 27.7766C10.4427 27.4862 10.166 27.1849 9.8521 26.9293C8.89339 26.1475 7.91921 25.3849 6.95382 24.6118C6.09812 23.9266 5.26913 23.213 4.63491 22.3056C4.16312 21.6306 3.85901 20.892 3.82983 20.0573C3.79292 18.9939 4.09456 18.0221 4.63597 17.1176C5.32855 15.9602 6.27319 15.0314 7.31171 14.1901C8.41034 13.3007 9.59862 12.5455 10.8301 11.8561C12.5532 10.8918 14.3254 10.0382 16.2256 9.47461C18.1739 8.89664 20.1508 8.56582 22.1898 8.79645C22.9914 8.88715 23.7698 9.07066 24.4845 9.46266C25.0319 9.76254 25.4808 10.1552 25.6896 10.7691C25.8957 11.373 25.8893 11.9851 25.7466 12.5986C25.4566 13.841 24.7763 14.8651 23.9202 15.7802C22.5161 17.2804 20.8033 18.3016 18.875 18.9763C17.7662 19.3647 16.6127 19.6108 15.4419 19.7086C14.4825 19.7891 13.5432 19.704 12.6347 19.3704C12.0332 19.1493 11.5094 18.8111 11.0882 18.3203C11.013 18.2324 10.9166 18.1371 10.7764 18.2194C10.6389 18.3002 10.6146 18.431 10.6607 18.5636C10.7377 18.7836 10.8087 19.0129 10.9286 19.2097C11.2299 19.7037 11.6693 20.0619 12.1531 20.3692C13.0823 20.9602 14.1208 21.1588 15.1976 21.2048C16.8317 21.2755 18.426 21.0315 19.9978 20.5931C22.2419 19.9673 24.193 18.862 25.7578 17.1183C27.0607 15.6663 27.9913 14.0277 28.1907 12.0491C28.288 11.0834 28.1843 10.1373 27.7322 9.25629C27.2418 8.3018 26.462 7.59199 25.5297 7.10297C24.1719 6.39105 22.7066 5.97656 21.1942 5.97656H19.679C17.8473 5.97656 16.0765 6.50145 14.3553 7.12758C13.0524 7.60184 11.7748 8.16152 10.5345 8.78098C7.83343 10.1306 5.318 11.758 3.25187 13.9957C2.22249 15.1105 1.35097 16.3406 0.849639 17.7891C0.698328 18.2215 0.567981 18.661 0.459053 19.106M10.2462 31.7668C10.1291 33.3345 9.41862 34.6054 8.25741 35.6347C7.60421 36.2134 6.85503 36.6254 5.98245 36.7703C5.66605 36.8227 5.34226 36.8353 5.03534 36.7042C4.59765 36.5171 4.49956 36.1287 4.49112 35.7149C4.47812 35.0554 4.70909 34.4591 5.02585 33.8917C5.43929 33.152 6.04538 32.5881 6.69261 32.0614C7.71214 31.2314 8.81815 30.529 9.95089 29.8659L10.0363 29.8308C10.2114 30.4777 10.2947 31.1164 10.2462 31.7668ZM19.0908 24.9539C19.0082 25.4545 18.9048 25.9555 18.7586 26.4407C18.253 28.1201 17.6037 29.7475 16.9016 31.353C16.7719 31.6501 16.5831 31.9212 16.4189 32.2028C16.391 32.2461 16.3576 32.2855 16.3194 32.3202C16.1162 32.5209 15.9236 32.5104 15.8209 32.2478C15.7014 31.9426 15.6279 31.616 15.5646 31.2929C15.5221 31.076 15.5323 30.8482 15.5189 30.626C15.5326 29.0461 16.0146 27.6103 16.8324 26.2737C17.1695 25.7224 17.5366 25.1972 18.0973 24.8484C18.2717 24.74 18.4605 24.6564 18.658 24.6002C18.9569 24.5162 19.1404 24.6544 19.0908 24.9539ZM25.125 32.6419L27.2938 30.1096C27.3842 31.05 25.7856 32.9273 25.125 32.6419ZM32.0519 30.9379C31.8986 31.0257 31.7316 31.089 31.5744 31.1702C31.4307 31.2448 31.3832 31.1695 31.379 31.0458C31.3769 30.9601 31.3879 30.8746 31.4117 30.7923C31.7045 29.7594 32.2435 28.8777 33.0454 28.1605L33.1016 28.1317C33.4831 29.1987 33.0422 30.3704 32.0519 30.9379Z" fill="#CB6699"/>
</svg>
