<svg width="45" height="45" viewBox="0 0 45 45" fill="none" xmlns="http://www.w3.org/2000/svg">
<path d="M22.4395 3C22.8174 3 23.1951 3 23.5731 3C23.6621 3.01369 23.7507 3.03305 23.8403 3.04028C24.3459 3.08096 24.8529 3.1097 25.3576 3.15976C26.2979 3.25303 27.2222 3.4388 28.1345 3.68069C34.1546 5.27751 39.1297 9.63815 41.4946 15.4001C42.3821 17.5622 42.8995 19.8082 42.9593 22.1516C42.9619 22.2539 42.9859 22.3558 42.9998 22.4578C42.9998 22.8225 42.9998 23.1872 42.9998 23.5519C42.9865 23.6409 42.9652 23.7295 42.9613 23.8188C42.9513 24.0464 42.9599 24.2752 42.9417 24.5021C42.8711 25.3848 42.7512 26.2604 42.5689 27.1278C42.0239 29.721 41.0044 32.1127 39.5029 34.2943C37.5161 37.1812 34.9438 39.3992 31.8027 40.9538C29.4296 42.1284 26.9143 42.7816 24.2749 42.9544C23.5607 43.0012 22.845 43.0186 22.1273 42.9742C21.4319 42.931 20.7395 42.8748 20.0499 42.7751C19.0635 42.6326 18.0931 42.4188 17.1426 42.1216C12.8756 40.787 9.41563 38.3149 6.7886 34.7023C4.48921 31.5405 3.25256 27.988 3.03231 24.0881C2.93059 22.2862 3.06791 20.4973 3.4605 18.7331C4.34856 14.7448 6.28158 11.3396 9.22706 8.51435C11.1877 6.6338 13.455 5.22882 15.9997 4.27397C17.3566 3.76477 18.7544 3.41358 20.1888 3.21099C20.8332 3.12006 21.4806 3.05299 22.1324 3.04048C22.2351 3.03833 22.3372 3.01408 22.4395 3ZM26.0716 30.9061C26.1815 30.9061 26.265 30.9061 26.3488 30.9061C27.8014 30.9063 29.2538 30.9079 30.7062 30.9048C30.9399 30.9042 31.1744 30.8911 31.407 30.8686C32.2303 30.7888 32.9907 30.5213 33.6968 30.0917C35.4131 29.0471 36.0645 27.2794 35.6842 25.4039C35.3521 23.7666 34.0894 22.8607 32.7383 22.5699C32.603 22.5408 32.4655 22.5218 32.3291 22.4981C32.3638 22.4539 32.398 22.4373 32.4334 22.4248C33.896 21.9027 35.0444 20.5122 35.0123 18.6797C34.9927 17.5628 34.5546 16.66 33.645 16.0072C32.8119 15.4093 31.8698 15.1153 30.8456 15.1105C29.3281 15.1032 27.8104 15.1109 26.2928 15.113C26.2232 15.113 26.1537 15.1204 26.0716 15.1251C26.0716 20.3876 26.0716 25.6315 26.0716 30.9061ZM17.0021 28.9452C16.9049 28.4204 16.7745 27.912 16.5992 27.4133C15.9128 25.4624 15.2315 23.5095 14.5482 21.5574C13.8176 19.4701 13.087 17.3831 12.3562 15.296C12.2907 15.1089 12.2897 15.1075 12.0945 15.1073C11.5343 15.1064 10.9741 15.1065 10.4136 15.1075C10.3524 15.1077 10.2914 15.1159 10.2077 15.122C10.2413 15.229 10.2632 15.3091 10.2914 15.387C11.4779 18.6582 12.6651 21.9293 13.8521 25.2004C14.5177 27.0346 15.1836 28.8688 15.8496 30.703C15.9232 30.9058 15.9241 30.906 16.1391 30.9061C16.6602 30.9065 17.1815 30.9081 17.7026 30.9058C18.0563 30.9042 17.9892 30.9498 18.1107 30.6201C19.5419 26.7385 20.9711 22.8564 22.4012 18.9744C22.8464 17.7658 23.2926 16.5575 23.737 15.3486C23.7626 15.279 23.8097 15.211 23.7738 15.1091C23.1251 15.1091 22.4757 15.1091 21.8091 15.1091C21.7848 15.1715 21.7549 15.2426 21.7291 15.3152C21.1925 16.8158 20.6555 18.3162 20.1204 19.8174C19.299 22.1209 18.4778 24.4244 17.6594 26.7289C17.455 27.3046 17.2224 27.8717 17.0964 28.4728C17.0636 28.6298 17.0334 28.7876 17.0021 28.9452Z" fill="url(#paint0_linear_16_52)"/>
<path d="M26.0715 30.9061C26.0715 25.6315 26.0715 20.3875 26.0715 15.1251C26.1537 15.1204 26.2233 15.1129 26.2928 15.1129C27.8103 15.1108 29.328 15.1033 30.8456 15.1104C31.8698 15.1153 32.8118 15.4092 33.6449 16.0072C34.5545 16.6599 34.9927 17.5627 35.0123 18.6797C35.0443 20.5123 33.8959 21.9026 32.4333 22.4247C32.3977 22.4374 32.3635 22.4539 32.3291 22.4981C32.4656 22.5217 32.6029 22.5407 32.7383 22.5698C34.0894 22.8604 35.352 23.7666 35.6842 25.4038C36.0646 27.2793 35.4131 29.047 33.6968 30.0916C32.9908 30.5214 32.2305 30.7887 31.407 30.8685C31.1742 30.891 30.9397 30.9041 30.7061 30.9047C29.2537 30.9078 27.8011 30.9061 26.3487 30.9061C26.265 30.9061 26.1815 30.9061 26.0715 30.9061ZM27.9779 29.172C28.0675 29.1781 28.1432 29.1868 28.2191 29.1876C29.0203 29.1941 29.8214 29.2025 30.6226 29.2037C31.3416 29.2048 32.0106 29.0216 32.6284 28.6481C33.1162 28.3532 33.4486 27.9336 33.6563 27.4092C33.8406 26.9438 33.8629 26.4619 33.8138 25.9688C33.724 25.0661 33.2893 24.4038 32.4699 24.0041C32.3301 23.9359 32.1834 23.88 32.0359 23.8297C31.4946 23.6455 30.9324 23.5761 30.365 23.5651C29.6291 23.5509 28.8928 23.5579 28.1567 23.5567C28.0998 23.5567 28.0427 23.5636 27.9779 23.5677C27.9779 25.4371 27.9779 27.2953 27.9779 29.172ZM27.9732 21.8666C28.0493 21.8666 28.1012 21.8666 28.1528 21.8666C28.7846 21.867 29.4165 21.8694 30.0481 21.8674C30.7302 21.8653 31.3542 21.6658 31.9296 21.3043C32.3698 21.0276 32.6735 20.6388 32.869 20.1623C33.0564 19.7053 33.0843 19.2305 33.0327 18.7432C32.947 17.9362 32.5358 17.3785 31.7855 17.0699C31.3712 16.8996 30.9358 16.8138 30.4923 16.8058C29.685 16.7913 28.8772 16.8026 28.0697 16.804C28.0394 16.804 28.009 16.8144 27.9732 16.8208C27.9732 18.5017 27.9732 20.1719 27.9732 21.8666Z" fill="white"/>
<path d="M17.0023 28.9452C17.0336 28.7876 17.0637 28.6298 17.0967 28.4726C17.2227 27.8715 17.4553 27.3044 17.6597 26.7287C18.4781 24.4242 19.2995 22.1207 20.1207 19.8172C20.6559 18.316 21.1928 16.8156 21.7294 15.315C21.7554 15.2425 21.7851 15.1713 21.8094 15.1089C22.476 15.1089 23.1254 15.1089 23.7741 15.1089C23.8099 15.211 23.7627 15.2788 23.7373 15.3484C23.2927 16.5573 22.8467 17.7656 22.4015 18.9742C20.9716 22.8562 19.5422 26.7383 18.111 30.6199C17.9895 30.9496 18.0566 30.9038 17.7029 30.9056C17.1818 30.9079 16.6605 30.9065 16.1394 30.906C15.9245 30.9058 15.9237 30.9056 15.8499 30.7028C15.1839 28.8686 14.518 27.0344 13.8524 25.2002C12.6652 21.9293 11.4781 18.6582 10.2915 15.387C10.2633 15.3091 10.2414 15.229 10.2078 15.122C10.2915 15.1159 10.3527 15.1075 10.4137 15.1075C10.974 15.1066 11.5342 15.1064 12.0946 15.1073C12.2898 15.1077 12.2908 15.1089 12.3563 15.296C13.0871 17.3831 13.8177 19.4703 14.5483 21.5574C15.2316 23.5095 15.9129 25.4622 16.5993 27.4133C16.7746 27.912 16.905 28.4204 17.0023 28.9452Z" fill="white"/>
<path d="M27.978 29.1719C27.978 27.2952 27.978 25.437 27.978 23.5676C28.043 23.5635 28.0999 23.5566 28.1568 23.5566C28.8929 23.5578 29.6292 23.5508 30.365 23.565C30.9323 23.576 31.4945 23.6454 32.0359 23.8296C32.1834 23.8799 32.3301 23.9358 32.47 24.004C33.2894 24.4037 33.7239 25.066 33.8138 25.9687C33.8629 26.4618 33.8406 26.9437 33.6564 27.4091C33.4486 27.9335 33.1163 28.3529 32.6284 28.648C32.0107 29.0213 31.3417 29.2047 30.6227 29.2036C29.8214 29.2024 29.0204 29.194 28.2192 29.1875C28.1433 29.1867 28.0676 29.1779 27.978 29.1719Z" fill="#004D8B"/>
<path d="M27.9734 21.8666C27.9734 20.1718 27.9734 18.5017 27.9734 16.821C28.0092 16.8145 28.0395 16.8044 28.0698 16.8042C28.8775 16.8026 29.6852 16.7914 30.4924 16.8059C30.9359 16.8137 31.3713 16.8998 31.7856 17.0701C32.536 17.3787 32.9472 17.9362 33.0328 18.7434C33.0845 19.2307 33.0565 19.7054 32.8691 20.1624C32.6737 20.639 32.3701 21.0275 31.9298 21.3044C31.3545 21.666 30.7305 21.8654 30.0482 21.8676C29.4164 21.8695 28.7848 21.8672 28.153 21.8668C28.1013 21.8664 28.0495 21.8666 27.9734 21.8666Z" fill="#004D8B"/>
<defs>
<linearGradient id="paint0_linear_16_52" x1="42.9998" y1="3.48149" x2="3" y2="42.5184" gradientUnits="userSpaceOnUse">
<stop offset="0.5" stop-color="#004E8C"/>
<stop offset="0.5" stop-color="#195F97"/>
</linearGradient>
</defs>
</svg>
