<svg width="50" height="50" viewBox="0 0 50 50" fill="none" xmlns="http://www.w3.org/2000/svg">
<path d="M47.4015 10.7045L45.2727 10.1818C45.071 9.33026 44.7333 8.5168 44.2727 7.77271L45.4091 5.89392C45.553 5.6515 45.5151 5.34089 45.3182 5.14392L44.2424 4.06817C44.1451 3.97211 44.0187 3.91107 43.8829 3.89461C43.7472 3.87816 43.6098 3.90723 43.4924 3.97726L41.6136 5.11362C40.8788 4.65908 40.0682 4.31817 39.2045 4.11362L38.6818 1.98483C38.6482 1.85128 38.5712 1.73267 38.4629 1.64765C38.3545 1.56263 38.221 1.51602 38.0833 1.51514H36.5606C36.2803 1.51514 36.0303 1.70453 35.9697 1.97726L35.4469 4.10605C34.5833 4.31059 33.7727 4.6515 33.0379 5.10605L31.1591 3.96968C31.0416 3.89965 30.9043 3.87058 30.7685 3.88704C30.6328 3.90349 30.5064 3.96453 30.4091 4.06059L29.3182 5.14392C29.1212 5.34089 29.0833 5.6515 29.2273 5.89392L30.3636 7.77271C29.9091 8.50756 29.5682 9.31817 29.3636 10.1818L27.2348 10.7045C26.9621 10.7727 26.7727 11.0151 26.7727 11.2954V12.8182C26.7727 13.0985 26.9621 13.3485 27.2348 13.4091L29.3636 13.9318C29.5682 14.7954 29.9091 15.606 30.3636 16.3333L29.2273 18.2121C29.0833 18.4545 29.1212 18.7651 29.3182 18.9621L30.3939 20.0379C30.5909 20.2348 30.9015 20.2727 31.1439 20.1288L33.0227 18.9924C33.7576 19.447 34.5682 19.7879 35.4318 19.9924L35.9545 22.1212C36.0227 22.3939 36.2651 22.5833 36.5454 22.5833H38.0682C38.3485 22.5833 38.5985 22.3939 38.6591 22.1212L39.1818 19.9924C40.0454 19.7879 40.856 19.447 41.5909 18.9924L43.4697 20.1288C43.7121 20.2727 44.0227 20.2348 44.2197 20.0379L45.2954 18.9621C45.4924 18.7651 45.5303 18.4545 45.3863 18.2121L44.25 16.3333C44.7045 15.5985 45.0454 14.7879 45.25 13.9318L47.3788 13.4091C47.6515 13.3409 47.8409 13.0985 47.8409 12.8182V11.2954C47.8504 11.1607 47.8112 11.027 47.7306 10.9186C47.65 10.8102 47.5333 10.7343 47.4015 10.7045ZM37.3182 16.4773C36.7382 16.4773 36.1638 16.363 35.628 16.1411C35.0921 15.9191 34.6052 15.5938 34.1951 15.1836C33.785 14.7735 33.4597 14.2866 33.2377 13.7508C33.0157 13.2149 32.9015 12.6406 32.9015 12.0606C32.9015 11.4806 33.0157 10.9063 33.2377 10.3704C33.4597 9.83455 33.785 9.34766 34.1951 8.93754C34.6052 8.52741 35.0921 8.20208 35.628 7.98012C36.1638 7.75816 36.7382 7.64392 37.3182 7.64392C38.4895 7.64392 39.6129 8.10925 40.4412 8.93754C41.2695 9.76582 41.7348 10.8892 41.7348 12.0606C41.7348 13.232 41.2695 14.3554 40.4412 15.1836C39.6129 16.0119 38.4895 16.4773 37.3182 16.4773Z" fill="#FF4823"/>
<path d="M38.9167 15.0152C38.9167 14.1743 38.2348 13.4924 37.3939 13.4924H3.02273C2.18182 13.4924 1.5 14.1743 1.5 15.0152V35.75H38.9167V15.0152Z" fill="#009AFF"/>
<path opacity="0.35" d="M37.3939 13.4924H16.5757C16.5757 15.1667 17.9317 16.5227 19.606 16.5227H35.8863V20.5833C35.8863 22.2576 37.2423 23.6136 38.9166 23.6136V15.0152C38.9166 14.1743 38.2348 13.4924 37.3939 13.4924Z" fill="white"/>
<path d="M1.5 35.75V40.7576C1.5 41.5985 2.18182 42.2803 3.02273 42.2803H37.3939C38.2348 42.2803 38.9167 41.5985 38.9167 40.7576V35.75H1.5Z" fill="#E6E9EE"/>
<path opacity="0.1" d="M30.2803 37.7802C16.8333 37.7802 5.93939 26.8787 5.93939 13.4393H3.02273C2.18182 13.4393 1.5 14.1211 1.5 14.9621V40.6969C1.5 41.5378 2.18182 42.2196 3.02273 42.2196H37.3864C38.2273 42.2196 38.9091 41.5378 38.9091 40.6969V37.7802H30.2803Z" fill="black"/>
<path d="M14.6365 42.2803H25.7804V45.4394H14.6365V42.2803Z" fill="#AAB2BD"/>
<path d="M28.9091 45.4393H11.5152C10.6743 45.4393 9.99243 46.1212 9.99243 46.9621V48.4848H30.4318V46.9621C30.4318 46.1212 29.75 45.4393 28.9091 45.4393Z" fill="#E6E9EE"/>
<path d="M46.9016 22.3334H24.6516C23.8107 22.3334 23.1289 23.0152 23.1289 23.8561V27.3561H48.4319V23.8561C48.4289 23.4519 48.2665 23.0651 47.98 22.78C47.6934 22.4949 47.3059 22.3344 46.9016 22.3334Z" fill="#FEC200"/>
<path opacity="0.1" d="M28.2198 25.6516C26.3864 25.6516 24.9016 24.1667 24.9016 22.3334H24.7122C23.8713 22.3334 23.1895 23.0152 23.1895 23.8561V27.3561H48.4925V25.644H28.2198V25.6516Z" fill="black"/>
<path d="M7.89388 26.3031C7.69691 26.3031 7.50752 26.2273 7.356 26.0834L4.78024 23.5076C4.6363 23.3637 4.56055 23.1743 4.56055 22.9697C4.56055 22.7652 4.64388 22.5758 4.78024 22.4319L7.356 19.8561C7.42614 19.786 7.5094 19.7303 7.60104 19.6924C7.69268 19.6544 7.7909 19.6349 7.89009 19.6349C7.98928 19.6349 8.0875 19.6544 8.17914 19.6924C8.27078 19.7303 8.35405 19.786 8.42418 19.8561C8.49432 19.9262 8.54996 20.0095 8.58792 20.1011C8.62587 20.1928 8.64541 20.291 8.64541 20.3902C8.64541 20.4894 8.62587 20.5876 8.58792 20.6792C8.54996 20.7709 8.49432 20.8541 8.42418 20.9243L6.37873 22.9697L8.42418 25.0152C8.71964 25.3106 8.71964 25.7879 8.42418 26.0834C8.35532 26.154 8.27279 26.21 8.18162 26.2477C8.09046 26.2855 7.99255 26.3043 7.89388 26.3031ZM15.6818 26.3031C15.4848 26.3031 15.2954 26.2273 15.1439 26.0834C15.0736 26.0133 15.0179 25.93 14.9799 25.8384C14.9419 25.7467 14.9223 25.6485 14.9223 25.5493C14.9223 25.4501 14.9419 25.3518 14.9799 25.2602C15.0179 25.1685 15.0736 25.0853 15.1439 25.0152L17.1893 22.9697L15.1439 20.9243C15.0737 20.8541 15.0181 20.7709 14.9801 20.6792C14.9422 20.5876 14.9227 20.4894 14.9227 20.3902C14.9227 20.291 14.9422 20.1928 14.9801 20.1011C15.0181 20.0095 15.0737 19.9262 15.1439 19.8561C15.214 19.786 15.2973 19.7303 15.3889 19.6924C15.4806 19.6544 15.5788 19.6349 15.678 19.6349C15.7772 19.6349 15.8754 19.6544 15.967 19.6924C16.0587 19.7303 16.1419 19.786 16.2121 19.8561L18.7878 22.4319C18.9318 22.5758 19.0075 22.7652 19.0075 22.9697C19.0075 23.1743 18.9242 23.3637 18.7878 23.5076L16.2121 26.0834C16.0681 26.2349 15.8787 26.3031 15.6818 26.3031ZM9.49994 28.6364C9.37278 28.6366 9.24763 28.6047 9.13616 28.5435C9.02469 28.4823 8.93052 28.3939 8.86245 28.2865C8.79438 28.1791 8.75461 28.0562 8.74686 27.9293C8.73911 27.8023 8.76363 27.6755 8.81812 27.5606L13.3939 17.75C13.5681 17.3712 14.0227 17.2046 14.4015 17.3864C14.7802 17.5606 14.9469 18.0152 14.7651 18.394L10.1893 28.2046C10.0605 28.4697 9.78782 28.6364 9.49994 28.6364Z" fill="white"/>
<path d="M23.1289 27.3636V46.9621C23.1289 47.803 23.8107 48.4849 24.6516 48.4849H46.9092C47.7501 48.4849 48.4319 47.803 48.4319 46.9621V27.3636H23.1289Z" fill="#5D5B68"/>
<path d="M44.6213 30.4091H26.9319C26.5152 30.4091 26.1743 30.75 26.1743 31.1666V38.1969C26.1743 38.6136 26.5152 38.9545 26.9319 38.9545H44.6213C45.038 38.9545 45.3789 38.6136 45.3789 38.1969V31.1666C45.3789 30.7424 45.0455 30.4091 44.6213 30.4091Z" fill="#FF4823"/>
<path opacity="0.1" d="M45.3789 38.1969V38.1288L37.6364 34.6818L45.3789 31.2348V31.1591C45.3789 30.7424 45.038 30.4015 44.6213 30.4015H43.5152L35.7728 33.8485L28.0304 30.4015H26.9243C26.5077 30.4015 26.1667 30.7424 26.1667 31.1591V31.2348L33.9092 34.6818L26.1667 38.1288V38.1969C26.1667 38.6136 26.5077 38.9545 26.9243 38.9545H28.0304L35.7728 35.5075L43.5152 38.9545H44.6213C45.0455 38.9545 45.3789 38.6136 45.3789 38.1969Z" fill="black"/>
<path d="M26.3787 25.6137C26.8013 25.6137 27.1438 25.2711 27.1438 24.8485C27.1438 24.4259 26.8013 24.0834 26.3787 24.0834C25.9561 24.0834 25.6135 24.4259 25.6135 24.8485C25.6135 25.2711 25.9561 25.6137 26.3787 25.6137Z" fill="white"/>
<path d="M29.1211 25.6137C29.5437 25.6137 29.8863 25.2711 29.8863 24.8485C29.8863 24.4259 29.5437 24.0834 29.1211 24.0834C28.6985 24.0834 28.356 24.4259 28.356 24.8485C28.356 25.2711 28.6985 25.6137 29.1211 25.6137Z" fill="white"/>
<path d="M31.8635 25.6137C32.2861 25.6137 32.6287 25.2711 32.6287 24.8485C32.6287 24.4259 32.2861 24.0834 31.8635 24.0834C31.441 24.0834 31.0984 24.4259 31.0984 24.8485C31.0984 25.2711 31.441 25.6137 31.8635 25.6137Z" fill="white"/>
<path d="M33.4698 42.9545H26.1668C25.7501 42.9545 25.4092 42.6136 25.4092 42.1969C25.4092 41.7802 25.7501 41.4393 26.1668 41.4393H33.4698C33.8865 41.4393 34.2274 41.7802 34.2274 42.1969C34.2274 42.6136 33.8865 42.9545 33.4698 42.9545ZM29.6592 46.3181H26.1668C25.7501 46.3181 25.4092 45.9772 25.4092 45.5605C25.4092 45.1439 25.7501 44.803 26.1668 44.803H29.6592C30.0758 44.803 30.4168 45.1439 30.4168 45.5605C30.4168 45.9772 30.0758 46.3181 29.6592 46.3181ZM45.3789 43.0757H38.0758C37.6592 43.0757 37.3183 42.7348 37.3183 42.3181C37.3183 41.9015 37.6592 41.5605 38.0758 41.5605H45.3789C45.7955 41.5605 46.1365 41.9015 46.1365 42.3181C46.1365 42.7348 45.8031 43.0757 45.3789 43.0757ZM41.5683 46.3181H38.0758C37.6592 46.3181 37.3183 45.9772 37.3183 45.5605C37.3183 45.1439 37.6592 44.803 38.0758 44.803H41.5683C41.9849 44.803 42.3258 45.1439 42.3258 45.5605C42.3258 45.9772 41.9925 46.3181 41.5683 46.3181Z" fill="white"/>
<path d="M20.2122 39.7803C20.6348 39.7803 20.9773 39.4377 20.9773 39.0152C20.9773 38.5926 20.6348 38.25 20.2122 38.25C19.7896 38.25 19.447 38.5926 19.447 39.0152C19.447 39.4377 19.7896 39.7803 20.2122 39.7803Z" fill="#009AFF"/>
<path opacity="0.1" d="M44.2499 44.5076C34.7802 44.5076 27.0984 36.8258 27.0984 27.3561H23.1211V46.9546C23.1211 47.7955 23.8029 48.4773 24.6438 48.4773H46.9014C47.7423 48.4773 48.4241 47.7955 48.4241 46.9546V44.5H44.2499V44.5076Z" fill="black"/>
</svg>
