<svg width="45" height="45" viewBox="0 0 45 45" fill="none" xmlns="http://www.w3.org/2000/svg">
<path d="M40.8478 33.5001C41.1406 32.9928 41.3227 32.4212 41.3227 31.908V14.0921C41.3227 13.5788 41.141 13.0074 40.848 12.5001L28.7551 13.5896L20.436 23.0001L27.047 32.4285L40.8478 33.5001Z" fill="#00599C"/>
<path d="M24.2774 43.615L39.7066 34.7071C40.151 34.4505 40.555 34.0074 40.8479 33.4999L22.6614 23L10.6925 23.423L4.47485 33.5001C4.76766 34.0074 5.1718 34.4506 5.61614 34.7071L21.0452 43.615C21.9341 44.1283 23.3887 44.1283 24.2774 43.615Z" fill="#004482"/>
<path d="M40.8479 12.4999C40.5549 11.9925 40.1508 11.5494 39.7065 11.2928L24.2773 2.38494C23.3886 1.87169 21.934 1.87169 21.0451 2.38494L5.61606 11.2929C4.72714 11.8059 4 13.0657 4 14.092V31.908C4 32.4212 4.18189 32.9928 4.47486 33.5001L22.6614 23L40.8479 12.4999Z" fill="#659AD2"/>
<path d="M20.1821 33C14.5677 33 10 28.514 10 23C10 17.486 14.5677 13 20.1821 13C23.8049 13 27.1836 14.9147 28.9997 17.9969L24.5931 20.5012C23.6843 18.9585 21.9939 18 20.1821 18C17.3749 18 15.0911 20.243 15.0911 23C15.0911 25.757 17.3748 28 20.1821 28C21.9941 28 23.6845 27.0415 24.5935 25.4985L29 28.0027C27.1839 31.0852 23.8051 33 20.1821 33Z" fill="white"/>
<path d="M35.1023 22.3089H33.7199V20.9266H32.3377V22.3089H30.9553V23.6912H32.3377V25.0736H33.7199V23.6912H35.1023V22.3089ZM40.2859 22.3089H38.9035V20.9266H37.5214V22.3089H36.139V23.6912H37.5214V25.0736H38.9035V23.6912H40.2859V22.3089Z" fill="white"/>
</svg>
