<svg width="45" height="45" viewBox="0 0 45 45" fill="none" xmlns="http://www.w3.org/2000/svg">
<path d="M22.6156 3.37532C21.0097 3.38278 19.4761 3.51975 18.1267 3.75854C14.1516 4.46083 13.4299 5.9307 13.4299 8.64149V12.2216H22.8235V13.4149H9.90453C7.1745 13.4149 4.78393 15.0558 4.03627 18.1775C3.17379 21.7555 3.13557 23.9884 4.03627 27.7244C4.70403 30.5054 6.29864 32.4869 9.02866 32.4869H12.2584V28.1951C12.2584 25.0945 14.9411 22.3597 18.1267 22.3597H27.5094C30.1213 22.3597 32.2062 20.2092 32.2062 17.5862V8.64149C32.2062 6.09581 30.0586 4.18343 27.5094 3.75854C25.8958 3.48991 24.2214 3.36786 22.6156 3.37532ZM17.5355 6.25477C18.5058 6.25477 19.2982 7.06011 19.2982 8.05025C19.2982 9.03694 18.5058 9.83482 17.5355 9.83482C16.5617 9.83482 15.7729 9.03694 15.7729 8.05025C15.7729 7.06004 16.5617 6.25477 17.5355 6.25477Z" fill="url(#paint0_linear_11_1940)"/>
<path d="M33.3777 13.4149V17.5862C33.3777 20.8202 30.636 23.5421 27.5095 23.5421H18.1268C15.5567 23.5421 13.4299 25.7417 13.4299 28.3155V37.2603C13.4299 39.806 15.6436 41.3034 18.1268 42.0337C21.1003 42.908 23.9517 43.0661 27.5095 42.0337C29.8744 41.349 32.2063 39.9711 32.2063 37.2603V33.6801H22.8236V32.4867H36.9031C39.6331 32.4867 40.6505 30.5825 41.6 27.7243C42.5807 24.7818 42.539 21.9521 41.6 18.1773C40.9253 15.4595 39.6367 13.4148 36.9031 13.4148H33.3777V13.4149ZM28.1007 36.0669C29.0745 36.0669 29.8634 36.8648 29.8634 37.8515C29.8634 38.8417 29.0745 39.6471 28.1007 39.6471C27.1304 39.6471 26.3381 38.8417 26.3381 37.8515C26.338 36.8648 27.1303 36.0669 28.1007 36.0669Z" fill="url(#paint1_linear_11_1940)"/>
<defs>
<linearGradient id="paint0_linear_11_1940" x1="2.45435" y1="4.49477" x2="24.1199" y2="22.971" gradientUnits="userSpaceOnUse">
<stop stop-color="#5A9FD4"/>
<stop offset="1" stop-color="#306998"/>
</linearGradient>
<linearGradient id="paint1_linear_11_1940" x1="32.2717" y1="34.456" x2="24.5022" y2="23.5603" gradientUnits="userSpaceOnUse">
<stop stop-color="#FFD43B"/>
<stop offset="1" stop-color="#FFE873"/>
</linearGradient>
</defs>
</svg>
