<svg width="45" height="45" viewBox="0 0 45 45" fill="none" xmlns="http://www.w3.org/2000/svg">
<g clip-path="url(#clip0_11_2024)">
<path d="M0 22.5C0 29.0367 10.0738 34.3358 22.4999 34.3358C34.9261 34.3358 45 29.0367 45 22.5C45 15.9634 34.9261 10.6641 22.4999 10.6641C10.0738 10.6642 0 15.9634 0 22.5Z" fill="url(#paint0_radial_11_2024)"/>
<path d="M22.4999 33.4571C34.4408 33.4571 44.121 28.5513 44.121 22.4999C44.121 16.4487 34.4408 11.5428 22.4999 11.5428C10.559 11.5428 0.878906 16.4487 0.878906 22.4999C0.878906 28.5514 10.5591 33.4571 22.4999 33.4571Z" fill="#777BB3"/>
<path d="M12.2243 23.8585C13.2061 23.8585 13.9391 23.6775 14.4029 23.3205C14.8617 22.9672 15.1786 22.3551 15.3447 21.5014C15.4996 20.7034 15.4406 20.1462 15.1693 19.8456C14.892 19.5385 14.2927 19.3827 13.3877 19.3827H11.8185L10.9487 23.8586H12.2243V23.8585ZM7.0923 29.3719C7.05628 29.3719 7.0207 29.364 6.98811 29.3487C6.95553 29.3333 6.92675 29.3109 6.90384 29.2832C6.88093 29.2554 6.86446 29.2228 6.85561 29.1879C6.84677 29.153 6.84577 29.1166 6.85268 29.0812L9.1581 17.22C9.16894 17.1644 9.19878 17.1143 9.24251 17.0782C9.28624 17.0422 9.34114 17.0225 9.3978 17.0225H14.3664C15.9278 17.0225 17.0902 17.4465 17.8207 18.2828C18.5552 19.1236 18.7819 20.2988 18.4947 21.7758C18.3779 22.3774 18.1769 22.9363 17.8974 23.4367C17.6176 23.9376 17.2476 24.401 16.7979 24.8145C16.2593 25.3183 15.65 25.6838 14.9883 25.8988C14.337 26.1109 13.5006 26.2185 12.5023 26.2185H10.4904L9.91575 29.1743C9.90495 29.23 9.87513 29.2801 9.83141 29.3161C9.78769 29.3522 9.7328 29.3719 9.67614 29.3719H7.0923Z" fill="black"/>
<path d="M12.0201 19.6267H13.3879C14.4801 19.6267 14.8595 19.8664 14.9885 20.0091C15.2024 20.2463 15.2427 20.7463 15.1053 21.4551C14.9509 22.2484 14.6645 22.8111 14.2542 23.127C13.8342 23.4504 13.1512 23.6142 12.2245 23.6142H11.2451L12.0201 19.6267ZM14.3663 16.7783H9.39766C9.28434 16.7783 9.17455 16.8177 9.08711 16.8898C8.99968 16.9619 8.94004 17.0622 8.91843 17.1734L6.61319 29.0347C6.59947 29.1054 6.60156 29.1783 6.61929 29.248C6.63703 29.3178 6.66998 29.3828 6.71577 29.4384C6.76157 29.4939 6.81909 29.5386 6.8842 29.5694C6.94932 29.6001 7.02042 29.616 7.09242 29.616H9.67617C9.78952 29.6161 9.89934 29.5766 9.98681 29.5046C10.0743 29.4325 10.1339 29.3322 10.1556 29.2209L10.6917 26.4626H12.5024C13.5263 26.4626 14.3882 26.3509 15.0641 26.1309C15.7592 25.9051 16.3987 25.5222 16.9647 24.9928C17.4328 24.5622 17.8183 24.0788 18.1105 23.5558C18.4027 23.0328 18.6127 22.4495 18.7344 21.8223C19.0368 20.2676 18.7912 19.0228 18.0045 18.1223C17.2256 17.2305 16.0014 16.7783 14.3663 16.7783ZM10.6528 24.1025H12.2245C13.2663 24.1025 14.0421 23.9063 14.552 23.5138C15.0619 23.1213 15.4058 22.4661 15.5845 21.548C15.7554 20.6665 15.6775 20.0445 15.3509 19.682C15.0237 19.3196 14.3695 19.1384 13.3879 19.1384H11.6175L10.6528 24.1025ZM14.3663 17.2666C15.861 17.2666 16.9515 17.6589 17.6368 18.4435C18.3221 19.2281 18.5285 20.3232 18.2551 21.7292C18.1426 22.3084 17.9522 22.8379 17.6842 23.3176C17.4159 23.7976 17.0656 24.2366 16.6326 24.6347C16.1166 25.1176 15.5436 25.4616 14.9128 25.6666C14.2822 25.8721 13.4789 25.9743 12.5024 25.9743H10.2891L9.67617 29.1277H7.09242L9.39766 17.2667L14.3663 17.2666Z" fill="white"/>
<path d="M24.4191 26.2184C24.3831 26.2184 24.3475 26.2105 24.3149 26.1951C24.2823 26.1798 24.2535 26.1574 24.2306 26.1296C24.2077 26.1018 24.1912 26.0693 24.1824 26.0344C24.1735 25.9995 24.1725 25.963 24.1794 25.9277L25.1992 20.6796C25.2962 20.1805 25.2723 19.8223 25.1318 19.6709C25.046 19.5784 24.7878 19.4232 24.0246 19.4232H22.1771L20.895 26.0209C20.8842 26.0765 20.8543 26.1266 20.8106 26.1627C20.7669 26.1987 20.712 26.2184 20.6553 26.2184H18.0919C18.0558 26.2184 18.0203 26.2105 17.9877 26.1951C17.9551 26.1798 17.9263 26.1574 17.9034 26.1296C17.8805 26.1018 17.864 26.0693 17.8552 26.0344C17.8463 25.9995 17.8453 25.963 17.8522 25.9277L20.1574 14.0664C20.1682 14.0108 20.1981 13.9607 20.2418 13.9247C20.2855 13.8886 20.3404 13.8689 20.3971 13.8689H22.9605C22.9966 13.8689 23.0321 13.8768 23.0647 13.8921C23.0973 13.9075 23.1261 13.9299 23.149 13.9577C23.172 13.9855 23.1884 14.018 23.1973 14.0529C23.2061 14.0878 23.2071 14.1243 23.2002 14.1596L22.6439 17.0223H24.6314C26.1455 17.0223 27.1722 17.2893 27.7702 17.8384C28.3797 18.3986 28.5698 19.2944 28.3355 20.5011L27.2629 26.0206C27.252 26.0762 27.2222 26.1263 27.1785 26.1624C27.1348 26.1984 27.0799 26.2181 27.0232 26.2182H24.4191V26.2184Z" fill="black"/>
<path d="M22.9606 13.6249H20.3971C20.2838 13.6249 20.174 13.6643 20.0865 13.7364C19.9991 13.8085 19.9394 13.9087 19.9178 14.02L17.6125 25.8813C17.5987 25.952 17.6008 26.0248 17.6186 26.0946C17.6363 26.1644 17.6693 26.2295 17.7151 26.285C17.7609 26.3406 17.8184 26.3853 17.8836 26.416C17.9487 26.4467 18.0199 26.4626 18.0919 26.4626H20.6552C20.7686 26.4626 20.8784 26.4232 20.9658 26.3511C21.0533 26.279 21.113 26.1788 21.1346 26.0675L22.3784 19.6674H24.0246C24.7865 19.6674 24.9465 19.8302 24.9528 19.8372C24.999 19.8869 25.0599 20.1172 24.9596 20.6331L23.9397 25.8812C23.926 25.9519 23.928 26.0248 23.9458 26.0946C23.9635 26.1644 23.9965 26.2294 24.0423 26.2849C24.0881 26.3405 24.1457 26.3852 24.2108 26.4159C24.2759 26.4466 24.3471 26.4625 24.4191 26.4625H27.0233C27.1366 26.4625 27.2464 26.4231 27.3339 26.351C27.4213 26.2789 27.481 26.1787 27.5027 26.0674L28.5751 20.5478C28.8267 19.2522 28.6115 18.2802 27.9353 17.6587C27.2902 17.0662 26.2094 16.7782 24.6314 16.7782H22.94L23.4399 14.2062C23.4536 14.1355 23.4515 14.0627 23.4338 13.9929C23.4161 13.9231 23.3832 13.8581 23.3374 13.8025C23.2916 13.747 23.234 13.7023 23.1689 13.6715C23.1037 13.6408 23.0326 13.6249 22.9606 13.6249ZM22.9606 14.1132L22.3477 17.2666H24.6314C26.0684 17.2666 27.0594 17.5174 27.6049 18.0185C28.1504 18.5197 28.3138 19.332 28.0958 20.4548L27.0233 25.9743H24.4191L25.4389 20.7263C25.555 20.1292 25.5123 19.7221 25.3109 19.5049C25.1093 19.2878 24.6804 19.1791 24.0247 19.1791H21.9759L20.6554 25.9743H18.092L20.3972 14.1132H22.9606Z" fill="white"/>
<path d="M32.3917 23.8584C33.3735 23.8584 34.1065 23.6774 34.5702 23.3204C35.0291 22.9673 35.3459 22.3553 35.5122 21.5014C35.667 20.7033 35.6081 20.1461 35.3368 19.8455C35.0595 19.5384 34.4602 19.3827 33.5552 19.3827H31.9861L31.1163 23.8586H32.3917V23.8584ZM27.2596 29.3719C27.2236 29.3719 27.188 29.3639 27.1554 29.3486C27.1228 29.3332 27.094 29.3108 27.0711 29.283C27.0482 29.2552 27.0317 29.2227 27.0229 29.1878C27.014 29.1529 27.013 29.1165 27.0199 29.0811L29.3252 17.2199C29.3361 17.1643 29.3659 17.1141 29.4097 17.0781C29.4534 17.042 29.5083 17.0223 29.565 17.0223H34.5335C36.0951 17.0223 37.2573 17.4464 37.9879 18.2827C38.7224 19.1233 38.949 20.2985 38.662 21.7756C38.545 22.3773 38.344 22.9361 38.0645 23.4365C37.7847 23.9375 37.4147 24.4008 36.965 24.8143C36.4265 25.3182 35.8172 25.6837 35.1554 25.8986C34.5042 26.1108 33.6677 26.2184 32.6694 26.2184H30.6575L30.0832 29.1743C30.0724 29.2299 30.0425 29.2801 29.9988 29.3161C29.955 29.3522 29.9001 29.3719 29.8434 29.3719H27.2596Z" fill="black"/>
<path d="M32.1873 19.6267H33.5551C34.6473 19.6267 35.0267 19.8664 35.1556 20.0091C35.3696 20.2463 35.4099 20.7463 35.2724 21.4549C35.118 22.2484 34.8316 22.8111 34.4214 23.127C34.0013 23.4504 33.3184 23.6142 32.3916 23.6142H31.4124L32.1873 19.6267ZM34.5334 16.7783H29.565C29.4517 16.7783 29.3419 16.8177 29.2544 16.8898C29.167 16.9619 29.1074 17.0622 29.0858 17.1734L26.7804 29.0347C26.7667 29.1054 26.7688 29.1783 26.7865 29.248C26.8043 29.3178 26.8372 29.3828 26.883 29.4384C26.9288 29.4939 26.9863 29.5386 27.0514 29.5694C27.1166 29.6001 27.1877 29.616 27.2597 29.616H29.8435C29.9568 29.616 30.0666 29.5766 30.1541 29.5045C30.2415 29.4324 30.3012 29.3322 30.3228 29.2209L30.8588 26.4626H32.6695C33.6934 26.4626 34.5554 26.3509 35.2313 26.1309C35.9263 25.9051 36.566 25.522 37.132 24.9926C37.6001 24.5621 37.9855 24.0788 38.2777 23.5558C38.57 23.0328 38.78 22.4495 38.9018 21.8223C39.2041 20.2676 38.9585 19.0226 38.1718 18.1222C37.3928 17.2305 36.1688 16.7784 34.5336 16.7784M30.8202 24.1025H32.3918C33.4335 24.1025 34.2094 23.9063 34.7193 23.5138C35.2293 23.1213 35.573 22.4661 35.7518 21.548C35.9228 20.6665 35.8449 20.0445 35.5181 19.682C35.191 19.3196 34.5368 19.1384 33.5552 19.1384H31.7848L30.8202 24.1025ZM34.5336 17.2666C36.0283 17.2666 37.1187 17.6589 37.8041 18.4435C38.4895 19.2281 38.6957 20.3232 38.4224 21.7292C38.3098 22.3084 38.1195 22.8379 37.8514 23.3176C37.5832 23.7976 37.2328 24.2366 36.7999 24.6347C36.284 25.1176 35.7108 25.4616 35.0802 25.6666C34.4494 25.8721 33.6462 25.9743 32.6696 25.9743H30.4564L29.8436 29.1277H27.2598L29.5651 17.2667L34.5336 17.2666Z" fill="white"/>
</g>
<defs>
<radialGradient id="paint0_radial_11_2024" cx="0" cy="0" r="1" gradientUnits="userSpaceOnUse" gradientTransform="translate(13.5168 14.852) scale(36.9396 36.9396)">
<stop stop-color="#AEB2D5"/>
<stop offset="0.3" stop-color="#AEB2D5"/>
<stop offset="0.75" stop-color="#484C89"/>
<stop offset="1" stop-color="#484C89"/>
</radialGradient>
<clipPath id="clip0_11_2024">
<rect width="45" height="45" fill="white"/>
</clipPath>
</defs>
</svg>
