<svg width="45" height="45" viewBox="0 0 45 45" fill="none" xmlns="http://www.w3.org/2000/svg">
<path d="M22.9453 4C12.4823 4 4 11.6049 4 20.9855C4 30.366 12.4823 37.9709 22.9453 37.9709C33.4084 37.9709 41.8906 30.366 41.8906 20.9855C41.8906 11.6049 33.4084 4 22.9453 4ZM24.5785 34.0512C16.4608 34.0512 9.87958 28.64 9.87958 21.9654C9.87958 15.2908 16.4608 9.87958 24.5785 9.87958C32.6963 9.87958 39.2775 15.2908 39.2775 21.9654C39.2775 28.64 32.6963 34.0512 24.5785 34.0512Z" fill="#9E919D"/>
<path d="M24.2518 37.9265V34.0447C21.3545 33.9924 18.6636 33.2542 16.4124 32.0149V36.9335C18.5209 37.6245 20.7263 37.9748 22.9452 37.9709C23.3849 37.9709 23.8193 37.9526 24.2518 37.9265ZM33.1182 31.7993C30.9787 33.0575 28.4132 33.8552 25.6322 34.0172L27.756 37.4169C30.3326 36.812 32.6929 35.7308 34.7188 34.2877C34.1931 33.4532 33.6596 32.6237 33.1182 31.7993Z" fill="#68607C"/>
<path d="M37.9709 41.8907H32.0913L26.3293 32.6663C26.0929 32.2907 25.7652 31.981 25.3768 31.7663C24.9884 31.5515 24.552 31.4386 24.1081 31.4381H22.9453V41.2374C22.9453 41.5967 22.6513 41.8907 22.292 41.8907H18.3723C18.013 41.8907 17.719 41.5967 17.719 41.2374V15.1059C17.719 14.7466 18.013 14.4526 18.3723 14.4526H29.4782C33.4501 14.4526 36.6643 17.6668 36.6643 21.6388V22.9454C36.6643 24.9314 35.8608 26.7279 34.5607 28.0279C33.2607 29.328 31.4641 30.1315 29.4782 30.1315C30.4254 30.7652 31.2616 31.5361 31.9606 32.418C32.222 32.7447 37.9709 41.8907 37.9709 41.8907ZM31.438 22.9454C31.438 22.0438 31.0722 21.2272 30.4842 20.6327C29.8897 20.0448 29.0731 19.6789 28.1716 19.6789H22.9453V26.2118H28.1716C29.9747 26.2118 31.438 24.7484 31.438 22.9454Z" fill="#4E9BB9"/>
</svg>
