<svg width="50" height="50" viewBox="0 0 50 50" fill="none" xmlns="http://www.w3.org/2000/svg">
<path d="M4.1665 36.6667V5.00004C4.16782 4.55842 4.34384 4.13526 4.65612 3.82299C4.96839 3.51071 5.39155 3.33469 5.83317 3.33337H44.1665C44.6081 3.33469 45.0313 3.51071 45.3436 3.82299C45.6558 4.13526 45.8318 4.55842 45.8332 5.00004V36.6667H4.1665Z" fill="#205B75"/>
<path d="M49.1666 43.3333V45.8333C49.1666 46.0543 49.0788 46.2663 48.9225 46.4226C48.7662 46.5789 48.5543 46.6667 48.3333 46.6667H1.66659C1.44557 46.6667 1.23361 46.5789 1.07733 46.4226C0.921049 46.2663 0.833252 46.0543 0.833252 45.8333V43.3333L4.16659 35H45.8333L49.1666 43.3333Z" fill="#CADBEA"/>
<path d="M49.1666 43.3334V45.8334C49.1666 46.0544 49.0788 46.2664 48.9225 46.4226C48.7662 46.5789 48.5543 46.6667 48.3333 46.6667H1.66659C1.44557 46.6667 1.23361 46.5789 1.07733 46.4226C0.921049 46.2664 0.833252 46.0544 0.833252 45.8334V43.3334H49.1666Z" fill="#ABBBCC"/>
<path d="M37.725 6.66675H41.6667C41.8877 6.66675 42.0996 6.75455 42.2559 6.91083C42.4122 7.06711 42.5 7.27907 42.5 7.50008V30.8334C42.5 31.0544 42.4122 31.2664 42.2559 31.4227C42.0996 31.579 41.8877 31.6667 41.6667 31.6667H8.33333C8.11232 31.6667 7.90036 31.579 7.74408 31.4227C7.5878 31.2664 7.5 31.0544 7.5 30.8334V7.50008C7.5 7.27907 7.5878 7.06711 7.74408 6.91083C7.90036 6.75455 8.11232 6.66675 8.33333 6.66675H37.725Z" fill="#114559"/>
<path d="M15.8333 43.3334L17.2908 39.6909C17.3525 39.5363 17.4592 39.4037 17.5971 39.3103C17.7349 39.2168 17.8976 39.1669 18.0641 39.1667H31.9358C32.1023 39.1669 32.2649 39.2168 32.4028 39.3103C32.5406 39.4037 32.6473 39.5363 32.7091 39.6909L34.1666 43.3334H15.8333Z" fill="#E1EAF4"/>
<path d="M12.4998 15.0001C12.6646 15.0001 12.8257 14.9512 12.9627 14.8596C13.0997 14.768 13.2065 14.6379 13.2696 14.4856C13.3326 14.3334 13.3491 14.1659 13.317 14.0042C13.2848 13.8426 13.2055 13.6941 13.089 13.5776L12.0115 12.5001L13.089 11.4226C13.2408 11.2654 13.3248 11.0549 13.3229 10.8364C13.321 10.6179 13.2333 10.4089 13.0788 10.2544C12.9243 10.0999 12.7153 10.0123 12.4968 10.0104C12.2783 10.0085 12.0678 10.0925 11.9107 10.2443L10.244 11.9109C10.0878 12.0672 10 12.2791 10 12.5001C10 12.7211 10.0878 12.933 10.244 13.0893L11.9107 14.7559C12.0669 14.9122 12.2788 15 12.4998 15.0001ZM20.244 14.7559C20.4003 14.9121 20.6122 14.9999 20.8332 14.9999C21.0541 14.9999 21.266 14.9121 21.4223 14.7559L23.089 13.0893C23.2452 12.933 23.333 12.7211 23.333 12.5001C23.333 12.2791 23.2452 12.0672 23.089 11.9109L21.4223 10.2443C21.2652 10.0925 21.0547 10.0085 20.8362 10.0104C20.6177 10.0123 20.4086 10.0999 20.2541 10.2544C20.0996 10.4089 20.012 10.6179 20.0101 10.8364C20.0082 11.0549 20.0922 11.2654 20.244 11.4226L21.3215 12.5001L20.244 13.5776C20.0878 13.7339 20 13.9458 20 14.1668C20 14.3877 20.0878 14.5996 20.244 14.7559ZM15.4607 14.9168C15.5586 14.9657 15.6652 14.9949 15.7744 15.0026C15.8837 15.0104 15.9933 14.9965 16.0972 14.9618C16.201 14.9272 16.2971 14.8724 16.3797 14.8006C16.4624 14.7288 16.5301 14.6414 16.579 14.5434L18.2457 11.2101C18.2946 11.1121 18.3237 11.0055 18.3314 10.8963C18.3391 10.7871 18.3253 10.6774 18.2906 10.5736C18.2559 10.4698 18.2012 10.3738 18.1294 10.2911C18.0576 10.2084 17.9703 10.1407 17.8723 10.0918C17.7744 10.0428 17.6678 10.0137 17.5585 10.006C17.4493 9.99827 17.3397 10.0121 17.2358 10.0468C17.132 10.0815 17.036 10.1363 16.9533 10.208C16.8706 10.2798 16.8029 10.3671 16.754 10.4651L15.0873 13.7984C15.0384 13.8964 15.0092 14.003 15.0014 14.1122C14.9937 14.2214 15.0076 14.3311 15.0422 14.435C15.0769 14.5388 15.1317 14.6348 15.2035 14.7175C15.2753 14.8002 15.3627 14.8679 15.4607 14.9168Z" fill="white"/>
<path d="M14.9999 17.5001C14.9999 17.2791 14.9121 17.0671 14.7558 16.9108C14.5996 16.7545 14.3876 16.6667 14.1666 16.6667H11.6666C11.4456 16.6667 11.2336 16.7545 11.0773 16.9108C10.921 17.0671 10.8333 17.2791 10.8333 17.5001C10.8333 17.7211 10.921 17.9331 11.0773 18.0893C11.2336 18.2456 11.4456 18.3334 11.6666 18.3334H14.1666C14.3876 18.3334 14.5996 18.2456 14.7558 18.0893C14.9121 17.9331 14.9999 17.7211 14.9999 17.5001Z" fill="#E5BB33"/>
<path d="M16.6665 17.5001C16.6665 17.7211 16.7543 17.9331 16.9106 18.0893C17.0669 18.2456 17.2788 18.3334 17.4998 18.3334H24.1665C24.3875 18.3334 24.5995 18.2456 24.7558 18.0893C24.912 17.9331 24.9998 17.7211 24.9998 17.5001C24.9998 17.2791 24.912 17.0671 24.7558 16.9108C24.5995 16.7545 24.3875 16.6667 24.1665 16.6667H17.4998C17.2788 16.6667 17.0669 16.7545 16.9106 16.9108C16.7543 17.0671 16.6665 17.2791 16.6665 17.5001Z" fill="#EB6374"/>
<path d="M20.8333 20.8333C20.8333 20.6123 20.7455 20.4004 20.5893 20.2441C20.433 20.0878 20.221 20 20 20H13.3333C13.1123 20 12.9004 20.0878 12.7441 20.2441C12.5878 20.4004 12.5 20.6123 12.5 20.8333C12.5 21.0543 12.5878 21.2663 12.7441 21.4226C12.9004 21.5789 13.1123 21.6667 13.3333 21.6667H20C20.221 21.6667 20.433 21.5789 20.5893 21.4226C20.7455 21.2663 20.8333 21.0543 20.8333 20.8333ZM13.3333 23.3333C13.1123 23.3333 12.9004 23.4211 12.7441 23.5774C12.5878 23.7337 12.5 23.9457 12.5 24.1667C12.5 24.3877 12.5878 24.5996 12.7441 24.7559C12.9004 24.9122 13.1123 25 13.3333 25H17.5C17.721 25 17.933 24.9122 18.0893 24.7559C18.2455 24.5996 18.3333 24.3877 18.3333 24.1667C18.3333 23.9457 18.2455 23.7337 18.0893 23.5774C17.933 23.4211 17.721 23.3333 17.5 23.3333H13.3333Z" fill="#E5BB33"/>
<path d="M34.1666 25H36.6666C36.8876 25 37.0996 24.9122 37.2558 24.756C37.4121 24.5997 37.4999 24.3877 37.4999 24.1667C37.4999 23.9457 37.4121 23.7337 37.2558 23.5775C37.0996 23.4212 36.8876 23.3334 36.6666 23.3334H34.1666C33.9456 23.3334 33.7336 23.4212 33.5773 23.5775C33.421 23.7337 33.3333 23.9457 33.3333 24.1667C33.3333 24.3877 33.421 24.5997 33.5773 24.756C33.7336 24.9122 33.9456 25 34.1666 25Z" fill="#82ECFF"/>
<path d="M20 24.1667C20 24.3877 20.0878 24.5997 20.2441 24.756C20.4004 24.9122 20.6123 25 20.8333 25H30.8333C31.0543 25 31.2663 24.9122 31.4226 24.756C31.5789 24.5997 31.6667 24.3877 31.6667 24.1667C31.6667 23.9457 31.5789 23.7337 31.4226 23.5775C31.2663 23.4212 31.0543 23.3334 30.8333 23.3334H20.8333C20.6123 23.3334 20.4004 23.4212 20.2441 23.5775C20.0878 23.7337 20 23.9457 20 24.1667Z" fill="#EB6374"/>
<path d="M15 26.6667H13.3333C13.1123 26.6667 12.9004 26.7545 12.7441 26.9108C12.5878 27.0671 12.5 27.2791 12.5 27.5001C12.5 27.7211 12.5878 27.9331 12.7441 28.0893C12.9004 28.2456 13.1123 28.3334 13.3333 28.3334H15C15.221 28.3334 15.433 28.2456 15.5893 28.0893C15.7455 27.9331 15.8333 27.7211 15.8333 27.5001C15.8333 27.2791 15.7455 27.0671 15.5893 26.9108C15.433 26.7545 15.221 26.6667 15 26.6667Z" fill="#E5BB33"/>
<path d="M36.6665 26.6667H27.4998C27.2788 26.6667 27.0669 26.7545 26.9106 26.9108C26.7543 27.0671 26.6665 27.2791 26.6665 27.5001C26.6665 27.7211 26.7543 27.9331 26.9106 28.0893C27.0669 28.2456 27.2788 28.3334 27.4998 28.3334H36.6665C36.8875 28.3334 37.0995 28.2456 37.2558 28.0893C37.412 27.9331 37.4998 27.7211 37.4998 27.5001C37.4998 27.2791 37.412 27.0671 37.2558 26.9108C37.0995 26.7545 36.8875 26.6667 36.6665 26.6667Z" fill="#82ECFF"/>
<path d="M24.1667 26.6667H18.3333C18.1123 26.6667 17.9004 26.7545 17.7441 26.9108C17.5878 27.0671 17.5 27.2791 17.5 27.5001C17.5 27.7211 17.5878 27.9331 17.7441 28.0893C17.9004 28.2456 18.1123 28.3334 18.3333 28.3334H24.1667C24.3877 28.3334 24.5996 28.2456 24.7559 28.0893C24.9122 27.9331 25 27.7211 25 27.5001C25 27.2791 24.9122 27.0671 24.7559 26.9108C24.5996 26.7545 24.3877 26.6667 24.1667 26.6667Z" fill="#EB6374"/>
</svg>
