<svg width="50" height="50" viewBox="0 0 50 50" fill="none" xmlns="http://www.w3.org/2000/svg">
<g clip-path="url(#clip0_18_2450)">
<path d="M38.3334 25C38.3751 32.3641 32.4392 38.3666 25.0751 38.4083C17.7117 38.45 11.7084 32.515 11.6667 25.1508V25C11.6667 24.8491 11.6667 24.6891 11.6759 24.5375C11.7864 21.3713 13.0206 18.348 15.1575 16.0091C17.2944 13.6702 20.1943 12.1686 23.3376 11.7733C23.8889 11.7019 24.4442 11.6663 25.0001 11.6666H25.1426C32.4509 11.745 38.3342 17.6916 38.3334 25Z" fill="#9ED26A"/>
<path d="M29.1667 21.6666H20.8334C19.9129 21.6666 19.1667 22.4128 19.1667 23.3333V30.8333C19.1667 31.7538 19.9129 32.5 20.8334 32.5H29.1667C30.0872 32.5 30.8334 31.7538 30.8334 30.8333V23.3333C30.8334 22.4128 30.0872 21.6666 29.1667 21.6666Z" fill="#E4E8EB"/>
<path d="M24.9999 28.3333C25.9204 28.3333 26.6666 27.5871 26.6666 26.6667C26.6666 25.7462 25.9204 25 24.9999 25C24.0794 25 23.3333 25.7462 23.3333 26.6667C23.3333 27.5871 24.0794 28.3333 24.9999 28.3333Z" fill="#A9B0BB"/>
<path d="M10.8334 3.33339C10.8334 3.61173 10.7859 3.88839 10.6917 4.15006C10.5417 4.58414 10.275 4.96849 9.92086 5.26096C9.56675 5.55342 9.13892 5.74269 8.68431 5.80799C8.22971 5.87329 7.7659 5.8121 7.34378 5.63113C6.92167 5.45017 6.55756 5.15642 6.29142 4.78212C6.02527 4.40783 5.86738 3.96745 5.83506 3.50932C5.80274 3.05119 5.89724 2.593 6.1082 2.18505C6.31916 1.7771 6.63842 1.43514 7.03095 1.1967C7.42348 0.958265 7.8741 0.832564 8.33337 0.833393C8.85331 0.831345 9.36074 0.992764 9.78394 1.29483C10.2071 1.5969 10.5247 2.02434 10.6917 2.51673C10.7859 2.77839 10.8334 3.05506 10.8334 3.33339ZM44.1667 3.33339C44.1637 3.92237 43.9528 4.49136 43.5713 4.94005C43.1897 5.38874 42.662 5.68831 42.0812 5.78595C41.5003 5.88358 40.9037 5.77301 40.3964 5.47373C39.8891 5.17445 39.5038 4.70567 39.3084 4.15006C39.1195 3.622 39.1195 3.04479 39.3084 2.51673C39.5038 1.96111 39.8891 1.49234 40.3964 1.19306C40.9037 0.893774 41.5003 0.783203 42.0812 0.880838C42.662 0.978474 43.1897 1.27805 43.5713 1.72674C43.9528 2.17543 44.1637 2.74442 44.1667 3.33339ZM10.8334 46.6667C10.8334 46.9451 10.7859 47.2217 10.6917 47.4834C10.4986 48.0422 10.1136 48.5145 9.60522 48.8164C9.09682 49.1182 8.4979 49.2301 7.91481 49.1322C7.33171 49.0343 6.8022 48.7329 6.42031 48.2815C6.03841 47.8301 5.82886 47.258 5.82886 46.6667C5.82886 46.0755 6.03841 45.5033 6.42031 45.052C6.8022 44.6006 7.33171 44.2992 7.91481 44.2013C8.4979 44.1033 9.09682 44.2152 9.60522 44.5171C10.1136 44.819 10.4986 45.2912 10.6917 45.8501C10.7859 46.1117 10.8334 46.3884 10.8334 46.6667ZM44.1667 46.6667C44.1637 47.2557 43.9528 47.8247 43.5713 48.2734C43.1897 48.7221 42.662 49.0216 42.0812 49.1193C41.5003 49.2169 40.9037 49.1063 40.3964 48.8071C39.8891 48.5078 39.5038 48.039 39.3084 47.4834C39.1195 46.9553 39.1195 46.3781 39.3084 45.8501C39.5038 45.2944 39.8891 44.8257 40.3964 44.5264C40.9037 44.2271 41.5003 44.1165 42.0812 44.2142C42.662 44.3118 43.1897 44.6114 43.5713 45.0601C43.9528 45.5088 44.1637 46.0778 44.1667 46.6667ZM5.83337 33.3334C5.83337 33.6117 5.78587 33.8884 5.69171 34.1501C5.49856 34.7089 5.11361 35.1812 4.60522 35.483C4.09682 35.7849 3.4979 35.8968 2.91481 35.7989C2.33171 35.7009 1.8022 35.3995 1.42031 34.9481C1.03841 34.4968 0.828857 33.9246 0.828857 33.3334C0.828857 32.7421 1.03841 32.17 1.42031 31.7186C1.8022 31.2673 2.33171 30.9658 2.91481 30.8679C3.4979 30.77 4.09682 30.8819 4.60522 31.1838C5.11361 31.4856 5.49856 31.9579 5.69171 32.5167C5.78587 32.7784 5.83337 33.0551 5.83337 33.3334ZM5.83337 16.6667C5.83337 16.9451 5.78587 17.2217 5.69171 17.4834C5.49856 18.0422 5.11361 18.5145 4.60522 18.8164C4.09682 19.1182 3.4979 19.2301 2.91481 19.1322C2.33171 19.0343 1.8022 18.7329 1.42031 18.2815C1.03841 17.8301 0.828857 17.258 0.828857 16.6667C0.828857 16.0755 1.03841 15.5033 1.42031 15.052C1.8022 14.6006 2.33171 14.2992 2.91481 14.2013C3.4979 14.1033 4.09682 14.2152 4.60522 14.5171C5.11361 14.819 5.49856 15.2912 5.69171 15.8501C5.78587 16.1117 5.83337 16.3884 5.83337 16.6667ZM49.1667 33.3334C49.1637 33.9224 48.9528 34.4914 48.5713 34.9401C48.1897 35.3887 47.662 35.6883 47.0812 35.7859C46.5003 35.8836 45.9037 35.773 45.3964 35.4737C44.8891 35.1744 44.5038 34.7057 44.3084 34.1501C44.1195 33.622 44.1195 33.0448 44.3084 32.5167C44.5038 31.9611 44.8891 31.4923 45.3964 31.1931C45.9037 30.8938 46.5003 30.7832 47.0812 30.8808C47.662 30.9785 48.1897 31.278 48.5713 31.7267C48.9528 32.1754 49.1637 32.7444 49.1667 33.3334ZM49.1667 16.6667C49.1637 17.2557 48.9528 17.8247 48.5713 18.2734C48.1897 18.7221 47.662 19.0216 47.0812 19.1193C46.5003 19.2169 45.9037 19.1063 45.3964 18.8071C44.8891 18.5078 44.5038 18.039 44.3084 17.4834C44.1195 16.9553 44.1195 16.3781 44.3084 15.8501C44.5038 15.2944 44.8891 14.8257 45.3964 14.5264C45.9037 14.2271 46.5003 14.1165 47.0812 14.2142C47.662 14.3118 48.1897 14.6114 48.5713 15.0601C48.9528 15.5088 49.1637 16.0778 49.1667 16.6667Z" fill="#B4DF80"/>
<path d="M38.3333 25C38.3299 32.3625 32.3624 38.33 24.9999 38.3334C24.5883 38.335 24.1766 38.315 23.7666 38.275C30.5991 37.6134 35.8124 31.8725 35.8149 25.0084C35.8166 18.1434 30.6066 12.4 23.7749 11.7334C24.1816 11.6859 24.5908 11.6634 24.9999 11.6667H25.1416C32.4491 11.7467 38.3316 17.6917 38.3333 25Z" fill="#89C053"/>
<path d="M30.8333 23.3333V30.8333C30.832 31.2749 30.656 31.6981 30.3437 32.0103C30.0314 32.3226 29.6083 32.4986 29.1667 32.5H27.5C27.9416 32.4986 28.3648 32.3226 28.6771 32.0103C28.9893 31.6981 29.1653 31.2749 29.1667 30.8333V23.3333C29.1653 22.8917 28.9893 22.4685 28.6771 22.1562C28.3648 21.844 27.9416 21.6679 27.5 21.6666H29.1667C29.6083 21.6679 30.0314 21.844 30.3437 22.1562C30.656 22.4685 30.832 22.8917 30.8333 23.3333Z" fill="#CAD0D7"/>
<path d="M20.8333 21.6667V19.1667C20.8333 18.0616 21.2722 17.0018 22.0536 16.2204C22.835 15.439 23.8948 15 24.9999 15C26.105 15 27.1648 15.439 27.9462 16.2204C28.7276 17.0018 29.1666 18.0616 29.1666 19.1667V21.6667H27.4999V19.1667C27.4999 18.5036 27.2365 17.8677 26.7677 17.3989C26.2988 16.9301 25.663 16.6667 24.9999 16.6667C24.3369 16.6667 23.701 16.9301 23.2322 17.3989C22.7633 17.8677 22.4999 18.5036 22.4999 19.1667V21.6667H20.8333Z" fill="white"/>
<path d="M25.0001 30.8333C24.7791 30.8333 24.5671 30.7455 24.4108 30.5893C24.2545 30.433 24.1667 30.221 24.1667 30V28.3333C24.1667 28.1123 24.2545 27.9004 24.4108 27.7441C24.5671 27.5878 24.7791 27.5 25.0001 27.5C25.2211 27.5 25.4331 27.5878 25.5893 27.7441C25.7456 27.9004 25.8334 28.1123 25.8334 28.3333V30C25.8334 30.221 25.7456 30.433 25.5893 30.5893C25.4331 30.7455 25.2211 30.8333 25.0001 30.8333Z" fill="#A9B0BB"/>
<path d="M44.3083 32.5167C44.1195 33.0447 44.1195 33.6219 44.3083 34.15C44.2618 34.1601 44.2143 34.1657 44.1667 34.1667H39.4083C39.3262 34.1589 39.2452 34.1421 39.1667 34.1167C39.125 34.1 39.0833 34.0833 39.05 34.0667C39.0402 34.06 39.0284 34.0571 39.0167 34.0583C39.0083 34.05 39 34.0333 38.9833 34.025C38.9092 33.975 38.8417 33.9167 38.7833 33.85C38.775 33.8333 38.7667 33.825 38.7583 33.8083C38.7068 33.7303 38.6648 33.6464 38.6333 33.5583V33.525C38.6115 33.4631 38.5975 33.3987 38.5917 33.3333C38.5917 33.3 38.6083 33.275 38.6083 33.2417C38.6083 33.2333 38.6167 33.2167 38.6167 33.2083C38.6308 33.1092 38.6617 33.0133 38.7083 32.925C38.7105 32.925 38.7127 32.9241 38.7142 32.9226C38.7158 32.921 38.7167 32.9189 38.7167 32.9167C39.5703 31.4415 40.1783 29.8372 40.5167 28.1667C40.5609 27.9501 40.6893 27.7599 40.8737 27.638C41.0581 27.5161 41.2834 27.4725 41.5 27.5167C41.7166 27.5609 41.9068 27.6893 42.0287 27.8737C42.1506 28.0581 42.1942 28.2834 42.15 28.5C41.8697 29.8825 41.422 31.2258 40.8167 32.5H44.1667C44.2143 32.5009 44.2618 32.5065 44.3083 32.5167ZM19.1417 40.1333C19.1542 40.18 19.1625 40.2275 19.1667 40.275V45.8333C19.1653 46.275 18.9893 46.6981 18.6771 47.0104C18.3648 47.3227 17.9416 47.4987 17.5 47.5H10.8333C10.7857 47.4991 10.7382 47.4935 10.6917 47.4833C10.8805 46.9553 10.8805 46.3781 10.6917 45.85C10.7382 45.8399 10.7857 45.8343 10.8333 45.8333H17.5V40.8083C15.2773 39.7534 13.3012 38.243 11.7 36.375C11.5563 36.207 11.4853 35.9889 11.5025 35.7685C11.5197 35.5482 11.6237 35.3437 11.7917 35.2C11.9596 35.0563 12.1778 34.9853 12.3982 35.0025C12.6185 35.0197 12.823 35.1237 12.9667 35.2917C14.5204 37.1006 16.4595 38.5385 18.6417 39.5C18.7517 39.5492 18.8508 39.62 18.9333 39.7083C18.95 39.7167 18.95 39.7333 18.9583 39.7417C19.0205 39.8078 19.0712 39.8839 19.1083 39.9667C19.125 40.025 19.125 40.0833 19.1417 40.1333ZM29.15 8.83333C29.1281 8.94059 29.0853 9.04249 29.0241 9.13321C28.9628 9.22392 28.8843 9.30168 28.793 9.36205C28.7017 9.42241 28.5994 9.46419 28.4919 9.485C28.3844 9.50581 28.2739 9.50524 28.1667 9.48333C27.1242 9.27325 26.0634 9.16717 25 9.16667C24.779 9.16667 24.567 9.07887 24.4107 8.92259C24.2545 8.76631 24.1667 8.55435 24.1667 8.33333V0.833333C24.1667 0.61232 24.2545 0.400358 24.4107 0.244078C24.567 0.0877974 24.779 0 25 0C25.221 0 25.433 0.0877974 25.5893 0.244078C25.7455 0.400358 25.8333 0.61232 25.8333 0.833333V7.54167C26.7283 7.5775 27.62 7.68 28.5 7.85C28.6073 7.87187 28.7092 7.91465 28.7999 7.97591C28.8906 8.03716 28.9683 8.11569 29.0287 8.20701C29.0891 8.29832 29.1309 8.40064 29.1517 8.50811C29.1725 8.61557 29.1719 8.72609 29.15 8.83333ZM8.33333 25.8333H0.833333C0.61232 25.8333 0.400358 25.7455 0.244078 25.5893C0.0877974 25.433 0 25.221 0 25C0 24.779 0.0877974 24.567 0.244078 24.4107C0.400358 24.2545 0.61232 24.1667 0.833333 24.1667H7.53333C7.60359 22.5886 7.8867 21.0273 8.375 19.525C8.40575 19.4172 8.45792 19.3168 8.52839 19.2297C8.59886 19.1425 8.68617 19.0705 8.78512 19.0179C8.88406 18.9653 8.99259 18.9332 9.10423 18.9235C9.21587 18.9138 9.32832 18.9267 9.43485 18.9615C9.54138 18.9962 9.63981 19.0521 9.72424 19.1258C9.80868 19.1995 9.87738 19.2894 9.92625 19.3903C9.97512 19.4911 10.0032 19.6008 10.0087 19.7127C10.0142 19.8246 9.99706 19.9365 9.95833 20.0417C9.43301 21.642 9.16578 23.3157 9.16667 25C9.16667 25.221 9.07887 25.433 8.92259 25.5893C8.76631 25.7455 8.55435 25.8333 8.33333 25.8333ZM39.3083 45.85C39.1195 46.3781 39.1195 46.9553 39.3083 47.4833C39.2618 47.4935 39.2143 47.4991 39.1667 47.5H32.5C32.0584 47.4987 31.6352 47.3227 31.3229 47.0104C31.0107 46.6981 30.8347 46.275 30.8333 45.8333V40.275C30.8355 40.2261 30.8468 40.1781 30.8667 40.1333C30.8703 40.0772 30.8787 40.0214 30.8917 39.9667C30.9288 39.8839 30.9795 39.8078 31.0417 39.7417C31.0479 39.7291 31.0564 39.7178 31.0667 39.7083C31.1472 39.6181 31.2468 39.5469 31.3583 39.5C33.2146 38.6934 34.8959 37.5329 36.3083 36.0833C36.463 35.9253 36.6742 35.8352 36.8953 35.8329C37.1165 35.8305 37.3295 35.9161 37.4875 36.0708C37.6455 36.2255 37.7356 36.4367 37.738 36.6578C37.7403 36.879 37.6547 37.092 37.5 37.25C36.0527 38.7154 34.3606 39.9168 32.5 40.8V45.8333H39.1667C39.2143 45.8343 39.2618 45.8399 39.3083 45.85ZM5.69167 17.4833C5.88054 16.9553 5.88054 16.3781 5.69167 15.85C5.73824 15.8399 5.78568 15.8343 5.83333 15.8333H10.1083C11.2558 13.9608 12.7456 12.3211 14.5 11C14.5875 10.9343 14.6872 10.8866 14.7932 10.8594C14.8992 10.8322 15.0095 10.8262 15.1179 10.8417C15.2262 10.8572 15.3304 10.8938 15.4246 10.9496C15.5187 11.0054 15.601 11.0791 15.6667 11.1667C15.7323 11.2542 15.7801 11.3538 15.8073 11.4598C15.8344 11.5659 15.8404 11.6762 15.825 11.7845C15.8095 11.8929 15.7728 11.9971 15.7171 12.0912C15.6613 12.1854 15.5875 12.2677 15.5 12.3333C13.7887 13.6163 12.3544 15.232 11.2833 17.0833C11.2743 17.0988 11.2631 17.1128 11.25 17.125C11.2023 17.2005 11.14 17.2657 11.0667 17.3167C11.0319 17.3536 10.9891 17.3821 10.9417 17.4C10.9101 17.42 10.8766 17.4367 10.8417 17.45C10.7637 17.4759 10.6822 17.49 10.6 17.4917C10.5917 17.4917 10.5833 17.5 10.575 17.5H5.83333C5.78568 17.4991 5.73824 17.4935 5.69167 17.4833ZM10.8333 34.1167C10.755 34.1417 10.6742 34.1583 10.5917 34.1667H5.83333C5.78568 34.1657 5.73824 34.1601 5.69167 34.15C5.88054 33.6219 5.88054 33.0447 5.69167 32.5167C5.73824 32.5065 5.78568 32.5009 5.83333 32.5H9.18333C8.57804 31.2258 8.1303 29.8825 7.85 28.5C7.8058 28.2834 7.84945 28.0581 7.97134 27.8737C8.09324 27.6893 8.28341 27.5609 8.5 27.5167C8.71659 27.4725 8.94187 27.5161 9.12629 27.638C9.3107 27.7599 9.43913 27.9501 9.48333 28.1667C9.82171 29.8372 10.4296 31.4415 11.2833 32.9167C11.2833 32.9217 11.2867 32.925 11.2917 32.925C11.3383 33.0133 11.3692 33.1092 11.3833 33.2083C11.3833 33.2167 11.3917 33.2333 11.3917 33.2417C11.3917 33.275 11.4083 33.3 11.4083 33.3333C11.4025 33.3987 11.3885 33.4631 11.3667 33.525C11.3679 33.5367 11.365 33.5486 11.3583 33.5583C11.3333 33.6475 11.2942 33.7317 11.2417 33.8083C11.2315 33.821 11.2231 33.8351 11.2167 33.85C11.1583 33.9167 11.0908 33.975 11.0167 34.025C11.0018 34.0315 10.9899 34.0434 10.9833 34.0583C10.9667 34.0583 10.9583 34.0583 10.95 34.0667C10.9167 34.0833 10.875 34.1 10.8333 34.1167ZM50 25C50 25.221 49.9122 25.433 49.7559 25.5893C49.5996 25.7455 49.3877 25.8333 49.1667 25.8333H41.6667C41.4457 25.8333 41.2337 25.7455 41.0774 25.5893C40.9211 25.433 40.8333 25.221 40.8333 25C40.8344 22.2211 40.1044 19.4909 38.7167 17.0833C38.7167 17.0811 38.7158 17.079 38.7142 17.0774C38.7127 17.0759 38.7105 17.075 38.7083 17.075C38.6617 16.9865 38.6307 16.8907 38.6167 16.7917C38.6167 16.7833 38.6083 16.7667 38.6083 16.7583C38.6083 16.725 38.5917 16.7 38.5917 16.6667C38.5975 16.6013 38.6115 16.5369 38.6333 16.475V16.4417C38.6648 16.3536 38.7068 16.2697 38.7583 16.1917C38.7667 16.175 38.775 16.1667 38.7833 16.15C38.8417 16.0833 38.9092 16.025 38.9833 15.975C39 15.9667 39.0083 15.95 39.0167 15.9417H39.0417C39.1483 15.8875 39.2642 15.8533 39.3833 15.8417C39.4 15.8417 39.4083 15.8333 39.425 15.8333H44.1667C44.2143 15.8343 44.2618 15.8399 44.3083 15.85C44.1195 16.3781 44.1195 16.9553 44.3083 17.4833C44.2618 17.4935 44.2143 17.4991 44.1667 17.5H40.8083C41.7938 19.5921 42.3601 21.8569 42.475 24.1667H49.1667C49.3877 24.1667 49.5996 24.2545 49.7559 24.4107C49.9122 24.567 50 24.779 50 25ZM10.6917 4.15C10.8805 3.62194 10.8805 3.04473 10.6917 2.51667C10.7382 2.50653 10.7857 2.50094 10.8333 2.5H17.5C17.9416 2.50132 18.3648 2.67734 18.6771 2.98961C18.9893 3.30189 19.1653 3.72504 19.1667 4.16667V8.5C19.9283 8.23 20.7083 8.0125 21.5 7.85C21.6072 7.82811 21.7178 7.82756 21.8252 7.84838C21.9327 7.8692 22.035 7.91099 22.1263 7.97134C22.2176 8.0317 22.2961 8.10946 22.3574 8.20016C22.4186 8.29087 22.4614 8.39275 22.4833 8.5C22.5052 8.60725 22.5058 8.71775 22.4849 8.82521C22.4641 8.93267 22.4223 9.03497 22.362 9.12629C22.3016 9.2176 22.2239 9.29613 22.1332 9.35739C22.0425 9.41865 21.9406 9.46145 21.8333 9.48333C20.7481 9.70388 19.6894 10.0391 18.675 10.4833C18.5667 10.5308 18.4508 10.5558 18.3333 10.5583C18.3 10.5583 18.275 10.5417 18.25 10.5417C18.1872 10.5367 18.1255 10.5226 18.0667 10.5C18.0236 10.487 17.9818 10.4702 17.9417 10.45C17.8981 10.4222 17.8563 10.3916 17.8167 10.3583C17.7845 10.3354 17.7538 10.3104 17.725 10.2833C17.6685 10.2237 17.6208 10.1564 17.5833 10.0833C17.5523 9.99972 17.53 9.91316 17.5167 9.825C17.5167 9.79167 17.5 9.75833 17.5 9.725V4.16667H10.8333C10.7857 4.16572 10.7382 4.16014 10.6917 4.15ZM29.15 41.1667C29.1719 41.2739 29.1725 41.3844 29.1517 41.4919C29.1309 41.5994 29.0891 41.7017 29.0287 41.793C28.9683 41.8843 28.8906 41.9628 28.7999 42.0241C28.7092 42.0854 28.6073 42.1281 28.5 42.15C27.6202 42.3198 26.7287 42.4229 25.8333 42.4583V49.1667C25.8333 49.3877 25.7455 49.5996 25.5893 49.7559C25.433 49.9122 25.221 50 25 50C24.779 50 24.567 49.9122 24.4107 49.7559C24.2545 49.5996 24.1667 49.3877 24.1667 49.1667V42.4583C23.2713 42.4229 22.3798 42.3198 21.5 42.15C21.2834 42.1058 21.0932 41.9774 20.9713 41.7929C20.8494 41.6085 20.8058 41.3833 20.85 41.1667C20.8942 40.9501 21.0226 40.7599 21.207 40.638C21.3915 40.5161 21.6167 40.4725 21.8333 40.5167C23.9242 40.9333 26.0758 40.9333 28.1667 40.5167C28.2739 40.4948 28.3844 40.4942 28.4919 40.515C28.5994 40.5358 28.7017 40.5776 28.793 40.638C28.8843 40.6983 28.9628 40.7761 29.0241 40.8668C29.0853 40.9575 29.1281 41.0594 29.15 41.1667ZM30.8667 9.86667C30.8477 9.82163 30.8365 9.77375 30.8333 9.725V4.16667C30.8347 3.72504 31.0107 3.30189 31.3229 2.98961C31.6352 2.67734 32.0584 2.50132 32.5 2.5H39.1667C39.2143 2.50094 39.2618 2.50653 39.3083 2.51667C39.1195 3.04473 39.1195 3.62194 39.3083 4.15C39.2618 4.16014 39.2143 4.16572 39.1667 4.16667H32.5V9.2C34.3606 10.0832 36.0527 11.2846 37.5 12.75C37.653 12.9083 37.7372 13.1208 37.734 13.3409C37.7309 13.5611 37.6408 13.7711 37.4833 13.925C37.4081 14.0034 37.3174 14.0653 37.217 14.1069C37.1166 14.1485 37.0086 14.1689 36.9 14.1667C36.7896 14.1673 36.6802 14.1455 36.5784 14.1025C36.4767 14.0596 36.3848 13.9963 36.3083 13.9167C34.8959 12.4671 33.2146 11.3066 31.3583 10.5C31.2468 10.4531 31.1472 10.3819 31.0667 10.2917C31.0564 10.2822 31.0479 10.2709 31.0417 10.2583C30.9795 10.1922 30.9288 10.1161 30.8917 10.0333C30.8787 9.97858 30.8703 9.92283 30.8667 9.86667Z" fill="#4FC0E8"/>
</g>
<defs>
<clipPath id="clip0_18_2450">
<rect width="50" height="50" fill="white"/>
</clipPath>
</defs>
</svg>
