<svg width="50" height="50" viewBox="0 0 50 50" fill="none" xmlns="http://www.w3.org/2000/svg">
<path d="M25 14.2773C15.1672 14.2773 7.19458 11.5004 7.19458 7.83398V42.166C7.19458 45.6941 15.0286 48.5551 24.7497 48.6113H25C34.8329 48.6113 42.8055 45.8328 42.8055 42.166V7.83398C42.8055 11.4168 34.8329 14.2773 25 14.2773Z" fill="url(#paint0_linear_18_2464)"/>
<path d="M42.8055 7.83398C42.8055 11.4168 34.8329 14.2777 25 14.2777C15.1672 14.2777 7.19458 11.5004 7.19458 7.83398C7.19458 4.16719 15.1672 1.38867 25 1.38867C34.8329 1.38867 42.8055 4.16719 42.8055 7.83398Z" fill="#E8E8E8"/>
<path d="M38.6671 7.30586C38.6671 9.58398 32.5273 11.4168 25 11.4168C17.4726 11.4168 11.3328 9.58398 11.3328 7.30586C11.3328 5.02773 17.4726 3.22266 25 3.22266C32.5273 3.22266 38.6671 5.05508 38.6671 7.30586Z" fill="#50E6FF"/>
<path d="M25.0001 8.33282C21.334 8.23978 17.679 8.77553 14.1938 9.9168C17.6823 11.0371 21.3384 11.5446 25.0001 11.4168C28.6692 11.5239 32.3281 10.9783 35.8063 9.80548C32.3111 8.71759 28.659 8.21989 25.0001 8.33282Z" fill="#198AB3"/>
<path d="M35.8337 31.6664V22.223H33.3329V33.6945H40.1673V31.6664H35.8337ZM16.0005 27.0277C15.4842 26.82 15.0054 26.5294 14.5829 26.1671C14.4709 26.0486 14.3838 25.9088 14.3266 25.756C14.2695 25.6033 14.2434 25.4406 14.2501 25.2777C14.2416 25.1146 14.2756 24.9522 14.3486 24.8061C14.4217 24.6601 14.5313 24.5355 14.6669 24.4445C15.0088 24.2081 15.4189 24.0907 15.8341 24.1105C16.8232 24.0665 17.7993 24.3496 18.6114 24.916V22.5281C17.7244 22.1969 16.7802 22.0459 15.8341 22.0839C14.7441 22.0255 13.6694 22.3601 12.8052 23.0269C12.4288 23.3173 12.1268 23.6931 11.9242 24.1231C11.7215 24.5531 11.624 25.0252 11.6396 25.5003C11.6396 26.9164 12.5274 28.0273 14.4169 28.8605C15.0302 29.1214 15.6083 29.457 16.1396 29.8613C16.2694 29.9701 16.3739 30.106 16.4458 30.2594C16.5177 30.4129 16.5553 30.5801 16.556 30.7496C16.556 31.0929 16.3896 31.4132 16.1118 31.6117C15.7332 31.8325 15.2985 31.9385 14.8606 31.9167C13.7434 31.9074 12.6676 31.4926 11.8333 30.7496V33.3328C12.7506 33.8062 13.7743 34.0358 14.806 33.9996C15.97 34.0683 17.1235 33.7464 18.0833 33.0824C18.4221 32.7616 18.6814 32.3661 18.8406 31.9275C18.9999 31.4889 19.0546 31.0193 19.0005 30.5558C19.0141 29.8447 18.767 29.1532 18.306 28.6117C17.6569 27.928 16.8715 27.3883 16.0005 27.0277ZM30.556 31.4437C31.1865 30.3877 31.5045 29.1744 31.4728 27.9449C31.4099 26.9035 31.0953 25.893 30.556 25C30.1223 24.1327 29.4472 23.4094 28.6118 22.9171C27.765 22.4368 26.8069 22.1873 25.8333 22.1937C24.7841 22.1711 23.7481 22.4303 22.8333 22.9445C21.9757 23.4228 21.2722 24.1359 20.8056 25C20.3138 25.9819 20.0662 27.0679 20.0837 28.166C20.0892 29.1312 20.3174 30.0822 20.7505 30.9449C21.1746 31.8025 21.8409 32.517 22.6669 33C23.506 33.511 24.4624 33.798 25.4442 33.8332L27.8337 36.6105H31.195L27.7771 33.5558C28.928 33.2105 29.9151 32.4602 30.556 31.4437ZM27.7771 30.7496C27.5244 31.0637 27.2024 31.3149 26.8362 31.4836C26.4701 31.6522 26.0698 31.7336 25.6669 31.7214C25.2608 31.7348 24.8573 31.6511 24.49 31.4773C24.1228 31.3034 23.8023 31.0444 23.5552 30.7218C22.9691 29.9194 22.6838 28.9364 22.7493 27.9449C22.6855 26.953 22.9706 25.9701 23.5552 25.1664C23.8165 24.844 24.1469 24.5843 24.5219 24.4066C24.8969 24.2288 25.307 24.1373 25.722 24.139C26.1278 24.1211 26.5315 24.2059 26.8959 24.3854C27.2602 24.565 27.5734 24.8336 27.8063 25.1664C28.3531 25.9857 28.6163 26.9617 28.5556 27.9449C28.6532 28.944 28.3757 29.9437 27.7771 30.7496Z" fill="url(#paint1_radial_18_2464)"/>
<defs>
<linearGradient id="paint0_linear_18_2464" x1="7.19449" y1="28.2222" x2="42.8056" y2="28.2222" gradientUnits="userSpaceOnUse">
<stop stop-color="#005BA1"/>
<stop offset="0.07" stop-color="#0060A9"/>
<stop offset="0.36" stop-color="#0071C8"/>
<stop offset="0.52" stop-color="#0078D4"/>
<stop offset="0.64" stop-color="#0074CD"/>
<stop offset="0.82" stop-color="#006ABB"/>
<stop offset="1" stop-color="#005BA1"/>
</linearGradient>
<radialGradient id="paint1_radial_18_2464" cx="0" cy="0" r="1" gradientUnits="userSpaceOnUse" gradientTransform="translate(20363.4 6555.64) scale(14730.6 3820.98)">
<stop stop-color="#F2F2F2"/>
<stop offset="0.58" stop-color="#EEEEEE"/>
<stop offset="1" stop-color="#E6E6E6"/>
</radialGradient>
</defs>
</svg>
