<svg width="45" height="45" viewBox="0 0 45 45" fill="none" xmlns="http://www.w3.org/2000/svg">
<path d="M15.2271 13C16.3413 13 17.4557 13 18.5699 13C18.5745 13.0123 18.5711 13.0219 18.5596 13.0286C18.524 13.0481 18.4847 13.0428 18.4466 13.0428C17.4144 13.0431 16.3824 13.0431 15.3502 13.0428C15.3121 13.0428 15.273 13.0481 15.2372 13.0288C15.2259 13.0219 15.2225 13.0123 15.2271 13Z" fill="#ADC2D0"/>
<path d="M18.5706 13.0142C18.5704 13.0095 18.5702 13.0047 18.5701 13C18.6176 13 18.6649 13 18.7124 13C18.712 13.005 18.7124 13.0098 18.7131 13.0148C18.6652 13.0521 18.6177 13.0526 18.5706 13.0142Z" fill="#CDDAE2"/>
<path d="M15.2271 13C15.2271 13.0048 15.2267 13.0097 15.2264 13.0145C15.1908 13.0464 15.1552 13.0466 15.1196 13.0143C15.1198 13.0095 15.1202 13.0048 15.1203 13C15.1559 13 15.1915 13 15.2271 13Z" fill="#D1DCE4"/>
<path d="M15.1198 13.0143C15.1554 13.0143 15.191 13.0143 15.2265 13.0145C15.3566 13.0154 15.4866 13.0171 15.6167 13.0171C16.566 13.0173 17.5152 13.0173 18.4643 13.0171C18.4997 13.0171 18.5351 13.0152 18.5705 13.0142C18.618 13.0143 18.6654 13.0145 18.7129 13.0147C19.8932 13.112 20.742 13.676 21.2446 14.7172C21.4054 15.0505 21.4812 15.4073 21.4855 15.7758C21.4894 16.1085 21.4847 16.4412 21.4839 16.7741C21.4463 16.8026 21.4018 16.8033 21.3572 16.8033C20.6011 16.8034 19.8449 16.8034 19.0888 16.8034C19.0438 16.8034 19.0002 16.8 18.9609 16.7762C18.9424 16.6286 18.9562 16.4807 18.9532 16.333C18.9502 16.182 18.9577 16.0308 18.9408 15.8804C18.8068 15.1564 18.3122 14.6334 17.5594 14.5376C17.4797 14.5274 17.4005 14.5231 17.3204 14.5233C16.9146 14.5236 16.5087 14.5164 16.1031 14.5252C15.5542 14.5371 15.1143 14.7592 14.8044 15.203C14.6617 15.4072 14.584 15.6391 14.5363 15.8805C14.5327 15.9608 14.5258 16.041 14.5258 16.1213C14.5252 18.3115 14.5252 20.5019 14.5267 22.6922C14.5267 22.7245 14.4993 22.7717 14.5509 22.789C14.5971 22.8045 14.6327 22.78 14.6669 22.7467C15.0376 22.3835 15.4108 22.0226 15.7803 21.6583C15.8293 21.6102 15.8549 21.6022 15.9111 21.6523C16.3055 22.004 16.7029 22.3526 17.1027 22.6986C17.161 22.7491 17.1708 22.7798 17.1052 22.8254C17.0792 22.8434 17.0598 22.8701 17.0376 22.8931C17.0312 22.93 17.0027 22.9522 16.9774 22.9762C16.4836 23.4479 15.9913 23.9212 15.4953 24.3904C15.2029 24.6672 14.9179 24.9516 14.6217 25.2246C14.2372 25.5789 13.864 25.9439 13.4883 26.3068C13.4102 26.3822 13.399 26.3826 13.3235 26.3096C12.175 25.1967 11.0266 24.0834 9.87846 22.9702C9.85534 22.9479 9.83132 22.9262 9.82278 22.8939C9.78257 22.8494 9.70554 22.7999 9.71124 22.7619C9.71889 22.7103 9.78898 22.6666 9.83399 22.6213C10.1476 22.3041 10.4632 21.9886 10.7742 21.669C10.8292 21.6126 10.858 21.6024 10.9249 21.659C11.3554 22.0235 11.7911 22.3821 12.2257 22.7422C12.2515 22.7636 12.2769 22.803 12.3154 22.7835C12.3524 22.7647 12.3328 22.7213 12.3328 22.6894C12.3337 20.4264 12.3305 18.1633 12.3349 15.9002C12.3369 14.8948 12.7606 14.0908 13.6096 13.5087C14.06 13.1995 14.5701 13.0457 15.1198 13.0143Z" fill="#0C4C75"/>
<path d="M12.2239 28.6328C12.1758 28.3869 12.1483 28.1395 12.1508 27.8887C12.1534 27.6274 12.1524 27.3662 12.1504 27.1049C12.15 27.0569 12.1559 27.0338 12.2161 27.034C13.0186 27.036 13.8213 27.0359 14.6238 27.0342C14.6834 27.034 14.6905 27.0585 14.6899 27.1063C14.6882 27.3273 14.688 27.5484 14.6894 27.7695C14.694 28.5536 15.224 29.163 16.0214 29.2984C16.0996 29.3117 16.1804 29.3169 16.2601 29.3172C16.6865 29.319 17.1131 29.321 17.5396 29.3174C18.359 29.3107 19.0379 28.7139 19.106 27.9448C19.1188 27.9143 19.1124 27.8823 19.1124 27.8511C19.1128 25.6741 19.1124 23.4972 19.1138 21.3202C19.1138 21.2505 19.095 21.1842 19.0919 21.1155C19.0898 21.0677 19.061 21.0569 19.0192 21.0814C18.9884 21.0993 18.9647 21.1256 18.9397 21.1499C18.5959 21.4828 18.2528 21.8162 17.9087 22.1489C17.8059 22.2483 17.7899 22.2521 17.6826 22.1579C17.4787 21.9786 17.2729 21.8012 17.0696 21.6212C16.9667 21.5302 16.8634 21.44 16.7596 21.3502C16.6981 21.2969 16.6312 21.2476 16.5972 21.1706C16.5558 21.134 16.5141 21.0974 16.4727 21.0608C16.4839 21.07 16.4951 21.0793 16.5065 21.0885C16.8563 20.7331 17.1984 20.3702 17.5575 20.024C18.4252 19.1874 19.3013 18.3593 20.1714 17.5251C20.2277 17.4711 20.2526 17.474 20.3066 17.5266C21.4886 18.6759 22.6729 19.823 23.8568 20.9708C23.9453 21.0564 23.9447 21.0564 23.862 21.1432C23.8442 21.1618 23.8206 21.1768 23.8156 21.2046C23.8122 21.2327 23.7914 21.2502 23.7722 21.2676C23.5715 21.4507 23.3966 21.6583 23.1968 21.8421C23.0849 21.9451 22.9914 22.0643 22.88 22.1677C22.8005 22.2416 22.7868 22.2452 22.7023 22.1748C22.4374 21.9541 22.1718 21.7342 21.9069 21.5135C21.7386 21.3732 21.5692 21.2339 21.4013 21.0931C21.386 21.0803 21.3705 21.0612 21.3477 21.0712C21.3246 21.0814 21.3314 21.1057 21.3301 21.125C21.328 21.159 21.3349 21.1946 21.3104 21.2244C21.3089 21.2617 21.3065 21.2988 21.3065 21.3361C21.3063 23.5148 21.3059 25.6935 21.3068 27.872C21.307 28.1225 21.283 28.3702 21.2358 28.6161C21.152 29.0579 20.951 29.446 20.6562 29.7892C20.1645 30.3618 19.5342 30.6966 18.7758 30.8051C18.6652 30.821 18.5527 30.8312 18.4397 30.831C17.296 30.83 16.1521 30.8372 15.0086 30.8277C14.3372 30.8222 13.7378 30.5998 13.2162 30.1894C12.7974 29.86 12.4922 29.4501 12.3116 28.9554C12.273 28.8499 12.2477 28.7416 12.2239 28.6328Z" fill="#0C4C75"/>
<path d="M33.1825 30.5513C33.1175 30.5513 33.0524 30.5513 32.9663 30.5513C34.2917 28.9954 35.6058 27.4526 36.9198 25.9098C36.9767 25.828 36.9403 25.7654 36.8842 25.6972C36.2682 24.9476 35.6585 24.1931 35.046 23.4407C34.5674 22.8528 34.0889 22.265 33.6123 21.6755C33.5852 21.642 33.5525 21.6108 33.547 21.5651C33.4879 21.4903 33.4289 21.4156 33.3694 21.3406C33.3915 21.3169 33.4164 21.3276 33.4379 21.3276C34.448 21.3269 35.4582 21.3276 36.4683 21.3257C36.5259 21.3255 36.5576 21.3431 36.5893 21.3894C37.2137 22.3028 37.8401 23.2148 38.4665 24.1269C38.4841 24.1526 38.4955 24.1836 38.5296 24.2012C38.8758 23.7253 39.2217 23.2495 39.5677 22.7739C39.9037 22.3119 40.2398 21.8501 40.5753 21.3878C40.6017 21.3516 40.6246 21.3255 40.6798 21.3257C41.6869 21.328 42.6941 21.3273 43.7012 21.3274C43.7149 21.3274 43.7286 21.3286 43.7587 21.33C43.6891 21.416 43.6281 21.4912 43.5671 21.5664C43.5596 21.6218 43.5167 21.6564 43.4837 21.6959C42.935 22.3506 42.3871 23.0058 41.8381 23.6601C41.2777 24.3277 40.7203 24.9976 40.1557 25.6619C40.1005 25.7267 40.076 25.7837 40.1199 25.8591C40.6082 26.4502 41.096 27.0414 41.5849 27.6319C42.3664 28.5762 43.1487 29.52 43.9305 30.4639C43.9503 30.4879 43.9697 30.5123 44.0001 30.5499C43.9238 30.5499 43.8631 30.5499 43.8025 30.5499C43.7692 30.5751 43.7297 30.5713 43.6916 30.5713C42.7646 30.5715 41.8374 30.5709 40.9103 30.5725C40.8315 30.5727 40.7792 30.5473 40.7328 30.4838C40.0624 29.565 39.3948 28.6442 38.7214 27.7273C38.6871 27.6806 38.654 27.6329 38.6207 27.5855C38.5846 27.5337 38.5567 27.5291 38.5168 27.5846C38.3832 27.7708 38.25 27.9572 38.1171 28.1439C37.5702 28.9117 37.018 29.676 36.4745 30.446C36.4117 30.5352 36.3399 30.5742 36.2253 30.5737C35.2568 30.5699 34.2881 30.5716 33.3196 30.5709C33.2737 30.5709 33.2244 30.5825 33.1825 30.5513Z" fill="#0C4C75"/>
<path d="M32.7293 30.4934C32.7174 30.5246 32.7174 30.5274 32.6793 30.5269C32.6343 30.5262 32.6133 30.5307 32.6361 30.5831C32.6935 30.7157 32.6912 30.7165 32.5393 30.7165C31.7097 30.7165 30.8802 30.7157 30.0506 30.7183C29.9807 30.7184 29.9482 30.6996 29.9213 30.6351C29.674 30.0421 29.4214 29.4513 29.1732 28.8588C29.151 28.8057 29.1263 28.7851 29.0651 28.7853C27.7112 28.7872 26.3572 28.7872 25.0034 28.7853C24.9425 28.7853 24.9173 28.8052 24.8949 28.8585C24.6455 29.4537 24.3919 30.0473 24.1431 30.6425C24.1189 30.7003 24.0893 30.7179 24.0265 30.7177C23.1792 30.7157 22.3318 30.7164 21.4847 30.7164C21.3676 30.7164 21.3676 30.7164 21.4155 30.6139C21.4263 30.5906 21.4365 30.5669 21.4473 30.5428C21.4176 30.5158 21.3835 30.5329 21.3536 30.5267C21.3326 30.5222 21.3203 30.5141 21.3392 30.4932C21.3859 30.4817 21.4334 30.4872 21.4806 30.4872C22.3187 30.487 23.157 30.487 23.995 30.487C24.1164 30.487 24.1164 30.4868 24.1616 30.3799C24.3999 29.8143 24.6403 29.2495 24.8771 28.6833C24.9166 28.5891 24.9747 28.5548 25.0788 28.5549C26.3819 28.5573 27.6851 28.5565 28.9882 28.5567C29.1239 28.5567 29.1433 28.5698 29.1937 28.6897C29.4301 29.253 29.6696 29.815 29.9063 30.3781C29.9522 30.4874 29.953 30.4872 30.0738 30.4872C30.9296 30.487 31.7855 30.4877 32.6416 30.4867C32.6708 30.4868 32.7001 30.4882 32.7293 30.4934Z" fill="#8B95A0"/>
<path d="M12.3958 30.511C12.3677 30.549 12.3215 30.511 12.2893 30.5367C12.2887 30.5398 12.2859 30.5458 12.2877 30.5502C12.3521 30.7167 12.3522 30.7167 12.1624 30.7167C11.3476 30.7167 10.5328 30.7157 9.71806 30.7184C9.6444 30.7186 9.60882 30.6968 9.58125 30.6306C9.33628 30.0428 9.08686 29.4569 8.84154 28.8693C8.81574 28.8074 8.78407 28.7848 8.71202 28.785C7.36691 28.7875 6.02162 28.7874 4.67651 28.7853C4.61015 28.7851 4.57902 28.8036 4.55358 28.8642C4.30843 29.4518 4.05812 30.0375 3.81333 30.6252C3.78469 30.6941 3.75107 30.7189 3.67226 30.7188C2.82776 30.7157 1.98344 30.7169 1.13894 30.7167C1.02935 30.7167 1.02971 30.7167 1.0749 30.6166C1.08646 30.5909 1.10585 30.5672 1.10354 30.5367C1.01174 30.5215 1.01174 30.5215 1 30.4946C1.04056 30.482 1.08219 30.4873 1.12346 30.4873C1.97348 30.4872 2.82349 30.4863 3.6735 30.4889C3.75071 30.4891 3.78949 30.4658 3.81814 30.3962C4.04603 29.8419 4.28513 29.292 4.51533 28.7385C4.51871 28.7306 4.52156 28.7225 4.52494 28.7144C4.5904 28.561 4.59699 28.5566 4.76671 28.5566C6.05204 28.5566 7.33756 28.5566 8.62289 28.5566C8.78781 28.5566 8.80613 28.5691 8.8668 28.7147C9.10038 29.2761 9.34091 29.8345 9.57396 30.3962C9.6026 30.4654 9.64031 30.4892 9.71734 30.4889C10.5643 30.4863 11.4115 30.4872 12.2585 30.4873C12.3055 30.4875 12.3537 30.4825 12.3958 30.511Z" fill="#8B95A0"/>
<path d="M12.3958 30.5108C11.4921 30.5126 10.5883 30.5133 9.68461 30.5174C9.6163 30.5177 9.58587 30.4951 9.5615 30.4365C9.3208 29.8594 9.07565 29.284 8.83638 28.7065C8.79973 28.6179 8.75596 28.5824 8.65011 28.5829C7.3404 28.5874 6.03052 28.5867 4.72063 28.5839C4.63613 28.5838 4.59734 28.6084 4.56585 28.6844C4.32373 29.267 4.0752 29.8471 3.8329 30.4299C3.80461 30.4981 3.76921 30.5177 3.69627 30.5176C2.86352 30.5152 2.03094 30.5165 1.19818 30.515C1.13218 30.5148 1.06333 30.5262 1 30.4948C1.57177 29.2518 2.14319 28.0084 2.7155 26.7656C3.53118 24.9941 4.34775 23.2231 5.16147 21.4506C5.19385 21.3799 5.23032 21.3571 5.31037 21.3574C6.23777 21.3607 7.16535 21.3602 8.09293 21.3581C8.15484 21.3579 8.18419 21.3752 8.20999 21.4315C9.59726 24.4399 10.9865 27.4474 12.3754 30.4551C12.3837 30.4729 12.3891 30.4922 12.3958 30.5108Z" fill="#0C4C75"/>
<path d="M32.7294 30.4934C32.6731 30.5294 32.6091 30.5144 32.5495 30.5146C31.7054 30.5167 30.8612 30.5146 30.0171 30.5182C29.937 30.5186 29.9182 30.4768 29.8952 30.4225C29.6527 29.8464 29.4081 29.2712 29.1687 28.694C29.1352 28.6134 29.0955 28.5834 29.0016 28.5836C27.6866 28.5872 26.3715 28.5867 25.0565 28.5844C24.9771 28.5842 24.9382 28.6039 24.9069 28.6795C24.6642 29.2647 24.4146 29.8473 24.1702 30.4318C24.1444 30.4932 24.1152 30.5182 24.0423 30.5181C23.207 30.5151 22.3718 30.5167 21.5365 30.5151C21.4707 30.515 21.4017 30.527 21.3389 30.4937C21.7817 29.5308 22.2243 28.5677 22.6676 27.6049C23.6132 25.5512 24.5596 23.4978 25.5032 21.4432C25.5331 21.3781 25.5674 21.3576 25.6396 21.3579C26.5699 21.3605 27.5001 21.36 28.4305 21.3586C28.4859 21.3586 28.5197 21.3674 28.5455 21.4233C29.9359 24.4391 31.3284 27.4541 32.7205 30.469C32.724 30.477 32.7263 30.4853 32.7294 30.4934Z" fill="#0C4C75"/>
<path d="M33.1824 30.5512C33.6002 30.5503 34.0179 30.5491 34.4358 30.5489C35.0492 30.5486 35.6626 30.5481 36.2758 30.55C36.3372 30.5501 36.3777 30.5365 36.4153 30.4837C36.9193 29.7748 37.4263 29.0679 37.9324 28.3604C38.1414 28.0682 38.3503 27.7759 38.5666 27.4734C38.6727 27.6175 38.7739 27.7542 38.874 27.8915C39.5063 28.7585 40.1387 29.6255 40.769 30.4937C40.8036 30.5411 40.8422 30.5496 40.8957 30.5496C41.8646 30.5489 42.8334 30.5494 43.8023 30.5498C43.8152 30.6242 43.8921 30.6601 43.9207 30.7301C43.8916 30.7489 43.8617 30.741 43.8341 30.7412C42.8596 30.7417 41.8848 30.741 40.9103 30.7431C40.8461 30.7432 40.8094 30.722 40.7733 30.6723C40.0519 29.6802 39.3288 28.6891 38.6058 27.6981C38.5956 27.6843 38.5837 27.6717 38.5652 27.6498C38.4563 27.8016 38.3508 27.9483 38.2457 28.0953C37.6302 28.9561 37.0144 29.8171 36.3996 30.6783C36.3711 30.7182 36.3436 30.7431 36.2866 30.7431C35.2262 30.7412 34.1657 30.7417 33.1051 30.7415C33.0883 30.7415 33.0716 30.7391 33.043 30.737C33.0937 30.6694 33.1381 30.6104 33.1824 30.5512Z" fill="#8B95A0"/>
<path d="M12.2238 28.6329C12.2935 28.8455 12.362 29.0583 12.47 29.2571C12.9037 30.0543 13.5772 30.5486 14.4808 30.7481C14.6795 30.7919 14.8834 30.8076 15.0885 30.8073C16.1815 30.8055 17.2746 30.8091 18.3676 30.8055C19.2267 30.8028 19.9525 30.4927 20.5382 29.8849C20.8735 29.5368 21.0961 29.125 21.217 28.6627C21.2213 28.6467 21.2293 28.6315 21.2357 28.616C21.212 28.8641 21.1373 29.0999 21.0299 29.3238C20.5846 30.2521 19.8363 30.7988 18.7974 30.9726C18.678 30.9926 18.5565 30.9983 18.4347 30.9981C17.2939 30.9972 16.1531 31.0043 15.0125 30.9957C13.7035 30.986 12.549 30.0742 12.2577 28.8353C12.2419 28.7687 12.2181 28.7031 12.2238 28.6329Z" fill="#8B95A0"/>
<path d="M9.82281 22.8934C9.84896 22.9166 9.876 22.9387 9.90108 22.9628C11.0446 24.0712 12.1884 25.1793 13.3303 26.2893C13.3842 26.3415 13.4125 26.351 13.4728 26.2927C14.0985 25.6894 14.7268 25.0887 15.3562 24.489C15.9156 23.9559 16.477 23.4246 17.0374 22.8926C17.123 22.9913 17.1233 22.9915 17.0271 23.0831C16.2778 23.7979 15.5285 24.5128 14.7788 25.2273C14.3417 25.6438 13.9021 26.058 13.4675 26.477C13.4089 26.5334 13.3819 26.5238 13.3298 26.4732C12.1647 25.341 10.9978 24.2105 9.83135 23.0796C9.73617 22.9877 9.73599 22.9877 9.82281 22.8934Z" fill="#8B95A0"/>
<path d="M14.5364 15.8802C14.557 15.5912 14.6645 15.3325 14.8454 15.1059C15.1715 14.6976 15.6084 14.5023 16.1387 14.5005C16.5445 14.4992 16.9503 14.4992 17.3563 14.5005C18.1672 14.5031 18.8156 15.0438 18.9398 15.8202C18.943 15.8397 18.9407 15.86 18.9409 15.8801C18.8738 15.6676 18.7861 15.4649 18.6397 15.2909C18.3444 14.9399 17.9679 14.7292 17.4979 14.7056C16.9743 14.6793 16.449 14.6702 15.9265 14.7094C15.3076 14.7558 14.7525 15.192 14.5652 15.7998C14.5567 15.8271 14.546 15.8535 14.5364 15.8802Z" fill="#8B95A0"/>
<path d="M40.1197 25.8589C40.0439 25.8002 40.053 25.7516 40.1151 25.6779C40.747 24.9296 41.3737 24.1772 42.0028 23.4267C42.5048 22.8276 43.0081 22.2294 43.511 21.631C43.5294 21.6091 43.5484 21.5877 43.5671 21.5659C43.5996 21.5953 43.6422 21.5702 43.6834 21.5878C43.6502 21.6582 43.592 21.7102 43.5434 21.7682C42.7863 22.6728 42.0273 23.576 41.2698 24.4804C40.8856 24.9391 40.5031 25.3994 40.1197 25.8589Z" fill="#8B95A0"/>
<path d="M33.547 21.5649C33.8421 21.9263 34.1379 22.2871 34.4325 22.6492C35.0237 23.3759 35.6142 24.1031 36.205 24.8301C36.4446 25.125 36.6841 25.42 36.9235 25.7149C37.0022 25.8119 37.0022 25.8119 36.92 25.9097C36.8785 25.8057 36.7931 25.7315 36.7243 25.6469C35.6405 24.3116 34.5548 22.9776 33.4697 21.6431C33.4575 21.6279 33.4383 21.616 33.4409 21.5913C33.4715 21.5656 33.518 21.5967 33.547 21.5649Z" fill="#8B95A0"/>
<path d="M16.5972 21.1707C16.9791 21.5051 17.3622 21.8385 17.742 22.1754C17.7911 22.2191 17.8133 22.207 17.853 22.168C18.2196 21.8087 18.5884 21.4513 18.9567 21.0934C18.9734 21.0772 18.9898 21.0604 19.0076 21.0454C19.0328 21.024 19.0643 21.0276 19.0924 21.0338C19.1289 21.0418 19.1175 21.0746 19.1182 21.0986C19.1207 21.1904 19.123 21.2822 19.1232 21.374C19.1234 23.4935 19.1236 25.6131 19.1227 27.7326C19.1227 27.8034 19.1353 27.876 19.1059 27.9451C19.1063 27.8735 19.1072 27.8017 19.1072 27.7301C19.1072 25.5962 19.1074 23.4622 19.1063 21.3284C19.1063 21.2941 19.1284 21.2461 19.0857 21.2275C19.0343 21.205 18.9932 21.2345 18.9544 21.2725C18.5856 21.6339 18.2141 21.9928 17.846 22.3547C17.8055 22.3947 17.7841 22.3982 17.7406 22.3595C17.3559 22.0187 16.9699 21.6791 16.5815 21.3421C16.5267 21.2944 16.5052 21.2611 16.5767 21.2157C16.5924 21.2057 16.599 21.1893 16.5972 21.1707Z" fill="#8B95A0"/>
<path d="M18.9609 16.7762C19.8019 16.7756 20.6428 16.7749 21.4838 16.7742C21.4578 16.8095 21.4599 16.8506 21.4644 16.8898C21.4729 16.9624 21.4418 16.9813 21.3692 16.9809C20.7782 16.9783 20.187 16.9795 19.596 16.9795C19.4187 16.9795 19.2413 16.9769 19.0641 16.9809C18.9999 16.9823 18.9716 16.9676 18.9784 16.9007C18.9826 16.8594 18.9912 16.8142 18.9609 16.7762Z" fill="#8B95A0"/>
<path d="M21.3103 21.224C21.3093 21.1838 21.306 21.1436 21.3078 21.1036C21.3089 21.0803 21.2932 21.0487 21.3276 21.0359C21.3566 21.025 21.3776 21.044 21.3982 21.0613C21.5731 21.2074 21.7481 21.3533 21.9234 21.4989C22.1929 21.7231 22.4638 21.9457 22.7316 22.1719C22.7801 22.213 22.8054 22.213 22.8509 22.1664C23.148 21.862 23.4489 21.5607 23.7488 21.2589C23.7689 21.2387 23.7851 21.213 23.8155 21.204C23.9123 21.2741 23.9118 21.2735 23.8351 21.3507C23.507 21.681 23.1786 22.0109 22.8522 22.3429C22.8082 22.3876 22.7819 22.3994 22.7257 22.3521C22.2925 21.9881 21.8554 21.6285 21.4204 21.2666C21.3873 21.2394 21.3559 21.2175 21.3103 21.224Z" fill="#8B95A0"/>
<path d="M10.2092 23.1713C10.0786 23.0508 9.94855 22.9297 9.81708 22.8101C9.78114 22.7773 9.78114 22.7514 9.81637 22.7171C9.90194 22.6339 9.98449 22.5478 10.0677 22.4624C10.307 22.2159 10.5543 21.9768 10.7952 21.7317C10.842 21.6841 10.8738 21.6889 10.9197 21.7274C11.3511 22.0886 11.784 22.448 12.2145 22.8103C12.2625 22.8508 12.3129 22.8431 12.3644 22.8403C12.4091 22.8379 12.3974 22.7994 12.3975 22.7732C12.3988 22.6125 12.3988 22.4517 12.3991 22.291C12.4333 22.2618 12.4755 22.2629 12.5167 22.2629C13.126 22.2624 13.7352 22.2624 14.3445 22.2629C14.3858 22.2629 14.4281 22.2612 14.4621 22.291C14.4626 22.4372 14.4614 22.5835 14.4648 22.7297C14.4656 22.7664 14.4393 22.8249 14.4884 22.8362C14.5477 22.8496 14.6174 22.8657 14.6741 22.8175C14.6896 22.8044 14.7037 22.7894 14.7183 22.7752C15.0716 22.4323 15.4265 22.091 15.7764 21.7448C15.8346 21.6872 15.8725 21.691 15.9267 21.7391C16.129 21.9191 16.3325 22.0979 16.5361 22.2765C16.7024 22.4225 16.8687 22.5683 17.0363 22.7129C17.0739 22.7452 17.0872 22.7657 17.0401 22.8061C16.8984 22.9271 16.7782 23.0702 16.6311 23.1861C16.5688 23.191 16.5071 23.1813 16.445 23.1813C14.4277 23.1813 12.4103 23.1815 10.3931 23.1808C10.3319 23.1806 10.2689 23.201 10.2092 23.1713Z" fill="#1F83C5"/>
<path d="M10.2092 23.1712C10.2959 23.1475 10.3848 23.1525 10.4732 23.1525C12.4723 23.1525 14.4714 23.1525 16.4706 23.1524C16.5269 23.1524 16.5833 23.1494 16.6311 23.1857C16.4744 23.3405 16.3198 23.4975 16.1602 23.6497C16.0239 23.7798 15.882 23.9044 15.7427 24.0314C15.669 24.0247 15.5952 24.0256 15.5214 24.0256C14.0734 24.0259 12.6253 24.0245 11.1774 24.0264C11.1445 24.0264 11.1124 24.0233 11.0806 24.0164C10.7853 23.7394 10.4942 23.4582 10.2092 23.1712Z" fill="#2485C6"/>
<path d="M12.7708 14.4785C12.8674 14.2921 12.993 14.1261 13.1442 13.978C13.2178 13.9873 13.2916 13.9887 13.3658 13.9886C15.7762 13.988 18.1868 13.9892 20.5972 13.9873C20.6265 13.9873 20.6561 13.996 20.6854 13.9867C20.8411 14.1368 20.9651 14.309 21.0649 14.4982C21.0177 14.5409 20.9587 14.5273 20.904 14.5273C19.9804 14.5282 19.0567 14.5277 18.1331 14.5284C18.0653 14.5284 17.9973 14.522 17.9297 14.5337C17.6823 14.4555 17.4275 14.4414 17.1694 14.446C16.8917 14.451 16.6138 14.451 16.3361 14.446C16.063 14.4412 15.7933 14.4526 15.532 14.5385C14.6622 14.5529 13.7924 14.5418 12.9227 14.5435C12.8661 14.5437 12.7921 14.5632 12.7708 14.4785Z" fill="#63A8DA"/>
<path d="M11.0806 24.0164C11.1151 23.995 11.1537 23.997 11.1923 23.997C12.6724 23.9972 14.1526 23.997 15.6327 23.9976C15.672 23.9976 15.7181 23.9834 15.7426 24.0314C15.5261 24.2129 15.3497 24.4328 15.1415 24.6224C14.9613 24.7865 14.7841 24.9541 14.6057 25.1201C14.5863 25.0331 14.5262 25.0226 14.4438 25.023C13.7153 25.0261 12.9866 25.0247 12.2581 25.0249C12.2017 25.0249 12.1453 25.0261 12.0937 24.9983C11.7525 24.6744 11.41 24.3517 11.0806 24.0164Z" fill="#2987C7"/>
<path d="M20.6855 13.9868C20.6695 14.0365 20.6265 14.016 20.5953 14.0162C20.2367 14.0175 19.8782 14.017 19.5196 14.017C17.4362 14.017 15.3529 14.0172 13.2695 14.0163C13.2252 14.0163 13.1715 14.035 13.1443 13.978C13.3218 13.7765 13.5305 13.6113 13.7668 13.4786C13.8404 13.4862 13.9142 13.4888 13.9884 13.4888C15.9313 13.4886 17.874 13.4888 19.8168 13.4884C19.8933 13.4884 19.9707 13.4936 20.0454 13.47C20.2579 13.5939 20.4575 13.7328 20.616 13.9211C20.6362 13.9454 20.6622 13.9651 20.6855 13.9868Z" fill="#67ABDB"/>
<path d="M20.0453 13.4701C20.0352 13.5087 20.0021 13.5136 19.9696 13.5165C19.9461 13.5186 19.9222 13.517 19.8986 13.517C17.9036 13.517 15.9086 13.517 13.9138 13.5167C13.8618 13.5167 13.8055 13.5291 13.7668 13.4785C14.0851 13.2801 14.4347 13.1632 14.806 13.1032C14.9965 13.0725 15.1885 13.0675 15.3813 13.0678C16.4274 13.069 17.4734 13.0699 18.5195 13.0676C18.9429 13.0668 19.3492 13.1408 19.7349 13.3111C19.8411 13.3581 19.942 13.4167 20.0453 13.4701Z" fill="#6CAEDD"/>
<path d="M12.0935 24.9985C12.9371 24.9985 13.7805 24.9985 14.6266 24.9985C14.6231 25.0432 14.5948 25.0788 14.6055 25.1202C14.3402 25.3856 14.0711 25.6472 13.7941 25.9011C13.6759 26.0094 13.5619 26.1218 13.4466 26.2331C13.4224 26.2564 13.4052 26.2778 13.3691 26.2426C12.9448 25.827 12.519 25.4129 12.0935 24.9985Z" fill="#2F8AC8"/>
<path d="M14.4621 22.2907C13.7745 22.2907 13.0868 22.2907 12.3992 22.2907C12.3992 22.0265 12.3992 21.7621 12.3992 21.4979C12.4333 21.4686 12.4755 21.4698 12.5168 21.4696C13.1261 21.4691 13.7352 21.4691 14.3445 21.4696C14.3858 21.4696 14.4281 21.4679 14.4621 21.4978C14.4621 21.7621 14.4621 22.0265 14.4621 22.2907Z" fill="#1B81C4"/>
<path d="M17.9297 14.5338C17.9542 14.486 18.0003 14.5 18.0396 14.5C19.0067 14.4994 19.9736 14.4996 20.9407 14.4994C20.9821 14.4994 21.0234 14.4986 21.0648 14.4981C21.1689 14.6579 21.2415 14.8308 21.2918 15.0128C21.3116 15.0606 21.2881 15.0829 21.242 15.0913C21.2009 15.0988 21.1593 15.0967 21.118 15.0967C20.3452 15.097 19.5724 15.0963 18.7998 15.0972C18.764 15.0972 18.7286 15.0974 18.6945 15.0855C18.4911 14.8346 18.2362 14.6504 17.9297 14.5338Z" fill="#5EA6D9"/>
<path d="M18.6946 15.0856C18.7325 15.0626 18.7746 15.0685 18.8157 15.0685C19.6099 15.0683 20.4039 15.0685 21.198 15.068C21.2393 15.068 21.2939 15.0842 21.2919 15.0129C21.37 15.2192 21.4117 15.4321 21.4161 15.6518C21.4216 15.6637 21.419 15.6735 21.4081 15.6813C21.3731 15.7013 21.3341 15.6996 21.2959 15.6996C20.5647 15.7001 19.8335 15.7003 19.1023 15.6992C19.0481 15.6992 18.9853 15.7096 18.963 15.6378C18.9063 15.439 18.8107 15.2575 18.6946 15.0856Z" fill="#58A2D7"/>
<path d="M18.9631 15.6379C18.9877 15.6762 19.0268 15.6719 19.0654 15.6719C19.8482 15.6716 20.631 15.6716 21.4135 15.6714C21.4358 15.8221 21.4205 15.9736 21.423 16.1246C21.4258 16.3034 21.4237 16.3035 21.2424 16.3037C20.5509 16.3039 19.8594 16.3041 19.1679 16.3034C19.1158 16.3034 19.0604 16.3129 19.0151 16.2752C19.016 16.0613 19.0097 15.8481 18.9631 15.6379Z" fill="#539FD5"/>
<path d="M12.7709 14.4785C12.8068 14.5258 12.8597 14.5167 12.9091 14.5167C13.7476 14.5168 14.5859 14.5167 15.4243 14.5175C15.4606 14.5175 15.5024 14.502 15.5319 14.5387C15.33 14.624 15.1388 14.7258 14.981 14.8777C14.9119 14.9441 14.8486 15.0161 14.7826 15.0856C14.7513 15.0961 14.7191 15.0973 14.6864 15.0973C14.0153 15.0963 13.3443 15.0972 12.6732 15.0967C12.6378 15.0967 12.6019 15.0989 12.5674 15.0899C12.5389 15.0825 12.5069 15.0744 12.5242 15.033C12.5768 14.8357 12.657 14.65 12.7709 14.4785Z" fill="#5EA6D9"/>
<path d="M12.3989 16.1889C12.3996 16.0002 12.4 15.8115 12.4012 15.6227C12.4014 15.5975 12.3975 15.5708 12.416 15.5487C12.4448 15.5408 12.4742 15.5394 12.5039 15.5396C13.1349 15.5406 13.7661 15.5396 14.3971 15.5404C14.4439 15.5404 14.493 15.534 14.5327 15.5684C14.4811 15.7722 14.4588 15.9793 14.462 16.1889C14.4281 16.219 14.3857 16.2171 14.3445 16.2171C13.7351 16.2178 13.1258 16.2178 12.5165 16.2171C12.4752 16.2171 12.4331 16.2179 12.3989 16.1889Z" fill="#54A0D6"/>
<path d="M12.3989 19.8604C12.3989 19.6535 12.3989 19.4468 12.3989 19.2399C12.4331 19.2107 12.4752 19.2117 12.5165 19.2116C13.1258 19.2111 13.7351 19.2111 14.3445 19.2116C14.3857 19.2116 14.4281 19.2097 14.462 19.2397C14.462 19.4466 14.462 19.6533 14.462 19.8603C14.4281 19.8903 14.3857 19.8884 14.3445 19.8884C13.7351 19.8891 13.1258 19.8891 12.5167 19.8884C12.4754 19.8884 12.4333 19.8894 12.3989 19.8604Z" fill="#318DCB"/>
<path d="M14.462 19.2398C13.7743 19.2398 13.0867 19.2398 12.3989 19.2398C12.3989 19.0329 12.3989 18.8262 12.3989 18.6193C12.4331 18.5901 12.4752 18.591 12.5165 18.591C13.1258 18.5904 13.7351 18.5904 14.3445 18.591C14.3857 18.591 14.4281 18.5891 14.462 18.6191C14.462 18.8262 14.462 19.0331 14.462 19.2398Z" fill="#368FCC"/>
<path d="M14.462 18.6193C13.7743 18.6193 13.0867 18.6193 12.3989 18.6195C12.3989 18.4126 12.3989 18.2058 12.3989 17.9989C12.4331 17.9697 12.4752 17.9708 12.5167 17.9706C13.126 17.9701 13.7353 17.9701 14.3446 17.9706C14.3859 17.9706 14.4282 17.9687 14.4622 17.9987C14.462 18.2056 14.462 18.4126 14.462 18.6193Z" fill="#3D93CF"/>
<path d="M14.4622 16.7921C14.4622 16.9932 14.4622 17.1944 14.4622 17.3954C14.4282 17.4254 14.3859 17.4235 14.3446 17.4235C13.7353 17.4242 13.126 17.4242 12.5167 17.4235C12.4754 17.4235 12.4333 17.4244 12.3989 17.3954C12.3989 17.1944 12.3989 16.9932 12.3989 16.7921C12.4331 16.7631 12.4752 16.7638 12.5167 16.7638C13.126 16.7633 13.7353 16.7633 14.3448 16.7638C14.3859 16.764 14.4282 16.7621 14.4622 16.7921Z" fill="#489AD2"/>
<path d="M12.3989 17.3954C13.0867 17.3954 13.7745 17.3954 14.4622 17.3953C14.4622 17.5963 14.4622 17.7975 14.4622 17.9986C13.7745 17.9986 13.0869 17.9986 12.3991 17.9986C12.3989 17.7977 12.3989 17.5967 12.3989 17.3954Z" fill="#4196D0"/>
<path d="M14.4622 16.7922C13.7745 16.7922 13.0867 16.7922 12.3989 16.7922C12.3989 16.5912 12.3989 16.3901 12.3989 16.1889C13.0867 16.1889 13.7745 16.1889 14.4622 16.1887C14.4622 16.3899 14.4622 16.591 14.4622 16.7922Z" fill="#4D9CD3"/>
<path d="M12.3989 19.8605C13.0867 19.8605 13.7743 19.8605 14.462 19.8604C14.462 20.0557 14.462 20.251 14.462 20.4464C14.4281 20.4764 14.3857 20.4745 14.3445 20.4745C13.7351 20.4752 13.126 20.4752 12.5167 20.4745C12.4754 20.4745 12.4333 20.4756 12.3989 20.4464C12.3991 20.2512 12.3989 20.0559 12.3989 19.8605Z" fill="#2A89C9"/>
<path d="M14.4621 21.4977C13.7745 21.4977 13.0868 21.4977 12.3992 21.4977C12.3992 21.3139 12.3992 21.13 12.3992 20.9462C12.4333 20.917 12.4755 20.918 12.5168 20.9179C13.1261 20.9174 13.7354 20.9174 14.3445 20.9179C14.3858 20.9179 14.4281 20.9161 14.4621 20.946C14.4621 21.13 14.4621 21.3139 14.4621 21.4977Z" fill="#2184C6"/>
<path d="M14.5327 15.5683C13.8604 15.5683 13.1883 15.5685 12.516 15.5678C12.4822 15.5678 12.4439 15.5808 12.416 15.5488C12.4228 15.3711 12.4624 15.2001 12.5242 15.0332C12.5381 15.09 12.5857 15.0675 12.6192 15.0677C13.3 15.0689 13.9808 15.0686 14.6617 15.0688C14.7028 15.0688 14.7449 15.0629 14.7826 15.0858C14.6962 15.2141 14.6232 15.3492 14.5588 15.4891C14.5467 15.5147 14.5338 15.5393 14.5327 15.5683Z" fill="#58A2D7"/>
<path d="M19.0149 16.275C19.7803 16.275 20.5456 16.274 21.3109 16.2766C21.3888 16.2767 21.4203 16.2615 21.4168 16.1784C21.4095 16.0096 21.4137 15.8405 21.4134 15.6714C21.4143 15.6648 21.4152 15.6584 21.4161 15.6519C21.4367 15.6767 21.431 15.7066 21.431 15.7347C21.4317 16.0389 21.4305 16.3432 21.4333 16.6474C21.4338 16.7069 21.4168 16.7258 21.3538 16.7256C20.5988 16.7237 19.8439 16.7239 19.0889 16.7252C19.0331 16.7254 19.0092 16.7125 19.0114 16.6536C19.016 16.5276 19.0142 16.4013 19.0149 16.275Z" fill="#4C9CD3"/>
<path d="M14.4621 20.9462C13.7745 20.9462 13.0868 20.9462 12.3992 20.9462C12.3992 20.7795 12.3992 20.613 12.3992 20.4463C13.0868 20.4463 13.7745 20.4463 14.4621 20.4463C14.4621 20.613 14.4621 20.7795 14.4621 20.9462Z" fill="#2686C7"/>
<path d="M12.9869 29.874C12.6866 29.5663 12.4715 29.2103 12.343 28.8052C12.3363 28.7837 12.3326 28.7612 12.3274 28.7391C12.3304 28.6991 12.3642 28.7 12.392 28.6951C12.421 28.69 12.4509 28.6917 12.4804 28.6917C13.2487 28.6915 14.0171 28.6915 14.7853 28.6917C14.8383 28.6917 14.8924 28.6872 14.939 28.7203C15.2062 29.0615 15.5535 29.2772 15.9914 29.349C16.0726 29.3623 16.1555 29.3725 16.2377 29.373C16.6403 29.3756 17.0428 29.3697 17.4453 29.3756C18.0039 29.3837 18.4645 29.1892 18.8231 28.7721C18.8612 28.7447 18.9053 28.7435 18.9499 28.7435C19.629 28.7433 20.3082 28.7428 20.9873 28.7447C21.0319 28.7448 21.091 28.7257 21.1138 28.7904C21.0387 29.0285 20.9421 29.2574 20.7987 29.4653C20.6971 29.6127 20.5954 29.7601 20.4569 29.8788C20.3623 29.8494 20.2646 29.8513 20.1668 29.8513C17.8678 29.8517 15.5688 29.8517 13.2696 29.8513C13.1744 29.8515 13.0797 29.8512 12.9869 29.874Z" fill="#4394CC"/>
<path d="M12.9871 29.8741C12.9963 29.8282 13.0395 29.8342 13.0709 29.8256C13.0927 29.8196 13.1178 29.8235 13.1415 29.8235C15.5278 29.8235 17.9142 29.8235 20.3006 29.8235C20.3596 29.8235 20.4212 29.8168 20.4568 29.8791C20.0337 30.3121 19.523 30.5911 18.917 30.7023C18.7103 30.7402 18.5015 30.7544 18.291 30.7542C17.2423 30.7533 16.1934 30.7511 15.1446 30.7547C14.4373 30.7571 13.8068 30.5483 13.2555 30.1219C13.1602 30.0481 13.0588 29.9749 12.9871 29.8741Z" fill="#4796CD"/>
<path d="M19.1758 21.2736C19.1753 21.2134 19.1776 21.153 19.1729 21.0929C19.1701 21.0558 19.198 20.9969 19.1495 20.9863C19.0875 20.9726 19.0148 20.9554 18.957 21.0104C18.9 21.0646 18.842 21.1176 18.7846 21.1711C18.7531 21.18 18.7209 21.1821 18.688 21.1821C18.0662 21.1806 17.4443 21.1818 16.8225 21.1814C16.7691 21.1814 16.7152 21.1845 16.6683 21.153C16.6544 21.1426 16.6409 21.1317 16.6265 21.1219C16.5558 21.0732 16.5613 21.0415 16.6298 20.9823C16.7949 20.8397 16.9467 20.6825 17.1041 20.5317C17.1292 20.5077 17.1563 20.4856 17.1824 20.4625C17.2231 20.4544 17.2642 20.4521 17.3059 20.4521C19.224 20.4525 21.1421 20.4525 23.0603 20.4521C23.1225 20.4521 23.1843 20.4535 23.2453 20.466C23.3983 20.588 23.5271 20.7341 23.6699 20.8663C23.7169 20.9098 23.7589 20.9592 23.8089 20.999C23.8701 21.0479 23.8637 21.0839 23.7986 21.119C23.7744 21.1328 23.748 21.1322 23.7212 21.1321C23.0352 21.1267 22.349 21.1302 21.663 21.13C21.628 21.13 21.5922 21.1329 21.5588 21.1181C21.5034 21.0743 21.4439 21.0353 21.3972 20.9819C21.2492 20.9536 21.246 20.9561 21.246 21.0945C21.246 21.3019 21.246 21.3019 21.0315 21.3019C20.464 21.3019 19.8965 21.3022 19.329 21.3014C19.2765 21.3014 19.2212 21.3117 19.1758 21.2736Z" fill="#2486C7"/>
<path d="M23.245 20.4659C23.2174 20.4911 23.1831 20.4804 23.1518 20.4804C21.1954 20.4809 19.239 20.4809 17.2826 20.4802C17.2488 20.4802 17.2108 20.4934 17.1821 20.4623C17.3876 20.2542 17.595 20.0481 17.8194 19.8588C17.8441 19.8476 17.8704 19.8461 17.8975 19.8462C19.3102 19.8526 20.7229 19.8476 22.1358 19.849C22.2927 19.8492 22.4498 19.8524 22.6065 19.8428C22.7871 20.0095 22.9694 20.1745 23.132 20.3584C23.1662 20.3972 23.2071 20.4302 23.245 20.4659Z" fill="#2B89C9"/>
<path d="M19.1757 21.2736C19.8299 21.2736 20.484 21.2724 21.1383 21.2754C21.215 21.2757 21.2492 21.2583 21.2378 21.1803C21.2328 21.1464 21.2369 21.1116 21.2369 21.0771C21.2369 20.9526 21.2696 20.9331 21.3968 20.982C21.3879 20.9815 21.379 20.9808 21.3701 20.9806C21.2534 20.9785 21.2532 20.9785 21.2532 21.0898C21.2532 23.3707 21.2536 25.6517 21.2527 27.9326C21.2527 27.9831 21.2671 28.0359 21.2387 28.0842C21.2084 28.0589 21.2089 28.0237 21.2088 27.99C21.2081 27.854 21.205 27.718 21.2102 27.5821C21.2059 27.1517 21.2056 26.7211 21.2102 26.2907C21.2061 25.9057 21.2057 25.5207 21.2102 25.1357C21.2061 24.7393 21.2056 24.3431 21.2102 23.9467C21.2045 23.5798 21.2093 23.2131 21.2077 22.8462C21.2072 22.7166 21.2068 22.7156 21.0759 22.7156C20.4934 22.7153 19.911 22.7158 19.3285 22.7151C19.2764 22.7151 19.2211 22.7253 19.1755 22.6873C19.1757 22.216 19.1757 21.7449 19.1757 21.2736Z" fill="#1C81C4"/>
<path d="M14.9389 28.7206C14.0989 28.7206 13.2588 28.7203 12.4188 28.7208C12.3876 28.7208 12.3528 28.7097 12.3273 28.7392C12.2562 28.5441 12.224 28.3425 12.2213 28.1359C12.2037 27.9675 12.2177 27.7987 12.2136 27.63C12.2127 27.5925 12.2401 27.5823 12.2707 27.5765C12.3058 27.5697 12.3414 27.5713 12.3769 27.5713C13.0747 27.5711 13.7726 27.571 14.4703 27.5716C14.5228 27.5716 14.5778 27.5632 14.6235 27.5998C14.6222 27.9232 14.655 28.24 14.8192 28.5303C14.856 28.5955 14.8989 28.6573 14.9389 28.7206Z" fill="#3C90CA"/>
<path d="M22.6063 19.843C22.5873 19.8835 22.5496 19.8776 22.5143 19.8776C20.9869 19.8776 19.4594 19.8775 17.9321 19.8783C17.8925 19.8783 17.8569 19.8657 17.8193 19.8588C18.0353 19.6424 18.2532 19.4278 18.4813 19.2231C18.5215 19.2119 18.5628 19.2112 18.6044 19.2112C19.6839 19.2114 20.7634 19.2115 21.8431 19.2112C21.8847 19.2112 21.9258 19.2124 21.9662 19.2222C22.1863 19.4228 22.3994 19.63 22.6063 19.843Z" fill="#308CCA"/>
<path d="M21.2365 26.2899C21.2365 26.7208 21.2365 27.1517 21.2365 27.5826C21.2027 27.6126 21.1602 27.6105 21.1191 27.6105C20.5105 27.6112 19.9019 27.6112 19.2933 27.6105C19.2523 27.6105 19.2096 27.6133 19.176 27.5826C19.176 27.1517 19.176 26.7208 19.176 26.2899C19.2096 26.2592 19.2522 26.2617 19.2933 26.2617C19.9019 26.2611 20.5105 26.2611 21.1191 26.2617C21.1602 26.2617 21.2027 26.2597 21.2365 26.2899Z" fill="#368EC9"/>
<path d="M19.1758 22.6874C19.8306 22.6874 20.4853 22.6888 21.1402 22.6856C21.2199 22.6852 21.2394 22.7075 21.2387 22.7825C21.2348 23.1703 21.2366 23.5581 21.2364 23.9458C21.2026 23.9759 21.1601 23.9738 21.119 23.9738C20.5104 23.9745 19.9018 23.9745 19.2932 23.9738C19.2523 23.9738 19.2096 23.9764 19.176 23.9458C19.1758 23.5263 19.1758 23.1068 19.1758 22.6874Z" fill="#2384C6"/>
<path d="M19.176 27.5825C19.8628 27.5825 20.5495 27.5825 21.2364 27.5825C21.2373 27.7497 21.238 27.917 21.2389 28.0842C21.2362 28.3261 21.1989 28.5622 21.1137 28.7905C21.0882 28.7612 21.0533 28.7724 21.0222 28.7724C20.2891 28.7719 19.556 28.772 18.823 28.7722C18.9868 28.5587 19.1018 28.3242 19.1493 28.0604C19.1777 27.9019 19.1726 27.7421 19.176 27.5825Z" fill="#3C91CA"/>
<path d="M19.176 23.9458C19.8629 23.9458 20.5498 23.9458 21.2365 23.946C21.2365 24.3424 21.2365 24.7389 21.2365 25.1353C21.2027 25.1653 21.1602 25.1633 21.1191 25.1633C20.5105 25.164 19.9019 25.164 19.2933 25.1633C19.2523 25.1633 19.2096 25.166 19.176 25.1353C19.176 24.7386 19.176 24.3422 19.176 23.9458Z" fill="#2987C7"/>
<path d="M19.176 25.135C19.8629 25.135 20.5496 25.135 21.2365 25.135C21.2365 25.52 21.2365 25.9048 21.2365 26.2898C20.5496 26.2898 19.8629 26.2898 19.176 26.2898C19.176 25.9048 19.176 25.5198 19.176 25.135Z" fill="#308BC8"/>
<path d="M21.9661 19.2223C21.94 19.2506 21.9053 19.2393 21.8741 19.2393C20.774 19.2398 19.6739 19.2398 18.5735 19.2393C18.5424 19.2393 18.5077 19.2505 18.4812 19.223C18.6819 19.0087 18.9071 18.8187 19.1199 18.6165C19.1755 18.6239 19.2316 18.6258 19.2878 18.6258C19.9672 18.6265 20.6468 18.6242 21.3262 18.6266C21.3319 18.6266 21.3376 18.6239 21.3433 18.6222C21.4949 18.7436 21.6236 18.8879 21.7645 19.0203C21.8339 19.0855 21.899 19.1549 21.9661 19.2223Z" fill="#3790CD"/>
<path d="M14.6234 27.5998C13.8574 27.5998 13.0913 27.6009 12.3253 27.5983C12.2461 27.5979 12.2162 27.6152 12.2199 27.6973C12.2269 27.8433 12.2215 27.9897 12.2212 28.136C12.2007 28.1144 12.2061 28.0875 12.2061 28.0621C12.2055 27.7665 12.2068 27.4711 12.2041 27.1755C12.2036 27.1163 12.221 27.0963 12.284 27.0964C13.0388 27.0982 13.7935 27.098 14.5483 27.0966C14.6049 27.0964 14.6273 27.1116 14.6257 27.1694C14.6221 27.3128 14.6239 27.4562 14.6234 27.5998Z" fill="#378EC9"/>
<path d="M16.6682 21.1528C17.3334 21.1528 17.9987 21.1529 18.6639 21.1531C18.705 21.1531 18.7472 21.1478 18.7845 21.1711C18.604 21.3488 18.4236 21.5267 18.2425 21.704C18.1092 21.8344 17.9745 21.9638 17.8413 22.0941C17.8128 22.1221 17.792 22.1463 17.7481 22.1071C17.4915 21.8783 17.2323 21.6524 16.9742 21.4251C16.8717 21.3348 16.7702 21.2435 16.6682 21.1528Z" fill="#1F82C5"/>
<path d="M21.5583 21.1181C21.6039 21.105 21.6501 21.1008 21.6978 21.1008C22.3514 21.1017 23.005 21.1017 23.6588 21.1008C23.7067 21.1008 23.7528 21.1058 23.7983 21.119C23.656 21.2625 23.5272 21.4187 23.3715 21.5499C23.348 21.564 23.3222 21.5656 23.295 21.565C22.9182 21.5561 22.5416 21.5593 22.1648 21.5631C22.138 21.5635 22.1118 21.5626 22.0872 21.5511C21.9762 21.4863 21.8901 21.3918 21.7891 21.315C21.7085 21.2537 21.635 21.184 21.5583 21.1181Z" fill="#2083C6"/>
<path d="M21.3433 18.6224C21.3344 18.6645 21.2993 18.6535 21.2721 18.6535C20.5801 18.654 19.8881 18.654 19.1958 18.6535C19.1652 18.6535 19.127 18.6638 19.1199 18.6166C19.2572 18.4745 19.3983 18.3361 19.5481 18.2064C19.6657 18.2039 19.7831 18.2152 19.9009 18.2136C20.2396 18.2093 20.5783 18.2188 20.917 18.2053C21.0469 18.3121 21.1595 18.4355 21.2728 18.5582C21.2942 18.5815 21.3196 18.6012 21.3433 18.6224Z" fill="#3B92CE"/>
<path d="M20.9171 18.2054C20.8678 18.2349 20.8132 18.2402 20.7568 18.2402C20.4076 18.2401 20.0582 18.2399 19.709 18.2402C19.6526 18.2402 19.598 18.2347 19.5483 18.2062C19.7558 17.9821 19.9952 17.7893 20.2091 17.5715C20.2345 17.5456 20.2535 17.5539 20.2756 17.5755C20.4891 17.7857 20.7033 17.9955 20.9171 18.2054Z" fill="#3F94CF"/>
<path d="M22.0874 21.5511C22.1353 21.5359 22.1842 21.5316 22.2349 21.5317C22.5263 21.533 22.8177 21.5326 23.1093 21.5321C23.1973 21.5319 23.2854 21.529 23.3719 21.5497C23.1904 21.7343 23.0089 21.9188 22.8276 22.1036C22.8061 22.1256 22.7871 22.144 22.7542 22.1155C22.5334 21.9254 22.2986 21.7513 22.0874 21.5511Z" fill="#1C81C4"/>
<path d="M41.7365 23.6497C41.5238 23.9065 41.3121 24.164 41.0979 24.4196C40.9881 24.5506 40.8853 24.6872 40.7636 24.8087C40.7389 24.8206 40.7127 24.8217 40.6857 24.8215C39.2879 24.8153 37.8901 24.8203 36.4924 24.8186C36.4212 24.8184 36.3502 24.8198 36.2794 24.8253C36.0958 24.6015 35.9119 24.378 35.729 24.1538C35.6448 24.0506 35.5628 23.9459 35.4797 23.8418C35.479 23.7995 35.5112 23.7907 35.5441 23.7844C35.5792 23.7774 35.615 23.7793 35.6505 23.7793C36.4383 23.7792 37.2262 23.7792 38.014 23.7795C38.0668 23.7795 38.1214 23.7726 38.1684 23.8061C38.2698 23.9498 38.3742 24.0917 38.4715 24.238C38.5142 24.3024 38.5361 24.2914 38.5756 24.2367C38.7259 24.0285 38.8803 23.823 39.0331 23.6166C39.0581 23.6054 39.0847 23.6056 39.1114 23.6057C39.9372 23.6087 40.7629 23.6057 41.5887 23.6083C41.6394 23.6083 41.7027 23.585 41.7365 23.6497Z" fill="#2887C7"/>
<path d="M35.3713 27.8236C35.5948 27.5587 35.8179 27.2935 36.0418 27.0291C36.0958 26.9654 36.1523 26.9038 36.2077 26.8413C36.2315 26.8274 36.2573 26.8256 36.2847 26.8258C37.7396 26.836 39.1944 26.8275 40.6493 26.8313C40.716 26.8315 40.7851 26.8046 40.85 26.8415C41.0564 27.0876 41.2631 27.3335 41.4691 27.5799C41.5173 27.6376 41.5632 27.6969 41.6102 27.7556C41.571 27.8095 41.5109 27.8 41.4563 27.8001C41.0955 27.8015 40.7347 27.8008 40.3739 27.8008C39.9185 27.8008 39.4631 27.8007 39.0076 27.801C38.9632 27.801 38.919 27.8012 38.8756 27.79C38.7739 27.6548 38.6719 27.5199 38.5666 27.3799C38.4478 27.5423 38.3325 27.6999 38.2172 27.8573C37.3224 27.8464 36.4277 27.8557 35.5329 27.8519C35.4781 27.8516 35.4192 27.865 35.3713 27.8236Z" fill="#398FCA"/>
<path d="M34.6085 22.7731C34.2481 22.3302 33.8877 21.8874 33.5279 21.4441C33.5148 21.4279 33.4831 21.4146 33.5009 21.388C33.513 21.3701 33.5393 21.3789 33.5592 21.3789C34.5221 21.3785 35.485 21.3787 36.4478 21.378C36.49 21.378 36.5202 21.389 36.5446 21.4248C36.839 21.8548 37.1345 22.2843 37.4293 22.714C37.4339 22.7208 37.4345 22.7303 37.437 22.7385C37.3923 22.7784 37.3366 22.7667 37.2849 22.7668C36.4989 22.7677 35.7131 22.7675 34.9271 22.7672C34.8209 22.7672 34.7147 22.7684 34.6085 22.7731Z" fill="#1D81C4"/>
<path d="M36.2795 24.8254C36.2936 24.7686 36.3415 24.7914 36.3747 24.7914C36.8074 24.7898 37.24 24.7903 37.6727 24.7903C38.6535 24.7903 39.6344 24.7905 40.6152 24.7898C40.6661 24.7898 40.7153 24.794 40.7637 24.8088C40.531 25.0908 40.2982 25.3726 40.0655 25.6546C40.0599 25.6613 40.0564 25.6703 40.0496 25.6749C39.9712 25.7303 39.9694 25.7912 40.034 25.8579C40.0187 25.8922 39.9865 25.8979 39.9536 25.9019C39.9271 25.905 39.9004 25.9046 39.8737 25.9046C38.9915 25.9048 38.1091 25.905 37.2269 25.9041C37.163 25.9041 37.0947 25.9136 37.0443 25.8591C37.0785 25.8249 37.0646 25.7952 37.0385 25.7631C36.8353 25.5141 36.6329 25.2646 36.4304 25.015C36.3795 24.9522 36.3297 24.8885 36.2795 24.8254Z" fill="#2E8AC8"/>
<path d="M39.7148 22.6702C40.0118 22.2597 40.3089 21.8491 40.6056 21.4386C40.6323 21.4017 40.662 21.3775 40.7141 21.3777C41.683 21.3789 42.6516 21.3785 43.6328 21.3785C43.5792 21.483 43.4968 21.5568 43.4289 21.6395C43.1523 21.9751 42.8719 22.3078 42.5922 22.6412C42.5775 22.6588 42.5581 22.6726 42.541 22.6883C42.4983 22.7122 42.4517 22.7161 42.4036 22.716C41.5624 22.7158 40.7209 22.7163 39.8796 22.7151C39.8212 22.7149 39.7593 22.721 39.7148 22.6702Z" fill="#1D82C5"/>
<path d="M37.0441 25.8587C37.1311 25.8801 37.2198 25.8761 37.3083 25.8761C38.1764 25.876 39.0446 25.8761 39.9129 25.8761C39.9542 25.8761 39.9963 25.8808 40.0339 25.8577C40.1984 26.0525 40.3641 26.2466 40.5272 26.4427C40.6366 26.5742 40.7426 26.7083 40.8501 26.8411C40.6651 26.8722 40.4785 26.8577 40.2927 26.858C39.0191 26.8593 37.7455 26.8586 36.4719 26.8589C36.3834 26.8589 36.2948 26.8622 36.2078 26.8411C36.4796 26.5081 36.7591 26.1812 37.0441 25.8587Z" fill="#328CC9"/>
<path d="M35.3714 27.8236C36.2831 27.8237 37.1949 27.8237 38.1066 27.8244C38.1457 27.8244 38.192 27.8097 38.2173 27.857C37.9669 28.2158 37.7177 28.5753 37.4517 28.9235C36.9936 28.9185 36.5357 28.9216 36.0776 28.9211C35.587 28.9206 35.0963 28.9214 34.6057 28.9204C34.5568 28.9202 34.5039 28.9304 34.4626 28.8916C34.5838 28.7449 34.7035 28.5972 34.8263 28.4517C34.9958 28.2507 35.1673 28.0513 35.3385 27.8515C35.3477 27.8408 35.3603 27.8329 35.3714 27.8236Z" fill="#3D91CB"/>
<path d="M34.6086 22.773C34.6334 22.7252 34.6796 22.7396 34.7188 22.7396C35.625 22.7389 36.531 22.7387 37.4373 22.7385C37.557 22.8833 37.6541 23.0431 37.7598 23.197C37.8982 23.3988 38.0324 23.6029 38.1684 23.806C37.3088 23.8066 36.4494 23.8069 35.5898 23.8081C35.5506 23.8081 35.5046 23.7938 35.48 23.8418C35.1895 23.4856 34.899 23.1294 34.6086 22.773Z" fill="#2384C6"/>
<path d="M34.4626 28.8916C35.4146 28.8919 36.3663 28.8923 37.3183 28.8928C37.3651 28.8928 37.4138 28.8859 37.4515 28.9235C37.2382 29.2262 37.0251 29.5291 36.8116 29.8318C36.8034 29.8433 36.791 29.8521 36.7807 29.8621C35.7965 29.8388 34.812 29.8585 33.8279 29.8513C33.7731 29.8509 33.7144 29.8642 33.6665 29.8236C33.9262 29.5084 34.1885 29.1952 34.4626 28.8916Z" fill="#4394CC"/>
<path d="M39.7149 22.6702C39.7927 22.6921 39.8725 22.6873 39.9519 22.6873C40.8149 22.6876 41.6781 22.6879 42.5411 22.6881C42.2797 23.0034 42.0184 23.3187 41.7567 23.6338C41.7514 23.6402 41.7435 23.6445 41.7368 23.6497C41.7058 23.6236 41.6685 23.6359 41.6343 23.6359C40.8076 23.6352 39.9807 23.6353 39.154 23.6353C39.1127 23.6353 39.0706 23.6402 39.0332 23.6165C39.123 23.4655 39.2358 23.3301 39.3381 23.1874C39.4623 23.0139 39.5891 22.8424 39.7149 22.6702Z" fill="#2284C5"/>
<path d="M39.9749 29.2936C39.8445 29.1424 39.736 28.9759 39.6187 28.8154C39.5173 28.6765 39.4069 28.5432 39.3188 28.3953C39.301 28.3475 39.3385 28.3422 39.3699 28.3355C39.4104 28.3267 39.4524 28.3299 39.4937 28.3299C40.3337 28.3287 41.1738 28.3322 42.0138 28.328C42.0405 28.3279 42.0672 28.326 42.091 28.3413C42.3356 28.6328 42.5804 28.9241 42.8247 29.2159C42.8338 29.2266 42.8386 29.2408 42.8455 29.2532C42.7984 29.2962 42.7393 29.2824 42.6847 29.2824C41.8879 29.2834 41.0912 29.283 40.2944 29.283C40.1877 29.2829 40.0811 29.2805 39.9749 29.2936Z" fill="#4092CB"/>
<path d="M39.9751 29.2937C39.9998 29.2411 40.0491 29.2551 40.0914 29.2551C40.971 29.2546 41.8504 29.2547 42.7299 29.2546C42.7683 29.2546 42.8069 29.2537 42.8454 29.2532C43.0161 29.4558 43.1882 29.6573 43.3572 29.8613C43.412 29.9274 43.4776 29.9862 43.5152 30.0649C43.4701 30.1045 43.4143 30.0925 43.3625 30.0925C42.5095 30.0934 41.6563 30.0932 40.8032 30.0929C40.7232 30.0929 40.6433 30.0939 40.5636 30.1019C40.3588 29.8385 40.1619 29.5697 39.9751 29.2937Z" fill="#4495CC"/>
<path d="M33.6662 29.8236C34.6612 29.8236 35.6562 29.8236 36.651 29.8234C36.6981 29.8234 36.7471 29.8181 36.7803 29.8621C36.6505 30.0709 36.4962 30.2637 36.3573 30.4666C36.3397 30.4923 36.3167 30.4959 36.289 30.4959C35.2344 30.4956 34.1798 30.4954 33.1253 30.4949C33.1205 30.4949 33.1159 30.4904 33.0974 30.4813C33.2887 30.2602 33.4774 30.0419 33.6662 29.8236Z" fill="#4796CD"/>
<path d="M42.0911 28.3412C42.0458 28.3559 41.9993 28.3587 41.9516 28.3587C41.1084 28.358 40.2651 28.358 39.4219 28.3594C39.3861 28.3594 39.3347 28.3343 39.3191 28.3954C39.1623 28.1997 39.0172 27.9959 38.8757 27.7897C38.9049 27.7599 38.9428 27.773 38.9766 27.773C39.8081 27.7723 40.6394 27.7723 41.471 27.7728C41.5186 27.7728 41.5652 27.7706 41.6104 27.7554C41.7737 27.9481 41.939 28.1397 42.0911 28.3412Z" fill="#3B90CA"/>
<path d="M40.5637 30.1019C40.5762 30.045 40.6239 30.0657 40.6577 30.0657C41.2405 30.0645 41.8233 30.0648 42.4061 30.0648C42.7759 30.0648 43.1456 30.0648 43.5155 30.0648C43.63 30.2048 43.7622 30.3313 43.8674 30.4838C43.8384 30.5025 43.8115 30.4954 43.7866 30.4954C42.8339 30.4957 41.8811 30.4952 40.9284 30.4969C40.8692 30.4971 40.8275 30.4836 40.7964 30.4339C40.7245 30.3194 40.6288 30.2207 40.5637 30.1019Z" fill="#4896CD"/>
<path d="M1.875 28.7377C1.98512 28.495 2.09435 28.252 2.20554 28.0098C2.27119 27.8667 2.34003 27.725 2.40746 27.5828C2.4377 27.5668 2.47079 27.5709 2.50317 27.5709C5.26971 27.5718 8.03608 27.5709 10.8026 27.5716C10.8667 27.5716 10.9339 27.5592 10.9921 27.5999C11.146 27.9331 11.2999 28.2664 11.4537 28.5996C11.4207 28.6317 11.3774 28.6274 11.3367 28.6276C10.5498 28.6284 9.76279 28.6282 8.97593 28.6279C8.9343 28.6279 8.89267 28.6274 8.85727 28.601C8.83379 28.5414 8.78896 28.5301 8.72545 28.5302C7.37784 28.5323 6.03024 28.5328 4.68246 28.5294C4.59102 28.5292 4.54779 28.5597 4.52342 28.6386C4.51096 28.679 4.48801 28.7164 4.46987 28.7553C4.43215 28.7637 4.39408 28.7663 4.3553 28.7661C3.5793 28.7656 2.80329 28.7661 2.02746 28.7653C1.97587 28.7653 1.92001 28.7772 1.875 28.7377Z" fill="#3C91CA"/>
<path d="M10.9919 27.5999C8.17379 27.5999 5.35565 27.5999 2.53752 27.5996C2.49357 27.5996 2.44821 27.6072 2.40747 27.5828C2.51279 27.35 2.61757 27.1172 2.72342 26.8848C2.75918 26.8065 2.79779 26.7291 2.83497 26.6515C2.87037 26.5983 2.92712 26.607 2.97925 26.6068C3.3016 26.6058 3.62396 26.6063 3.94614 26.6063C4.38075 26.6063 4.81554 26.6058 5.25016 26.607C5.30477 26.6071 5.36526 26.5973 5.40155 26.6548C5.41151 26.7509 5.35316 26.8299 5.32932 26.9178C5.30655 27.0016 5.30459 27.0054 5.39443 27.0054C6.26846 27.0058 7.14249 27.0059 8.01652 27.0053C8.13145 27.0053 8.13732 26.9956 8.09533 26.8922C8.05086 26.7826 8.00478 26.6737 7.96155 26.5638C7.94732 26.5276 7.92419 26.4891 7.96137 26.4518C8.00247 26.4299 8.04748 26.434 8.0916 26.4339C8.83362 26.4335 9.57583 26.4335 10.3179 26.4339C10.3675 26.4339 10.4194 26.4271 10.4623 26.4618C10.5737 26.6976 10.6859 26.9329 10.7964 27.169C10.8631 27.3121 10.9268 27.4562 10.9919 27.5999Z" fill="#378EC9"/>
<path d="M3.90405 24.3251C4.06915 23.9688 4.23424 23.6126 4.39933 23.2562C4.42264 23.239 4.4495 23.2428 4.47618 23.2428C5.9533 23.2466 7.43041 23.2462 8.90771 23.243C8.93439 23.243 8.96125 23.2409 8.98491 23.2562C9.13311 23.5641 9.2781 23.8734 9.41277 24.1869C9.36776 24.2261 9.31208 24.2145 9.26013 24.2145C8.52629 24.2161 7.79226 24.2138 7.05878 24.2162C7.00274 24.2181 6.98459 24.1788 6.96751 24.1376C6.89689 23.9672 6.82733 23.7966 6.75634 23.6264C6.74443 23.5979 6.73838 23.5662 6.70778 23.5362C6.61758 23.7588 6.52525 23.9753 6.43932 24.1945C6.42349 24.2347 6.40873 24.2753 6.39022 24.3144C6.37457 24.3476 6.355 24.376 6.30928 24.3616C6.25039 24.3528 6.19133 24.3528 6.13209 24.3528C5.44041 24.3529 4.74873 24.3531 4.05705 24.3522C4.00474 24.3524 3.94906 24.3643 3.90405 24.3251Z" fill="#2585C6"/>
<path d="M8.98482 23.2562C8.93928 23.27 8.89302 23.2738 8.84535 23.2738C7.40986 23.2731 5.97437 23.2731 4.53889 23.2738C4.49103 23.2738 4.44478 23.2696 4.39941 23.256C4.48676 23.0634 4.57358 22.8705 4.66146 22.6782C4.69722 22.6002 4.73547 22.5233 4.77265 22.4458C4.82122 22.4068 4.87975 22.4178 4.9349 22.4177C6.09659 22.417 7.25811 22.417 8.41981 22.4178C8.47834 22.4178 8.53829 22.4051 8.59575 22.4282C8.7121 22.6282 8.79251 22.8442 8.89463 23.0506C8.92772 23.1179 8.95493 23.1877 8.98482 23.2562Z" fill="#2183C5"/>
<path d="M8.59556 22.4284C8.55785 22.4512 8.51568 22.4458 8.47459 22.4458C7.24049 22.446 6.00656 22.446 4.77246 22.446C4.85252 22.2677 4.93204 22.0891 5.01298 21.9112C5.0797 21.7645 5.1505 21.6194 5.2149 21.4717C5.23411 21.4275 5.2576 21.4114 5.30652 21.4116C6.22698 21.4128 7.14744 21.4125 8.06773 21.4123C8.10473 21.4123 8.13675 21.4142 8.15525 21.4542C8.30078 21.7707 8.44755 22.0867 8.59343 22.403C8.59716 22.4101 8.59503 22.4198 8.59556 22.4284Z" fill="#1C81C4"/>
<path d="M10.4623 26.462C9.62615 26.4622 8.79001 26.4622 7.95387 26.4624C7.90993 26.4608 7.90673 26.4229 7.8957 26.3961C7.75391 26.0555 7.61266 25.7148 7.47603 25.3721C7.46215 25.3372 7.44988 25.3013 7.46927 25.2637C7.51535 25.1968 7.58686 25.1936 7.65891 25.1935C7.98429 25.1928 8.30985 25.1933 8.63524 25.1933C8.9873 25.1933 9.33937 25.1928 9.69144 25.1936C9.75922 25.1938 9.82806 25.1909 9.89158 25.2214C10.0869 25.6328 10.2814 26.0446 10.4623 26.462Z" fill="#308BC8"/>
<path d="M3.90411 24.3249C4.67905 24.3249 5.45399 24.3246 6.22875 24.3251C6.26825 24.3251 6.31432 24.3118 6.33727 24.361C6.35506 24.4119 6.33211 24.4573 6.31343 24.5017C6.18161 24.8147 6.0601 25.1317 5.9281 25.4446C5.90977 25.4881 5.90017 25.5424 5.83274 25.5429C5.06848 25.541 4.30421 25.5433 3.54013 25.5416C3.47982 25.5414 3.41328 25.5547 3.36792 25.4969C3.47164 25.2672 3.57446 25.0373 3.67925 24.8081C3.7529 24.6466 3.82904 24.486 3.90411 24.3249Z" fill="#2B88C7"/>
<path d="M3.36778 25.4968C3.41314 25.5101 3.45939 25.5146 3.50707 25.5146C4.25479 25.5139 5.00233 25.5139 5.75005 25.5148C5.78634 25.5148 5.8278 25.4996 5.85822 25.5344C5.88508 25.5688 5.86284 25.6004 5.85074 25.6313C5.72461 25.9522 5.58941 26.2698 5.46167 26.5902C5.44887 26.6225 5.44513 26.666 5.39496 26.6715C5.37753 26.6304 5.34035 26.6344 5.30476 26.6344C4.5099 26.6344 3.71504 26.6346 2.92035 26.6342C2.89029 26.6342 2.86147 26.6361 2.83496 26.6513C2.94508 26.4089 3.05431 26.1662 3.1655 25.9243C3.23133 25.7812 3.30017 25.6394 3.36778 25.4968Z" fill="#328BC8"/>
<path d="M1.87482 28.7377C2.70633 28.7377 3.53766 28.7375 4.36917 28.7382C4.40297 28.7382 4.44087 28.7251 4.46986 28.7553C4.3295 29.109 4.18326 29.4604 4.02529 29.8073C3.91321 29.7967 3.80078 29.8002 3.68834 29.8002C2.98136 29.8 2.27438 29.8005 1.5674 29.7991C1.51119 29.799 1.44608 29.8157 1.40747 29.7529C1.55566 29.411 1.71328 29.0735 1.87482 28.7377Z" fill="#4394CC"/>
<path d="M11.8702 29.5118C11.9929 29.7721 12.118 30.0313 12.2376 30.2929C12.3142 30.4608 12.3107 30.4625 12.1203 30.4625C11.3215 30.4625 10.5226 30.462 9.72382 30.4635C9.66386 30.4637 9.62953 30.4522 9.60551 30.3916C9.49041 30.1034 9.36926 29.8176 9.25024 29.5312C9.30041 29.4764 9.3689 29.4856 9.43259 29.4854C9.96274 29.4842 10.4929 29.4847 11.0229 29.4847C11.2598 29.4847 11.4966 29.4844 11.7336 29.4849C11.7809 29.4851 11.8293 29.4811 11.8702 29.5118Z" fill="#4695CC"/>
<path d="M9.89158 25.2216C9.84301 25.2565 9.79462 25.2196 9.74606 25.2197C9.03872 25.222 8.33121 25.2215 7.62369 25.2208C7.56018 25.2208 7.50646 25.2335 7.4739 25.2917C7.43085 25.2889 7.42729 25.2517 7.41608 25.2249C7.28764 24.915 7.15919 24.605 7.03199 24.2948C7.02043 24.2665 7.00282 24.2368 7.02897 24.2064C7.0569 24.1741 7.09533 24.1876 7.12895 24.1876C7.89019 24.1869 8.65143 24.1871 9.41249 24.1871C9.5799 24.5286 9.73805 24.8741 9.89158 25.2216Z" fill="#2A88C7"/>
<path d="M11.8702 29.5119C11.088 29.5124 10.3058 29.5127 9.52355 29.5133C9.43211 29.5133 9.34031 29.5083 9.25047 29.531C9.16223 29.3265 9.07328 29.1224 8.98576 28.9177C8.94092 28.813 8.88684 28.7119 8.85767 28.6011C9.72316 28.6007 10.5886 28.6002 11.454 28.5999C11.5264 28.755 11.6007 28.9093 11.6705 29.0656C11.7366 29.2145 11.8162 29.358 11.8702 29.5119Z" fill="#4193CB"/>
<path d="M1.40783 29.7529C1.44518 29.7759 1.48699 29.7719 1.52826 29.7719C2.329 29.7719 3.12991 29.7716 3.93064 29.7728C3.96391 29.7728 4.01177 29.7503 4.02529 29.8073C3.9447 30.003 3.86304 30.1982 3.78441 30.3945C3.76466 30.4437 3.7378 30.4639 3.68051 30.4637C2.83157 30.4618 1.98262 30.4625 1.13368 30.4624C1.11909 30.4624 1.10468 30.4605 1.07568 30.4586C1.18865 30.2189 1.29824 29.9859 1.40783 29.7529Z" fill="#4796CC"/>
<path d="M31.2305 27.3928C31.3856 27.7115 31.5395 28.0306 31.6737 28.3583C31.6518 28.3821 31.6217 28.3835 31.5922 28.3856C31.5596 28.3878 31.5271 28.387 31.4945 28.387C28.5189 28.387 25.5433 28.3871 22.5679 28.3863C22.5076 28.3863 22.4425 28.4025 22.3892 28.3573C22.5292 28.0318 22.6779 27.7102 22.835 27.3921C22.862 27.3714 22.8935 27.3661 22.9268 27.3652C22.9565 27.3645 22.986 27.3645 23.0157 27.3645C25.694 27.3645 28.3722 27.3643 31.0505 27.365C31.1113 27.3648 31.1757 27.3514 31.2305 27.3928Z" fill="#3B90CA"/>
<path d="M31.2304 27.3927C28.4527 27.3927 25.6749 27.3928 22.897 27.3928C22.8763 27.3928 22.8555 27.3923 22.8347 27.392C22.9397 27.1271 23.0701 26.8731 23.1868 26.6132C23.2279 26.5215 23.2736 26.432 23.3172 26.3414C23.3449 26.2982 23.3901 26.2965 23.435 26.2965C24.2037 26.2953 24.9724 26.2955 25.7411 26.2965C25.7884 26.2965 25.8372 26.2977 25.8665 26.3441C25.8866 26.3847 25.8704 26.4218 25.8555 26.4598C25.7954 26.6127 25.7302 26.7635 25.6692 26.9159C25.6338 27.0039 25.634 27.0051 25.7326 27.0053C26.4849 27.0054 27.2372 27.0054 27.9896 27.0054C28.12 27.0054 28.2502 27.007 28.3806 27.0047C28.4676 27.0032 28.474 26.993 28.442 26.9126C28.3728 26.7386 28.2988 26.5664 28.2296 26.3925C28.2145 26.3547 28.1967 26.3179 28.2178 26.2768C28.2522 26.2403 28.2986 26.2449 28.3424 26.2447C29.1036 26.2432 29.865 26.2454 30.6263 26.2434C30.6585 26.2432 30.6928 26.2396 30.7138 26.2724C30.8931 26.6429 31.0671 27.0154 31.2304 27.3927Z" fill="#358DC9"/>
<path d="M24.9192 22.86C25.0603 22.551 25.2013 22.2421 25.3426 21.933C25.412 21.7811 25.4833 21.63 25.5502 21.4771C25.5719 21.4274 25.6022 21.4111 25.6575 21.4111C26.5721 21.4127 27.4868 21.4125 28.4014 21.4118C28.4459 21.4118 28.4799 21.4168 28.5009 21.4632C28.7156 21.9349 28.9319 22.4058 29.1479 22.8769C29.1148 22.9092 29.0716 22.9049 29.0308 22.9049C27.7049 22.9056 26.3792 22.9058 25.0533 22.9045C25.0049 22.9045 24.9498 22.9142 24.9192 22.86Z" fill="#1E82C5"/>
<path d="M24.9192 22.8601C24.9569 22.8832 24.9993 22.8767 25.0402 22.8767C26.4095 22.8768 27.7786 22.8768 29.1479 22.8768C29.3187 23.237 29.4895 23.597 29.6473 23.9627C29.6023 24.0018 29.5466 23.9901 29.4947 23.9901C28.8233 23.991 28.1519 23.9906 27.4803 23.9906C27.4241 23.9906 27.3679 23.9894 27.3127 24.0015C27.2528 24.0148 27.2376 23.9715 27.2204 23.9316C27.1647 23.8029 27.1158 23.6715 27.051 23.528C26.9825 23.6836 26.9268 23.8294 26.8653 23.9728C26.8479 24.0134 26.8381 24.0646 26.7737 24.0614C26.0313 24.0569 25.2891 24.0612 24.5469 24.0586C24.491 24.0584 24.4257 24.0772 24.3862 24.0149C24.564 23.6301 24.7415 23.2451 24.9192 22.8601Z" fill="#2485C6"/>
<path d="M22.3888 28.3572C22.4717 28.3575 22.5547 28.3582 22.6376 28.3582C25.6494 28.3582 28.6615 28.3584 31.6733 28.3584C31.8279 28.6716 31.977 28.9872 32.1163 29.3072C32.0827 29.3643 32.0242 29.351 31.9733 29.3513C31.6358 29.3531 31.2983 29.3522 30.9607 29.3522C30.5225 29.3522 30.0843 29.3524 29.6462 29.352C29.5962 29.352 29.5447 29.3574 29.5008 29.3251C29.3969 29.0851 29.2911 28.8459 29.1907 28.6045C29.1687 28.5515 29.1439 28.5303 29.0826 28.5304C27.7154 28.5322 26.3482 28.532 24.981 28.5313C24.9264 28.5313 24.8958 28.5377 24.8745 28.6021C24.8295 28.7375 24.7629 28.8661 24.7051 28.9976C24.6738 29.0079 24.6413 29.0078 24.6087 29.0078C23.8247 29.0071 23.0409 29.0078 22.2568 29.0069C22.2051 29.0069 22.1492 29.0186 22.1047 28.9781C22.1574 28.8242 22.2378 28.6818 22.3033 28.5332C22.3296 28.4738 22.346 28.4093 22.3888 28.3572Z" fill="#4093CB"/>
<path d="M24.3864 24.0154C24.4213 24.0371 24.4604 24.0319 24.4987 24.0319C25.2266 24.0321 25.9546 24.0319 26.6826 24.0321C26.7237 24.0321 26.7658 24.0271 26.8035 24.0495C26.8196 24.0849 26.8037 24.1167 26.7914 24.1488C26.6456 24.5274 26.4876 24.9015 26.3342 25.2774C26.3191 25.3143 26.3177 25.3771 26.2442 25.358C26.1882 25.3329 26.1286 25.3359 26.0695 25.3357C25.3624 25.3355 24.655 25.3359 23.9479 25.335C23.8961 25.335 23.8402 25.3469 23.7954 25.3069C23.8666 25.1129 23.9637 24.9298 24.0487 24.7417C24.1589 24.4984 24.2736 24.2573 24.3864 24.0154Z" fill="#2A88C7"/>
<path d="M29.501 29.3251C30.3325 29.3246 31.164 29.3242 31.9955 29.3235C32.0364 29.3235 32.0788 29.3306 32.1167 29.3071C32.2899 29.6811 32.4632 30.055 32.6361 30.4292C32.6395 30.4364 32.6388 30.4454 32.6402 30.4544C32.6082 30.4699 32.5755 30.4621 32.544 30.4621C31.7235 30.4627 30.903 30.4614 30.0825 30.4644C30.0034 30.4647 29.9644 30.4459 29.9338 30.3702C29.799 30.0366 29.6554 29.7063 29.5154 29.3748C29.5083 29.3587 29.5056 29.3415 29.501 29.3251Z" fill="#4595CC"/>
<path d="M30.7139 26.2725C30.6644 26.2725 30.6149 26.2725 30.5655 26.2725C29.821 26.2725 29.0765 26.2724 28.3321 26.2732C28.2958 26.2732 28.2545 26.2582 28.2236 26.2922C28.1814 26.2895 28.1752 26.2544 28.1635 26.2265C28.0151 25.876 27.8751 25.5222 27.731 25.1702C27.7159 25.1334 27.6983 25.0936 27.7404 25.0596C27.7749 25.0385 27.8137 25.0382 27.8521 25.0382C28.5822 25.0373 29.3122 25.0376 30.0423 25.0378C30.0841 25.0378 30.1252 25.0402 30.1604 25.0661C30.3447 25.4684 30.5294 25.8705 30.7139 26.2725Z" fill="#2F8AC8"/>
<path d="M30.1603 25.0661C29.3861 25.0661 28.612 25.0661 27.8378 25.0659C27.7994 25.0659 27.7608 25.063 27.7259 25.0834C27.6825 25.0811 27.6793 25.0435 27.6683 25.0171C27.5393 24.7077 27.4121 24.3974 27.2844 24.0875C27.2726 24.0592 27.2554 24.0295 27.2815 23.9993C27.3046 23.9503 27.3507 23.9632 27.3902 23.9632C28.1426 23.9627 28.8949 23.9629 29.6472 23.9629C29.8182 24.3306 29.9894 24.6984 30.1603 25.0661Z" fill="#2987C7"/>
<path d="M23.7955 25.3068C24.5788 25.307 25.3621 25.307 26.1454 25.3077C26.1934 25.3077 26.2496 25.2947 26.2695 25.36C26.2945 25.3945 26.2729 25.4262 26.2608 25.457C26.1505 25.7372 26.0324 26.0144 25.9212 26.2943C25.9102 26.3219 25.9052 26.3578 25.862 26.3591C25.8369 26.3315 25.8063 26.3234 25.7679 26.3234C24.9796 26.3245 24.1915 26.3243 23.4032 26.3239C23.373 26.3239 23.3441 26.3265 23.3176 26.3415C23.4688 25.9931 23.6266 25.6475 23.7955 25.3068Z" fill="#308BC8"/>
<path d="M24.3847 29.7556C24.2925 29.9791 24.1998 30.2022 24.1084 30.4261C24.0883 30.4751 24.0465 30.462 24.0104 30.462C23.4623 30.4625 22.9141 30.4623 22.366 30.4623C22.0757 30.4623 21.7854 30.4613 21.495 30.4632C21.4374 30.4635 21.4139 30.459 21.4449 30.395C21.5504 30.177 21.6507 29.9565 21.753 29.737C21.7914 29.6814 21.8517 29.692 21.9065 29.692C22.6857 29.6911 23.4649 29.6913 24.2441 29.6916C24.2767 29.6916 24.3098 29.6897 24.3415 29.6983C24.3699 29.7061 24.4021 29.714 24.3847 29.7556Z" fill="#4896CD"/>
<path d="M24.3847 29.7556C24.3786 29.7136 24.3452 29.72 24.3166 29.72C23.4877 29.7199 22.6587 29.72 21.8298 29.7195C21.8025 29.7195 21.777 29.7243 21.7532 29.7369C21.8642 29.4812 21.9763 29.2258 22.1049 28.9778C22.9353 28.9782 23.7658 28.9782 24.5962 28.9794C24.6327 28.9794 24.6738 28.9647 24.7053 28.9973C24.6074 29.2537 24.5019 29.5069 24.3847 29.7556Z" fill="#4193CB"/>
<path d="M7.02919 24.2064C7.07687 24.3712 7.15408 24.5251 7.21759 24.6841C7.29925 24.888 7.3882 25.0893 7.47412 25.2917C7.59848 25.6007 7.72248 25.9098 7.84772 26.2185C7.88099 26.3007 7.91852 26.3813 7.95428 26.4626C8.01939 26.6255 8.08273 26.7889 8.15051 26.9508C8.17595 27.0117 8.16403 27.0303 8.09447 27.0303C7.1644 27.0294 6.23415 27.0307 5.30408 27.031C5.29252 27.031 5.28096 27.0288 5.2605 27.0267C5.3064 26.9059 5.35105 26.7889 5.39553 26.6717C5.48394 26.5098 5.53802 26.3343 5.60865 26.1654C5.69582 25.9566 5.78904 25.75 5.8586 25.5347C5.96107 25.3296 6.03722 25.1141 6.1235 24.9025C6.19679 24.7229 6.27827 24.5462 6.33751 24.3612C6.42913 24.1853 6.48837 23.9967 6.56754 23.8159C6.6154 23.7068 6.65863 23.5958 6.71324 23.4631C6.77746 23.6178 6.83119 23.7517 6.88865 23.8844C6.93508 23.9919 6.96835 24.1047 7.02919 24.2064Z" fill="#0C4C75"/>
<path d="M25.8619 26.3591C25.9495 26.1511 26.0384 25.9439 26.124 25.7353C26.175 25.6112 26.2211 25.485 26.2693 25.3599C26.4008 25.0826 26.5022 24.7935 26.6219 24.5116C26.6865 24.359 26.7433 24.2034 26.8034 24.0493C26.8836 23.8622 26.9638 23.6751 27.0501 23.4734C27.1421 23.6515 27.1901 23.8347 27.2814 23.9994C27.3285 24.1625 27.4049 24.3148 27.4677 24.4722C27.5497 24.6776 27.6393 24.88 27.7258 25.0836C27.8512 25.3949 27.9754 25.7068 28.1028 26.0174C28.1407 26.1099 28.1691 26.2065 28.2236 26.2925C28.2869 26.4925 28.3787 26.6818 28.4564 26.8763C28.518 27.0299 28.5205 27.0293 28.3502 27.0295C27.4627 27.0302 26.5751 27.0307 25.6876 27.0312C25.6613 27.0312 25.6351 27.0312 25.5986 27.0312C25.6888 26.8014 25.7753 26.5803 25.8619 26.3591Z" fill="#0C4C75"/>
<path d="M5.89109 26.9763C5.73222 26.9763 5.57318 26.9763 5.41431 26.9763C5.37802 26.9335 5.40755 26.8936 5.42303 26.8557C5.6865 26.2158 5.94553 25.5742 6.20758 24.9336C6.35061 24.584 6.49489 24.235 6.63507 23.8844C6.65251 23.8407 6.66051 23.7729 6.71886 23.7749C6.76921 23.7768 6.77544 23.8424 6.79252 23.8838C7.17518 24.8145 7.55589 25.746 7.9414 26.6757C7.97004 26.7449 7.99673 26.8149 8.0227 26.8852C8.05028 26.9599 8.04263 26.9701 7.96115 26.9702C7.67081 26.9708 7.38048 26.9704 7.09014 26.9704C6.70801 26.9704 6.3257 26.9704 5.94357 26.9706C5.92578 26.9704 5.90763 26.9678 5.89109 26.9763Z" fill="#FEFEFE"/>
<path d="M5.89114 26.9763C6.07669 26.9525 6.26313 26.9672 6.44904 26.9656C6.94378 26.9613 7.4387 26.9625 7.93344 26.9615C8.02898 26.9613 8.02951 26.9609 7.99269 26.8712C7.57622 25.8556 7.1594 24.8402 6.74257 23.8248C6.73617 23.8095 6.72781 23.7948 6.71215 23.7638C6.66163 23.8851 6.61591 23.9926 6.57179 24.1008C6.19677 25.0211 5.82176 25.9414 5.44745 26.8621C5.43251 26.8988 5.40796 26.9335 5.41436 26.9763C5.33377 26.9911 5.35138 26.9504 5.36989 26.9052C5.53231 26.5081 5.6942 26.1109 5.85627 25.7136C6.13362 25.0339 6.41096 24.3539 6.68831 23.6742C6.69454 23.6588 6.69401 23.6392 6.72158 23.6292C6.82636 23.8832 6.93133 24.1372 7.03575 24.3914C7.37697 25.2225 7.71729 26.0539 8.06047 26.8841C8.08715 26.9487 8.07416 26.9773 8.00549 26.9775C7.30065 26.9777 6.5958 26.9768 5.89114 26.9763Z" fill="#8B95A0"/>
<path d="M26.2324 26.9763C26.0733 26.9764 25.9143 26.9764 25.7551 26.9766C25.7172 26.9348 25.7451 26.8953 25.7611 26.8565C25.9248 26.4594 26.0856 26.0611 26.2478 25.6634C26.4907 25.0682 26.7337 24.473 26.9756 23.8776C26.9922 23.8369 26.997 23.7723 27.0498 23.7708C27.105 23.7691 27.1092 23.8341 27.126 23.8745C27.5197 24.8286 27.9089 25.7843 28.3047 26.7376C28.3257 26.7882 28.3451 26.8396 28.3629 26.8912C28.3867 26.9604 28.3786 26.97 28.3019 26.9702C28.0471 26.9707 27.7924 26.9704 27.5376 26.9704C27.1199 26.9704 26.7022 26.9704 26.2847 26.9706C26.2671 26.9706 26.2491 26.9681 26.2324 26.9763Z" fill="#FEFEFE"/>
<path d="M26.2324 26.9762C26.4177 26.9526 26.6042 26.9673 26.7901 26.9655C27.2818 26.9612 27.7735 26.9624 28.2652 26.9616C28.2948 26.9616 28.3241 26.9616 28.3684 26.9616C27.9303 25.8949 27.4956 24.8371 27.0518 23.757C26.9756 23.9427 26.908 24.1061 26.8413 24.27C26.4869 25.1394 26.1326 26.0088 25.7785 26.8782C25.7657 26.9098 25.7446 26.9398 25.7551 26.9768C25.685 26.9895 25.6834 26.9642 25.7063 26.9081C25.9949 26.2045 26.2815 25.5003 26.5684 24.796C26.7173 24.4305 26.866 24.065 27.0148 23.6997C27.0233 23.6788 27.0272 23.6557 27.0491 23.6401C27.0786 23.6508 27.0795 23.6791 27.0888 23.7016C27.5237 24.7592 27.9584 25.8169 28.3932 26.8748C28.4296 26.9635 28.4234 26.9775 28.3296 26.9776C27.6364 26.9795 26.9429 26.9797 26.2496 26.9802C26.2439 26.9804 26.2381 26.9776 26.2324 26.9762Z" fill="#8B95A0"/>
</svg>
