<svg width="45" height="45" viewBox="0 0 45 45" fill="none" xmlns="http://www.w3.org/2000/svg">
<path d="M38.9808 10.0986L22.5719 4.05323C22.3791 3.98226 22.1672 3.98226 21.9743 4.05323L5.56541 10.0986C5.38352 10.1655 5.22943 10.2917 5.12792 10.4568C5.02641 10.6219 4.98339 10.8164 5.00578 11.0089L7.59666 33.4632C7.61209 33.5988 7.65963 33.7287 7.73533 33.8423C7.81103 33.9558 7.9127 34.0497 8.03193 34.1161L21.85 41.8887C21.9791 41.9617 22.1248 42 22.2731 42C22.4214 42 22.5672 41.9617 22.6963 41.8887L36.5143 34.1161C36.6336 34.0497 36.7352 33.9558 36.8109 33.8423C36.8866 33.7287 36.9342 33.5988 36.9496 33.4632L39.5405 11.0089C39.5629 10.8164 39.5198 10.6219 39.4183 10.4568C39.3168 10.2917 39.1627 10.1655 38.9808 10.0986Z" fill="url(#paint0_linear_11_2805)"/>
<path d="M21.4786 9.71005L11.9788 32.1643C11.9272 32.2699 11.8977 32.3848 11.8921 32.5021C11.8865 32.6194 11.9048 32.7366 11.9461 32.8465C11.9873 32.9565 12.0505 33.0569 12.1318 33.1416C12.2132 33.2263 12.3109 33.2935 12.4191 33.3392C12.5273 33.3848 12.6437 33.4079 12.7611 33.407C12.8786 33.4061 12.9946 33.3813 13.1021 33.3341C13.2096 33.2869 13.3064 33.2182 13.3865 33.1323C13.4665 33.0464 13.5282 32.9451 13.5678 32.8345L16.2675 26.454H28.2788L30.9785 32.8345C31.0442 32.9911 31.1546 33.1247 31.296 33.2188C31.4373 33.3128 31.6033 33.363 31.7731 33.3631C31.8888 33.3625 32.0033 33.339 32.1099 33.294C32.3201 33.2045 32.4862 33.0354 32.572 32.8237C32.6578 32.612 32.6562 32.3749 32.5676 32.1643L23.0677 9.71005C22.9915 9.56539 22.8772 9.4443 22.7371 9.35983C22.5971 9.27536 22.4367 9.23071 22.2732 9.23071C22.1097 9.23071 21.9492 9.27536 21.8092 9.35983C21.6692 9.4443 21.5549 9.56539 21.4786 9.71005ZM27.5465 24.7268H16.9999L22.2732 12.2612L27.5465 24.7268Z" fill="white"/>
<defs>
<linearGradient id="paint0_linear_11_2805" x1="5" y1="23" x2="39.5463" y2="23" gradientUnits="userSpaceOnUse">
<stop offset="0.5" stop-color="#FF1744"/>
<stop offset="0.5" stop-color="#D8032C"/>
</linearGradient>
</defs>
</svg>
