<svg width="45" height="45" viewBox="0 0 45 45" fill="none" xmlns="http://www.w3.org/2000/svg">
<path d="M38.601 26.0408L38.5923 26.0306L36.5419 24.1479C36.6655 23.0528 36.6655 21.9472 36.5419 20.8521L38.601 18.9592C39.4556 18.1556 39.651 16.881 39.0706 15.8471L36.6512 11.6617C36.3637 11.163 35.9145 10.7776 35.3779 10.5691C34.8414 10.3607 34.2498 10.3417 33.701 10.5154L31.044 11.3525C30.1652 10.6865 29.2083 10.1306 28.1944 9.69729L27.579 6.96583C27.4515 6.40993 27.1401 5.91335 26.6951 5.55655C26.2502 5.19975 25.6978 5.00364 25.1275 5H20.2771C19.1119 5 18.0808 5.82688 17.8256 6.96583L17.2102 9.69875C16.1968 10.1324 15.2399 10.6878 14.3606 11.3525L11.7006 10.514C10.566 10.161 9.32645 10.6423 8.7577 11.6515L6.3252 15.8588C6.04687 16.357 5.94359 16.9342 6.03189 17.4981C6.12019 18.062 6.39496 18.58 6.81229 18.9694L8.8627 20.8521C8.73862 21.9472 8.73813 23.0527 8.86125 24.1479L6.80208 26.0408C6.38612 26.4317 6.11366 26.9511 6.02849 27.5156C5.94332 28.08 6.05039 28.6567 6.3325 29.1529L8.75187 33.3383C9.03962 33.8368 9.48887 34.222 10.0253 34.4305C10.5618 34.6389 11.1533 34.658 11.7021 34.4846L14.3592 33.6475C15.2379 34.3135 16.1949 34.8694 17.2087 35.3027L17.8242 38.0342C17.9522 38.5901 18.2639 39.0865 18.7091 39.4433C19.1542 39.8 19.7066 39.9962 20.2771 40H25.1275C26.2927 40 27.3237 39.1731 27.579 38.0342L28.1944 35.3013C29.2084 34.8683 30.1654 34.3124 31.044 33.646L33.704 34.4846C34.8415 34.8419 36.0781 34.3577 36.6469 33.3471L39.0794 29.1398C39.651 28.119 39.4556 26.8444 38.601 26.0408Z" fill="#607D8B"/>
<path d="M22.7023 5H20.2771C19.1119 5 18.0808 5.82688 17.8256 6.96583L17.2102 9.69875C16.1968 10.1324 15.2399 10.6878 14.3606 11.3525L11.7006 10.514C11.455 10.4379 11.1994 10.399 10.9423 10.3987C10.0512 10.3987 9.20104 10.8654 8.7577 11.6515L6.3252 15.8588C6.04687 16.357 5.94359 16.9342 6.03189 17.4981C6.12019 18.062 6.39496 18.58 6.81229 18.9694L8.8627 20.8521C8.73862 21.9472 8.73813 23.0527 8.86125 24.1479L6.80208 26.0408C6.38612 26.4317 6.11366 26.9511 6.02849 27.5156C5.94332 28.08 6.05039 28.6567 6.3325 29.1529L8.75187 33.3383C9.19958 34.1317 10.0498 34.6013 10.9423 34.6013C11.1946 34.6013 11.4512 34.5633 11.7021 34.4846L14.3592 33.6475C15.2379 34.3135 16.1949 34.8694 17.2087 35.3027L17.8242 38.0342C17.9522 38.5901 18.2639 39.0865 18.7091 39.4433C19.1542 39.8 19.7066 39.9962 20.2771 40H22.7023V5Z" fill="#546D79"/>
<path d="M21.3622 28.3055C21.0797 28.2402 20.8347 28.0654 20.681 27.8196C20.5273 27.5738 20.4776 27.277 20.5426 26.9944L22.7301 17.5153C22.803 17.2411 22.9796 17.0061 23.2225 16.8596C23.4655 16.7132 23.7558 16.6669 24.0322 16.7305C24.3087 16.794 24.5496 16.9625 24.7042 17.2004C24.8588 17.4382 24.9149 17.7268 24.8607 18.0053L22.6732 27.4844C22.6412 27.6245 22.5819 27.7569 22.4987 27.8741C22.4154 27.9912 22.3099 28.0908 22.1881 28.167C22.0663 28.2433 21.9307 28.2948 21.7889 28.3185C21.6472 28.3423 21.5022 28.3379 21.3622 28.3055ZM27.442 26.8749C27.2202 26.8759 27.0033 26.8094 26.8203 26.6842C26.6372 26.559 26.4966 26.381 26.4171 26.174C26.3376 25.9669 26.3231 25.7405 26.3754 25.525C26.4277 25.3095 26.5444 25.115 26.7099 24.9674L29.453 22.4999L26.7099 20.0324C26.603 19.9362 26.5161 19.82 26.4542 19.6903C26.3923 19.5605 26.3565 19.4199 26.3489 19.2764C26.3336 18.9865 26.4341 18.7023 26.6282 18.4865C26.7244 18.3797 26.8406 18.2928 26.9703 18.2308C27.1 18.1689 27.2407 18.1331 27.3842 18.1255C27.6741 18.1102 27.9582 18.2107 28.1741 18.4049L31.8199 21.6861C31.9335 21.789 32.0243 21.9146 32.0864 22.0548C32.1486 22.1949 32.1807 22.3465 32.1807 22.4999C32.1807 22.6532 32.1486 22.8048 32.0864 22.9449C32.0243 23.0851 31.9335 23.2107 31.8199 23.3136L28.1741 26.5949C27.9731 26.7755 27.7122 26.8753 27.442 26.8749ZM17.9628 26.8749C17.6925 26.8753 17.4317 26.7755 17.2307 26.5949L13.5849 23.3136C13.4713 23.2107 13.3805 23.0851 13.3184 22.9449C13.2562 22.8048 13.2241 22.6532 13.2241 22.4999C13.2241 22.3465 13.2562 22.1949 13.3184 22.0548C13.3805 21.9146 13.4713 21.789 13.5849 21.6861L17.2307 18.4049C17.4482 18.222 17.7282 18.1308 18.0116 18.1506C18.2951 18.1703 18.5597 18.2994 18.7497 18.5107C18.9398 18.7219 19.0403 18.9987 19.03 19.2826C19.0198 19.5665 18.8996 19.8354 18.6949 20.0324L15.9518 22.4999L18.6949 24.9674C18.8596 25.1153 18.9756 25.3098 19.0274 25.5251C19.0793 25.7403 19.0645 25.9663 18.9852 26.173C18.9059 26.3797 18.7656 26.5575 18.5831 26.6828C18.4005 26.8082 18.1842 26.8751 17.9628 26.8749Z" fill="#FAFAFA"/>
<path d="M23.8238 22.5H21.5794L20.5425 26.9946C20.5054 27.155 20.505 27.3218 20.5413 27.4824C20.5777 27.643 20.65 27.7933 20.7526 27.922C20.8553 28.0508 20.9857 28.1547 21.1342 28.2259C21.2827 28.2971 21.4453 28.3338 21.61 28.3333C21.8573 28.333 22.0971 28.2489 22.2905 28.0948C22.4838 27.9407 22.6192 27.7256 22.6746 27.4846L23.8238 22.5ZM32.1815 22.5H29.4529L26.7098 24.9675C26.494 25.1617 26.3641 25.4336 26.3488 25.7235C26.3335 26.0134 26.434 26.2975 26.6281 26.5133C26.8223 26.7292 27.0942 26.859 27.3841 26.8743C27.674 26.8896 27.9582 26.7892 28.174 26.595L31.8198 23.3137C31.9336 23.2109 32.0245 23.0853 32.0868 22.9452C32.1491 22.805 32.1814 22.6534 32.1815 22.5ZM15.9517 22.5H13.2231C13.2231 22.8092 13.3544 23.1052 13.5848 23.3137L17.2306 26.595C17.3374 26.6914 17.4621 26.7658 17.5976 26.8139C17.7332 26.862 17.8769 26.8829 18.0205 26.8753C18.1642 26.8677 18.3049 26.8318 18.4346 26.7697C18.5643 26.7076 18.6805 26.6205 18.7765 26.5133C18.9705 26.2974 19.0709 26.0134 19.0555 25.7235C19.0402 25.4337 18.9105 25.1617 18.6948 24.9675L15.9517 22.5Z" fill="#DADADA"/>
</svg>
