<svg width="45" height="45" viewBox="0 0 45 45" fill="none" xmlns="http://www.w3.org/2000/svg">
<path d="M29.8355 18.2254L29.6213 18.1084C29.7341 18.3808 29.7708 18.613 29.7668 18.8206C29.8089 18.6497 29.8324 18.4748 29.8369 18.2988C29.8402 18.5115 29.8142 18.7235 29.7598 18.9291L29.7668 18.8206C29.7058 19.0764 29.6034 19.3203 29.4634 19.543L29.5298 19.4723C28.7162 20.8337 26.4966 21.1312 25.402 19.7252C23.6448 17.468 25.4381 15.0346 25.6893 12.6444C26.0031 9.64878 24.1248 6.74047 21.7956 5C23.0784 7.07523 21.3882 9.8211 20.0359 11.3556C18.7246 12.8441 17.1302 14.0865 15.6826 15.438C14.1281 16.8909 12.6325 18.4198 11.3551 20.1241C8.79875 23.5349 7.23343 27.8249 8.38376 32.0808C9.53296 36.334 13.2167 39.0412 17.3768 39.9983C15.2781 39.0909 13.3142 36.7855 13.3097 34.4266C13.3043 31.8542 14.934 29.6708 16.9615 28.236C16.7177 29.1566 16.5847 29.9987 17.1883 30.8222C17.75 31.5881 18.733 31.9598 19.661 31.7579C21.8303 31.2835 21.9295 28.899 20.6439 27.5097C19.3723 26.1345 18.1423 24.5799 18.626 22.5849C18.8684 21.5849 19.4825 20.6487 20.2608 19.9786C19.6625 21.5501 21.3617 23.0999 22.4809 23.8711C24.4234 25.2104 26.5534 26.2229 28.3394 27.7924C30.2174 29.4422 31.6047 31.6728 31.3245 34.2605C31.0205 37.0649 28.7922 39.0155 26.293 40C31.5745 38.8339 37.0329 34.7345 37.144 28.8764C37.2369 24.0575 33.9311 20.3486 29.8355 18.2254Z" fill="#EE4323"/>
</svg>
