<svg width="45" height="45" viewBox="0 0 45 45" fill="none" xmlns="http://www.w3.org/2000/svg">
<path d="M7 4L9.29805 36.3824L23.3465 41L37.3948 36.3824L39.6928 4H7Z" fill="#FF7816"/>
<path d="M39.6928 4L37.3948 36.3824L23.3464 41V4H39.6928Z" fill="#FF4B00"/>
<path d="M33.5576 13.8281H17.4929L17.883 19.248H33.1675L32.235 32.3713L23.3464 35.3415L14.4577 32.3713L14.1542 27.9922H18.4902L18.5769 29.1846L23.3464 30.767L28.116 29.1846L28.5061 23.584H13.8291L12.8318 9.49219H33.8611L33.5576 13.8281Z" fill="#ECECF1"/>
<path d="M33.1676 19.248L32.2351 32.3713L23.3464 35.3415V30.7671L28.116 29.1846L28.5061 23.584H23.3464V19.248H33.1676ZM33.8612 9.49219L33.5576 13.8281H23.3465V9.49219H33.8612Z" fill="#E2E2E7"/>
</svg>
