<svg width="45" height="45" viewBox="0 0 45 45" fill="none" xmlns="http://www.w3.org/2000/svg">
<path d="M22.4461 25.0065C22.9632 25.0065 23.4687 24.8532 23.8986 24.5659C24.3286 24.2786 24.6637 23.8703 24.8616 23.3926C25.0595 22.9148 25.1112 22.3891 25.0104 21.882C24.9095 21.3748 24.6605 20.909 24.2948 20.5433C23.9292 20.1777 23.4633 19.9287 22.9562 19.8278C22.449 19.7269 21.9233 19.7787 21.4456 19.9766C20.9678 20.1744 20.5595 20.5095 20.2722 20.9395C19.9849 21.3695 19.8316 21.8749 19.8316 22.392C19.8328 23.0851 20.1086 23.7494 20.5987 24.2395C21.0887 24.7295 21.7531 25.0053 22.4461 25.0065ZM22.4461 21.5775C22.6072 21.5775 22.7647 21.6253 22.8986 21.7148C23.0326 21.8043 23.1369 21.9315 23.1986 22.0803C23.2602 22.2292 23.2764 22.3929 23.2449 22.5509C23.2135 22.7089 23.1359 22.8541 23.022 22.968C22.9081 23.0819 22.763 23.1595 22.605 23.1909C22.447 23.2223 22.2832 23.2062 22.1344 23.1445C21.9856 23.0829 21.8584 22.9785 21.7689 22.8445C21.6794 22.7106 21.6316 22.5531 21.6316 22.392C21.6386 22.1803 21.7273 21.9795 21.8792 21.8319C22.0311 21.6842 22.2343 21.6011 22.4461 21.6V21.5775ZM43.6501 22.5C43.6501 19.5525 39.2761 17.469 33.4711 16.335C35.5186 10.8 36.0001 5.96254 33.4936 4.43254C31.6936 3.32554 28.9306 4.31554 25.5646 7.29454C24.6484 8.117 23.7757 8.98668 22.9501 9.90004C22.1896 8.93234 21.3785 8.00554 20.5201 7.12354C17.3701 3.91504 14.7061 2.73604 12.8116 3.71254C10.9171 4.68904 10.3501 7.53304 11.1151 11.961C11.385 13.3934 11.7381 14.8088 12.1726 16.2C6.0481 17.316 1.3501 19.4445 1.3501 22.5C1.3501 25.4475 5.7241 27.531 11.5291 28.665C9.4816 34.2 9.0001 39.0375 11.5066 40.5675C12.0015 40.8677 12.5704 41.0235 13.1491 41.0175C14.8276 41.0175 16.9651 39.9015 19.4491 37.7145C20.3609 36.8888 21.2291 36.0161 22.0501 35.1C22.8106 36.0677 23.6217 36.9945 24.4801 37.8765C26.9101 40.356 29.0521 41.6205 30.7801 41.6205C31.2712 41.6263 31.7562 41.512 32.1931 41.2875C34.0876 40.311 34.6726 37.458 33.8851 33.03C33.6223 31.6012 33.2767 30.1888 32.8501 28.8C38.9521 27.684 43.6501 25.5555 43.6501 22.5ZM26.7571 8.64004C29.1331 6.53854 30.8341 5.80054 31.8511 5.80054C32.0978 5.79187 32.3422 5.85102 32.5576 5.97154C33.8356 6.75004 33.7501 10.539 31.6801 16.02C30.1096 15.777 28.4581 15.597 26.7841 15.4845C25.8841 14.013 24.9841 12.627 24.0526 11.349C24.9027 10.3962 25.8056 9.49174 26.7571 8.64004ZM15.3856 24.3C15.6286 24.7995 15.8761 25.3035 16.1326 25.803C16.4611 26.433 16.7896 27.054 17.1316 27.6615C16.0276 27.5685 14.9776 27.4485 13.9816 27.3015C14.4001 26.316 14.8501 25.317 15.3856 24.3ZM14.5441 17.6445C15.4126 17.5275 16.3441 17.4285 17.2801 17.3475C16.9786 17.82 16.6771 18.2925 16.3801 18.7785C16.0831 19.2645 15.8086 19.7325 15.5296 20.214C15.1741 19.35 14.8501 18.486 14.5441 17.6445ZM16.4386 22.2795C16.8886 21.4425 17.3881 20.5875 17.9191 19.7145C18.4501 18.8415 18.9811 18.018 19.5256 17.208C20.4856 17.163 21.4771 17.1405 22.5001 17.1405C23.6116 17.1405 24.6871 17.1675 25.7176 17.217C26.2486 18.117 26.7646 19.059 27.2656 20.043C27.7156 20.943 28.1656 21.843 28.5616 22.743C28.1116 23.58 27.6121 24.435 27.0811 25.308C26.5501 26.181 26.0191 27 25.4746 27.792C24.5146 27.837 23.5231 27.8595 22.5001 27.8595C21.3886 27.8595 20.3131 27.8325 19.2826 27.783C18.7516 26.883 18.2356 25.941 17.7346 24.957C17.2711 24.0615 16.8481 23.166 16.4386 22.2795ZM28.6156 26.2215C28.9081 25.749 29.1871 25.2675 29.4661 24.786C29.8261 25.6545 30.1591 26.514 30.4561 27.3555C29.5876 27.4725 28.6561 27.5715 27.7201 27.6525C28.0216 27.18 28.3231 26.7075 28.6156 26.2215ZM29.6146 20.7225C29.3716 20.223 29.1241 19.719 28.8676 19.2195C28.5391 18.5895 28.2106 17.9685 27.8686 17.361C28.9696 17.454 30.0196 17.574 31.0186 17.721C30.6001 18.684 30.1501 19.683 29.6146 20.7225ZM24.6061 15.3765C23.9041 15.3495 23.1976 15.3405 22.5001 15.3405H20.8171C21.4876 14.4405 22.1671 13.5405 22.8466 12.7215C23.4406 13.5765 24.0256 14.4585 24.6061 15.3765ZM13.6306 5.30104C13.8127 5.21284 14.0133 5.16963 14.2156 5.17504C15.2146 5.17504 16.9156 6.00754 19.2286 8.37454C20.12 9.28418 20.9583 10.2443 21.7396 11.25C20.6596 12.5325 19.5841 13.95 18.5356 15.444C16.9786 15.543 15.4441 15.696 13.9681 15.894C13.5191 14.4915 13.1584 13.0622 12.8881 11.6145C12.1726 7.61854 12.8026 5.72854 13.6306 5.30104ZM3.1501 22.5C3.1501 20.9565 6.6421 18.9945 12.7351 17.9235C13.2256 19.323 13.7881 20.763 14.4316 22.221C13.5991 23.805 12.8431 25.407 12.1816 26.973C6.4396 25.884 3.1501 23.994 3.1501 22.5ZM18.2431 36.36C15.1831 39.06 13.2391 39.51 12.4426 39.0285C11.1646 38.25 11.2501 34.461 13.3201 28.98C14.8906 29.223 16.5421 29.403 18.2161 29.5155C19.1161 30.987 20.0161 32.373 20.9476 33.651C20.0975 34.6039 19.1946 35.5083 18.2431 36.36ZM20.3941 29.61C21.0961 29.637 21.8026 29.646 22.5001 29.646H24.1831C23.5126 30.546 22.8331 31.446 22.1536 32.265C21.5596 31.4235 20.9746 30.5415 20.3941 29.6235V29.61ZM31.3696 39.699C30.5371 40.149 28.6336 39.5415 25.7716 36.6255C24.8802 35.7159 24.0419 34.7558 23.2606 33.75C24.3406 32.4675 25.4161 31.05 26.4646 29.556C28.0216 29.457 29.5561 29.304 31.0321 29.106C31.4811 30.5086 31.8418 31.9379 32.1121 33.3855C32.8501 37.3815 32.1976 39.2715 31.3696 39.699ZM32.2696 27.099C31.7605 25.6449 31.1946 24.2113 30.5731 22.8015C31.4056 21.2175 32.1616 19.6155 32.8231 18.0495C38.5606 19.116 41.8501 21.006 41.8501 22.5C41.8501 23.994 38.3581 26.0055 32.2651 27.0765L32.2696 27.099Z" fill="url(#paint0_linear_16_127)"/>
<defs>
<linearGradient id="paint0_linear_16_127" x1="1.3501" y1="22.5" x2="43.6501" y2="22.5" gradientUnits="userSpaceOnUse">
<stop stop-color="#0164FF"/>
<stop offset="1" stop-color="#3DBAF2"/>
</linearGradient>
</defs>
</svg>
