<svg width="45" height="45" viewBox="0 0 45 45" fill="none" xmlns="http://www.w3.org/2000/svg">
<path d="M12.4194 18.6711H37.935V37.5307H12.4194V18.6711Z" fill="white"/>
<path d="M7 23V39H39V7H7V23ZM32.7869 21.72C33.5533 21.8979 34.2499 22.2987 34.7888 22.872C35.0855 23.1809 35.3434 23.5247 35.5568 23.896C35.5568 23.937 34.1744 24.8714 33.3322 25.3936C33.3014 25.4141 33.1786 25.281 33.0429 25.0787C32.8891 24.8134 32.6707 24.5914 32.4079 24.4334C32.1451 24.2753 31.8466 24.1865 31.5402 24.175C30.5699 24.1085 29.9453 24.6179 29.9504 25.455C29.9424 25.6635 29.9901 25.8702 30.0886 26.0541C30.3011 26.497 30.6979 26.7606 31.9421 27.2982C34.2333 28.2838 35.2138 28.9341 35.823 29.8582C36.504 30.8822 36.655 32.536 36.1942 33.7597C35.6822 35.0909 34.4278 35.9946 32.6538 36.2941C31.8435 36.3869 31.0248 36.3783 30.2166 36.2685C28.978 36.0643 27.8371 35.4696 26.9603 34.5712C26.6659 34.2461 26.0925 33.3987 26.1283 33.3373C26.2218 33.2679 26.3202 33.2054 26.4227 33.1504L27.608 32.495L28.527 31.9626L28.719 32.2467C29.0431 32.7102 29.4554 33.1052 29.9325 33.409C30.9565 33.9466 32.3542 33.8723 33.0454 33.2502C33.2775 33.0223 33.4223 32.7202 33.4546 32.3965C33.4868 32.0728 33.4046 31.748 33.2221 31.4787C32.9661 31.1229 32.4541 30.8234 31.023 30.1987C29.3718 29.487 28.6602 29.0467 28.0099 28.3453C27.604 27.8824 27.3043 27.3363 27.1318 26.7453C27.0032 26.0701 26.9842 25.3785 27.0755 24.6973C27.416 23.1024 28.6115 21.9888 30.3574 21.6586C31.166 21.5585 31.985 21.581 32.7869 21.7251V21.72ZM25.2758 23.0614V24.3722H21.121V36.207H18.1744V24.3696H14.0093V23.0896C13.9963 22.6482 14.0066 22.2064 14.04 21.7661C14.0605 21.743 16.6 21.743 19.672 21.743H25.2605L25.2758 23.0614Z" fill="#007ACC"/>
</svg>
