<svg width="45" height="45" viewBox="0 0 45 45" fill="none" xmlns="http://www.w3.org/2000/svg">
<path d="M14.2987 14.6533H12.0346L18.2073 32.102L21.6629 22.2269L18.9837 14.6533H16.5948V12.9906H27.1736V14.6533H24.6963L30.8689 32.102L33.0877 25.7613C35.9984 17.6375 30.7021 15.107 30.7021 13.294C30.7021 11.4809 32.1719 10.0113 33.9848 10.0113C34.0829 10.0113 34.1781 10.0166 34.2715 10.0253C31.1996 7.12546 27.0575 5.34717 22.4998 5.34717C16.5443 5.34717 11.2984 8.38283 8.2232 12.9906H14.2985V14.6533H14.2987ZM5.34717 22.4999C5.34717 29.0669 9.03821 34.771 14.4583 37.6533L6.71755 15.772C5.83577 17.8378 5.34717 20.1118 5.34717 22.4999ZM37.4278 14.0476C37.6732 15.4923 37.5989 17.116 37.2224 18.746H37.2906L37.0313 19.4871C36.8776 20.0222 36.6841 20.5696 36.4643 21.1075L30.5622 37.6422C35.9709 34.7564 39.6525 29.0585 39.6525 22.4998C39.6525 19.4265 38.8435 16.5425 37.4278 14.0476Z" fill="#00769D"/>
<path d="M17.21 38.8201C18.8763 39.3599 20.6538 39.6527 22.5001 39.6527C24.2611 39.6527 25.9599 39.3869 27.5591 38.8939L22.5417 24.7109L17.21 38.8201Z" fill="#00769D"/>
<path d="M36.9956 8.00428C33.1237 4.13236 27.9756 2 22.4999 2C17.0242 2 11.8762 4.13236 8.00428 8.00428C4.13236 11.8762 2 17.0242 2 22.5C2 27.9757 4.13236 33.1237 8.00428 36.9956C11.8762 40.8675 17.0243 42.9999 22.5 42.9999C27.9757 42.9999 33.1237 40.8675 36.9957 36.9956C40.8676 33.1237 43 27.9756 43 22.5C42.9999 17.0242 40.8675 11.8762 36.9956 8.00428ZM22.4999 41.5538C11.9936 41.5538 3.44612 33.0063 3.44612 22.5C3.44612 11.9937 11.9936 3.44612 22.4999 3.44612C33.0062 3.44612 41.5537 11.9937 41.5537 22.5C41.5537 33.0063 33.0063 41.5538 22.4999 41.5538Z" fill="#00769D"/>
</svg>
